<svg xmlns="http://www.w3.org/2000/svg" xmlns:xlink="http://www.w3.org/1999/xlink" width="500" zoomAndPan="magnify" viewBox="0 0 375 374.999991" height="500" preserveAspectRatio="xMidYMid meet" version="1.0"><defs><clipPath id="2a1026970b"><path d="M 84.773438 89.140625 L 290.273438 89.140625 L 290.273438 285.640625 L 84.773438 285.640625 Z M 84.773438 89.140625 " clip-rule="nonzero"/></clipPath></defs><rect x="-37.5" width="450" fill="#ffffff" y="-37.499999" height="449.999989" fill-opacity="1"/><rect x="-37.5" width="450" fill="#ffffff" y="-37.499999" height="449.999989" fill-opacity="1"/><g clip-path="url(#2a1026970b)"><path fill="#0284c7" d="M 278.492188 191.460938 L 273.15625 191.460938 L 273.15625 172.792969 C 273.15625 159.988281 262.683594 149.515625 249.882812 149.515625 L 195.253906 149.515625 L 195.253906 130.300781 C 203.191406 127.195312 208.832031 119.511719 208.832031 110.472656 C 208.832031 98.691406 199.277344 89.136719 187.496094 89.136719 C 175.710938 89.136719 166.160156 98.691406 166.160156 110.472656 C 166.160156 119.511719 171.800781 127.191406 179.734375 130.300781 L 179.734375 149.515625 L 125.109375 149.515625 C 112.308594 149.515625 101.832031 159.988281 101.832031 172.792969 L 101.832031 191.460938 L 96.5 191.460938 C 90.097656 191.460938 84.863281 196.699219 84.863281 203.097656 L 84.863281 230.550781 C 84.863281 236.953125 90.097656 242.1875 96.5 242.1875 L 101.832031 242.1875 L 101.832031 262.578125 C 101.832031 275.382812 112.308594 285.855469 125.109375 285.855469 L 249.882812 285.855469 C 262.683594 285.855469 273.15625 275.382812 273.15625 262.578125 L 273.15625 242.1875 L 278.492188 242.1875 C 284.894531 242.1875 290.128906 236.953125 290.128906 230.550781 L 290.128906 203.097656 C 290.128906 196.699219 284.894531 191.460938 278.492188 191.460938 Z M 137.363281 200.230469 C 137.363281 190.589844 145.179688 182.773438 154.820312 182.773438 C 164.460938 182.773438 172.277344 190.589844 172.277344 200.230469 C 172.277344 209.871094 164.460938 217.6875 154.820312 217.6875 C 145.179688 217.6875 137.363281 209.871094 137.363281 200.230469 Z M 204.492188 255.144531 L 170.5 255.144531 C 166.214844 255.144531 162.742188 251.667969 162.742188 247.386719 C 162.742188 243.101562 166.214844 239.625 170.5 239.625 L 204.492188 239.625 C 208.777344 239.625 212.25 243.101562 212.25 247.386719 C 212.25 251.667969 208.777344 255.144531 204.492188 255.144531 Z M 220.171875 217.6875 C 210.53125 217.6875 202.714844 209.871094 202.714844 200.230469 C 202.714844 190.589844 210.53125 182.773438 220.171875 182.773438 C 229.8125 182.773438 237.628906 190.589844 237.628906 200.230469 C 237.628906 209.871094 229.8125 217.6875 220.171875 217.6875 Z M 220.171875 217.6875 " fill-opacity="1" fill-rule="nonzero"/></g></svg>