<svg xmlns="http://www.w3.org/2000/svg" xmlns:xlink="http://www.w3.org/1999/xlink" width="500" zoomAndPan="magnify" viewBox="0 0 375 374.999991" height="500" preserveAspectRatio="xMidYMid meet" version="1.0"><rect x="-37.5" width="450" fill="#ffffff" y="-37.499999" height="449.999989" fill-opacity="1"/><rect x="-37.5" width="450" fill="#ffffff" y="-37.499999" height="449.999989" fill-opacity="1"/><path fill="#0284c7" d="M 175.253906 146.347656 C 175.027344 146.109375 174.636719 146.261719 174.636719 146.585938 L 174.636719 221.003906 C 178.617188 223.402344 182.855469 225.335938 187.273438 226.753906 L 187.273438 158.941406 C 187.273438 158.855469 187.230469 158.757812 187.160156 158.703125 Z M 175.253906 146.347656 " fill-opacity="1" fill-rule="nonzero"/><path fill="#0284c7" d="M 209.894531 169.472656 L 204.15625 175.757812 C 204.019531 175.910156 203.78125 175.910156 203.640625 175.757812 L 198.507812 170.441406 C 198.28125 170.21875 197.890625 170.371094 197.890625 170.695312 L 197.890625 229.121094 C 200.539062 229.472656 203.21875 229.65625 205.9375 229.65625 C 207.480469 229.65625 209.011719 229.601562 210.527344 229.488281 L 210.527344 169.710938 C 210.527344 169.390625 210.117188 169.234375 209.894531 169.472656 Z M 209.894531 169.472656 " fill-opacity="1" fill-rule="nonzero"/><path fill="#0284c7" d="M 227.886719 150.371094 C 227.734375 150.230469 227.511719 150.230469 227.371094 150.386719 L 221.242188 157.074219 C 221.183594 157.144531 221.140625 157.230469 221.140625 157.3125 L 221.140625 227.75 C 225.546875 226.625 229.769531 225.011719 233.777344 222.9375 L 233.777344 156.417969 C 233.777344 156.332031 233.75 156.234375 233.679688 156.164062 Z M 227.886719 150.371094 " fill-opacity="1" fill-rule="nonzero"/><path fill="#0284c7" d="M 245.011719 167.496094 C 244.789062 167.273438 244.410156 167.441406 244.410156 167.75 L 244.410156 215.925781 C 245.9375 214.675781 247.410156 213.34375 248.828125 211.929688 C 251.96875 208.800781 254.71875 205.363281 257.046875 201.71875 L 257.046875 179.570312 C 257.046875 179.472656 257.003906 179.390625 256.933594 179.320312 Z M 245.011719 167.496094 " fill-opacity="1" fill-rule="nonzero"/><path fill="#0284c7" d="M 259.839844 165.125 L 257.046875 162.335938 L 256.824219 162.109375 C 257.0625 161.421875 257.214844 160.679688 257.214844 159.910156 C 257.214844 156.316406 254.3125 153.414062 250.722656 153.414062 C 249.949219 153.414062 249.207031 153.554688 248.519531 153.808594 L 233.847656 139.136719 C 233.917969 138.773438 233.949219 138.394531 233.949219 138.015625 C 233.949219 134.425781 231.042969 131.523438 227.46875 131.523438 C 223.878906 131.523438 220.972656 134.425781 220.972656 138.015625 C 220.972656 138.464844 221.03125 138.898438 221.113281 139.332031 L 210.527344 150.90625 L 206.921875 154.832031 C 206.09375 154.453125 205.183594 154.230469 204.199219 154.230469 C 202.910156 154.230469 201.71875 154.605469 200.707031 155.265625 L 197.890625 152.347656 L 187.273438 141.339844 L 187.019531 141.085938 C 187.285156 140.386719 187.441406 139.613281 187.441406 138.828125 C 187.441406 135.238281 184.535156 132.335938 180.945312 132.335938 C 180.230469 132.335938 179.542969 132.460938 178.898438 132.671875 L 175.941406 129.601562 C 175.8125 129.460938 175.8125 129.234375 175.953125 129.09375 L 179.191406 125.953125 C 179.390625 125.773438 179.304688 125.433594 179.039062 125.363281 L 167.539062 122.097656 L 165.027344 121.382812 C 164.761719 121.3125 164.507812 121.550781 164.578125 121.816406 L 165.167969 124.160156 L 168.140625 135.941406 C 168.210938 136.207031 168.546875 136.304688 168.746094 136.109375 L 171.507812 133.429688 C 171.648438 133.289062 171.871094 133.289062 172.011719 133.429688 L 174.636719 136.148438 L 174.914062 136.445312 C 174.621094 137.1875 174.46875 137.988281 174.46875 138.828125 C 174.46875 142.40625 177.371094 145.308594 180.945312 145.308594 C 181.703125 145.308594 182.433594 145.167969 183.105469 144.929688 L 187.273438 149.25 L 197.75 160.105469 C 197.734375 160.316406 197.71875 160.511719 197.71875 160.722656 C 197.71875 164.296875 200.625 167.203125 204.199219 167.203125 C 207.789062 167.203125 210.695312 164.296875 210.695312 160.722656 C 210.695312 160.148438 210.609375 159.613281 210.484375 159.09375 L 210.527344 159.039062 L 221.140625 147.425781 L 224.496094 143.78125 C 225.378906 144.230469 226.386719 144.496094 227.46875 144.496094 C 228.605469 144.496094 229.683594 144.199219 230.625 143.679688 L 233.777344 146.851562 L 244.410156 157.46875 L 244.632812 157.691406 C 244.382812 158.394531 244.242188 159.125 244.242188 159.910156 C 244.242188 163.484375 247.144531 166.386719 250.722656 166.386719 C 251.492188 166.386719 252.238281 166.25 252.921875 165.996094 L 255.9375 169.011719 C 256.078125 169.152344 256.304688 169.152344 256.445312 169.011719 L 257.046875 168.421875 L 259.839844 165.632812 C 259.964844 165.492188 259.964844 165.265625 259.839844 165.125 Z M 259.839844 165.125 " fill-opacity="1" fill-rule="nonzero"/><path fill="#0284c7" d="M 264.972656 110.019531 C 232.417969 77.46875 179.460938 77.46875 146.90625 110.019531 C 115.773438 141.15625 114.4375 190.972656 142.882812 223.738281 L 125.574219 241.042969 C 119.742188 238.546875 112.726562 239.65625 107.960938 244.425781 L 83.683594 268.703125 C 77.441406 274.941406 77.441406 285.070312 83.683594 291.308594 C 89.921875 297.550781 100.050781 297.550781 106.289062 291.308594 L 130.566406 267.03125 C 135.335938 262.265625 136.445312 255.25 133.949219 249.417969 L 151.253906 232.109375 C 184.019531 260.554688 233.820312 259.234375 264.972656 228.085938 C 297.523438 195.53125 297.523438 142.558594 264.972656 110.019531 Z M 255.769531 218.871094 C 228.296875 246.347656 183.597656 246.347656 156.121094 218.871094 C 128.648438 191.394531 128.648438 146.695312 156.121094 119.222656 C 183.597656 91.746094 228.296875 91.746094 255.769531 119.222656 C 283.230469 146.695312 283.230469 191.394531 255.769531 218.871094 Z M 255.769531 218.871094 " fill-opacity="1" fill-rule="nonzero"/></svg>