<svg xmlns="http://www.w3.org/2000/svg" xmlns:xlink="http://www.w3.org/1999/xlink" width="500" zoomAndPan="magnify" viewBox="0 0 375 374.999991" height="500" preserveAspectRatio="xMidYMid meet" version="1.0"><defs><clipPath id="b61c46c632"><path d="M 104 168 L 287 168 L 287 290.988281 L 104 290.988281 Z M 104 168 " clip-rule="nonzero"/></clipPath></defs><rect x="-37.5" width="450" fill="#ffffff" y="-37.499999" height="449.999989" fill-opacity="1"/><rect x="-37.5" width="450" fill="#ffffff" y="-37.499999" height="449.999989" fill-opacity="1"/><path fill="#0284c7" d="M 237.222656 207.785156 C 237.429688 206.746094 238.261719 206.121094 239.304688 205.914062 L 247.832031 205.082031 C 250.953125 204.664062 253.449219 201.960938 253.449219 198.839844 L 253.449219 185.523438 C 253.449219 182.402344 250.953125 179.699219 247.832031 179.28125 L 239.304688 178.449219 C 238.261719 178.242188 237.429688 177.617188 237.222656 176.578125 C 236.390625 173.664062 235.140625 170.75 233.683594 168.253906 C 233.269531 167.421875 233.269531 166.171875 233.894531 165.550781 L 239.304688 158.890625 C 241.382812 156.394531 241.175781 152.855469 238.886719 150.570312 L 229.316406 140.996094 C 227.027344 138.707031 223.488281 138.5 220.992188 140.582031 L 214.335938 145.992188 C 213.503906 146.40625 212.460938 146.40625 211.628906 145.992188 C 208.925781 144.535156 206.21875 143.496094 203.308594 142.453125 C 202.265625 142.246094 201.644531 141.414062 201.433594 140.375 L 200.394531 131.84375 C 199.980469 128.722656 197.273438 126.226562 194.152344 126.226562 L 180.835938 126.226562 C 177.714844 126.226562 175.011719 128.722656 174.59375 131.84375 L 173.761719 140.375 C 173.554688 141.414062 172.929688 142.246094 171.890625 142.453125 C 168.976562 143.285156 166.0625 144.535156 163.566406 145.992188 C 162.734375 146.40625 161.488281 146.40625 160.863281 145.78125 L 154.203125 140.375 C 151.707031 138.292969 148.171875 138.5 145.882812 140.789062 L 136.3125 150.359375 C 134.023438 152.648438 133.8125 156.1875 135.894531 158.683594 L 141.304688 165.339844 C 141.929688 166.171875 141.929688 167.214844 141.511719 168.046875 C 140.054688 170.75 139.015625 173.457031 137.976562 176.367188 C 137.769531 177.410156 136.933594 178.03125 135.894531 178.242188 L 127.15625 179.28125 C 124.035156 179.699219 121.539062 182.402344 121.539062 185.523438 L 121.539062 198.839844 C 121.539062 201.960938 124.035156 204.664062 127.15625 205.082031 L 135.6875 205.914062 C 136.726562 206.121094 137.558594 206.746094 137.769531 207.785156 C 138.601562 210.699219 139.847656 213.613281 141.304688 216.109375 C 141.722656 216.941406 141.722656 218.1875 141.097656 218.8125 L 135.6875 225.472656 C 133.605469 227.96875 133.816406 231.503906 136.101562 233.792969 L 145.675781 243.363281 C 147.960938 245.652344 151.5 245.863281 153.996094 243.78125 L 160.65625 238.371094 C 161.488281 237.746094 162.527344 237.746094 163.359375 238.164062 C 166.0625 239.621094 168.769531 240.660156 171.683594 241.699219 C 172.722656 241.910156 173.347656 242.742188 173.554688 243.78125 L 174.386719 252.3125 C 174.804688 255.433594 177.507812 257.929688 180.628906 257.929688 L 193.945312 257.929688 C 197.066406 257.929688 199.769531 255.433594 200.1875 252.3125 L 201.019531 243.78125 C 201.226562 242.742188 201.851562 241.910156 202.890625 241.699219 C 205.804688 240.867188 208.71875 239.621094 211.214844 238.164062 C 212.046875 237.746094 213.292969 237.746094 213.917969 238.371094 L 220.578125 243.78125 C 223.074219 245.863281 226.609375 245.652344 228.898438 243.363281 L 238.46875 233.792969 C 240.757812 231.503906 240.96875 227.96875 238.886719 225.472656 L 233.476562 218.8125 C 233.269531 218.1875 233.269531 217.148438 233.683594 216.316406 C 235.140625 213.613281 236.183594 210.699219 237.222656 207.785156 Z M 187.496094 217.566406 C 173.554688 217.566406 162.109375 206.121094 162.109375 192.179688 C 162.109375 178.242188 173.554688 166.796875 187.496094 166.796875 C 201.433594 166.796875 212.878906 178.242188 212.878906 192.179688 C 212.878906 206.121094 201.433594 217.566406 187.496094 217.566406 Z M 187.496094 217.566406 " fill-opacity="1" fill-rule="nonzero"/><path fill="#0284c7" d="M 126.117188 130.800781 C 158.78125 98.136719 211.214844 97.097656 245.335938 127.472656 L 240.550781 132.257812 C 239.304688 133.507812 238.886719 135.378906 239.304688 137.042969 C 239.71875 138.707031 241.175781 139.957031 242.839844 140.164062 L 265.3125 144.117188 C 265.519531 144.117188 265.933594 144.117188 266.144531 144.117188 C 267.390625 144.117188 268.640625 143.703125 269.472656 142.660156 C 270.511719 141.621094 270.929688 139.957031 270.71875 138.5 L 266.765625 116.03125 C 266.558594 114.367188 265.3125 112.910156 263.644531 112.492188 C 261.980469 112.078125 260.109375 112.492188 258.859375 113.742188 L 253.867188 118.734375 C 214.960938 83.988281 155.035156 84.820312 117.585938 122.273438 C 94.492188 145.367188 84.296875 178.449219 90.328125 210.492188 C 90.953125 213.402344 93.449219 215.484375 96.15625 215.484375 C 96.570312 215.484375 96.988281 215.484375 97.195312 215.277344 C 100.523438 214.652344 102.605469 211.53125 101.980469 208.203125 C 96.777344 180.113281 105.726562 150.984375 126.117188 130.800781 Z M 126.117188 130.800781 " fill-opacity="1" fill-rule="nonzero"/><g clip-path="url(#b61c46c632)"><path fill="#0284c7" d="M 284.660156 173.664062 C 284.035156 170.335938 280.914062 168.253906 277.585938 168.878906 C 274.257812 169.503906 272.175781 172.625 272.800781 175.953125 C 278.210938 204.25 269.265625 233.167969 248.875 253.558594 C 216.207031 286.226562 163.777344 287.265625 129.652344 256.890625 L 134.4375 252.105469 C 135.6875 250.855469 136.101562 248.984375 135.6875 247.316406 C 135.0625 245.652344 133.8125 244.40625 132.148438 244.195312 L 109.886719 240.242188 C 108.429688 240.035156 106.765625 240.453125 105.726562 241.492188 C 104.683594 242.53125 104.0625 244.195312 104.476562 245.652344 L 108.429688 268.125 C 108.847656 269.789062 109.886719 271.246094 111.550781 271.660156 C 111.96875 271.871094 112.382812 271.871094 113.007812 271.871094 C 114.257812 271.871094 115.503906 271.453125 116.335938 270.414062 L 121.332031 265.417969 C 140.054688 282.480469 163.777344 291.011719 187.496094 291.011719 C 212.878906 291.011719 238.054688 281.441406 257.40625 262.089844 C 280.5 238.996094 290.695312 205.914062 284.660156 173.664062 Z M 284.660156 173.664062 " fill-opacity="1" fill-rule="nonzero"/></g></svg>