<svg xmlns="http://www.w3.org/2000/svg" width="500" height="500" viewBox="0 0 375 375" preserveAspectRatio="xMidYMid meet">
  <defs>
    <clipPath id="ed6b6e5593">
      <path d="M67.859 247h205.141v9H67.859z" />
    </clipPath>
    <clipPath id="37a0ee857b">
      <path d="M298.195 63.68h8.848v60.066h-8.848z" />
    </clipPath>
    <clipPath id="37dac3572e">
      <path d="M76 302h10v9.18H76z" />
    </clipPath>
    <clipPath id="8b5f224638">
      <path d="M102 289h9v22.18h-9z" />
    </clipPath>
    <clipPath id="1199c59776">
      <path d="M127 302h10v9.18h-10z" />
    </clipPath>
    <clipPath id="85e2f038d5">
      <path d="M153 289h9v22.18h-9z" />
    </clipPath>
    <clipPath id="e5afe1d563">
      <path d="M178 302h10v9.18h-10z" />
    </clipPath>
    <clipPath id="727f7d7d71">
      <path d="M204 289h10v22.18h-10z" />
    </clipPath>
    <clipPath id="7e76073295">
      <path d="M230 302h9v9.18h-9z" />
    </clipPath>
    <clipPath id="407d811be9">
      <path d="M255 289h10v22.18h-10z" />
    </clipPath>
  </defs>
  <g clip-path="url(#ed6b6e5593)">
    <path fill="#0284c7" d="M264.348 247.273H67.941v8.543H272.89l-.003-8.543z" />
  </g>
  <path fill="#0284c7" d="M183.223 140.535h-25.618v12.805h25.618z" />
  <path fill="#0284c7" d="M247.254 230.512l-8.512-.633c.418-5.637.078-14.309-3.934-23.609-4.836-11.215-12.566-17.707-15.664-19.98-4.695-3.438-9.973-5.954-15.672-7.473l2.2-8.25c6.73 1.793 12.96 4.766 18.515 8.832 3.664 2.687 12.797 10.347 18.465 23.488 3.715 8.621 5.309 18.176 4.602 27.625zm8.555-1.562c0-36.98-30.09-67.066-67.07-67.066h-36.648c-36.98 0-67.07 30.086-67.07 67.066v9.785h170.789z" />
  <path fill="#0284c7" d="M166.145 114.914v17.082h8.539v-17.082c0-9.418 7.664-17.079 17.078-17.079h98.199v-8.539h-98.199c-14.125 0-25.618 11.493-25.618 25.618z" />
  <g clip-path="url(#37a0ee857b)">
    <path fill="#0284c7" d="M302.773 63.68c-2.351 0-4.27 1.914-4.27 4.27v51.234c0 2.356 1.918 4.27 4.27 4.27h4.27V63.68z" />
  </g>
  <path fill="#0284c7" d="M76.48 294.242h8.539v-21.348H76.48z" />
  <g clip-path="url(#37dac3572e)">
    <path fill="#0284c7" d="M76.48 311.32h8.539v-8.539H76.48z" />
  </g>
  <g clip-path="url(#8b5f224638)">
    <path fill="#0284c7" d="M102.102 311.32h8.539V289.969h-8.539z" />
  </g>
  <path fill="#0284c7" d="M102.102 281.43h8.539v-8.535h-8.539z" />
  <path fill="#0284c7" d="M127.719 294.242h8.539v-21.348h-8.539z" />
  <g clip-path="url(#1199c59776)">
    <path fill="#0284c7" d="M127.719 311.32h8.539v-8.539h-8.539z" />
  </g>
  <g clip-path="url(#85e2f038d5)">
    <path fill="#0284c7" d="M153.336 311.32h8.539V289.969h-8.539z" />
  </g>
  <path fill="#0284c7" d="M153.336 281.43h8.539v-8.535h-8.539z" />
  <path fill="#0284c7" d="M178.953 294.242h8.539v-21.348h-8.539z" />
  <g clip-path="url(#e5afe1d563)">
    <path fill="#0284c7" d="M178.953 311.32h8.539v-8.539h-8.539z" />
  </g>
  <g clip-path="url(#727f7d7d71)">
    <path fill="#0284c7" d="M204.574 311.32h8.539V289.969h-8.539z" />
  </g>
  <path fill="#0284c7" d="M204.574 281.43h8.539v-8.535h-8.539z" />
  <path fill="#0284c7" d="M230.188 294.242h8.539v-21.348h-8.539z" />
  <g clip-path="url(#7e76073295)">
    <path fill="#0284c7" d="M230.188 311.32h8.539v-8.539h-8.539z" />
  </g>
  <g clip-path="url(#407d811be9)">
    <path fill="#0284c7" d="M255.809 311.32h8.539V289.969h-8.539z" />
  </g>
  <path fill="#0284c7" d="M255.809 281.43h8.539v-8.535h-8.539z" />
</svg>