<svg xmlns="http://www.w3.org/2000/svg" xmlns:xlink="http://www.w3.org/1999/xlink" width="500" zoomAndPan="magnify" viewBox="0 0 375 374.999991" height="500" preserveAspectRatio="xMidYMid meet" version="1.0"><defs><clipPath id="ed6b6e5593"><path d="M 67.859375 247 L 273 247 L 273 256 L 67.859375 256 Z M 67.859375 247 " clip-rule="nonzero"/></clipPath><clipPath id="37a0ee857b"><path d="M 298.195312 63.679688 L 307.042969 63.679688 L 307.042969 123.746094 L 298.195312 123.746094 Z M 298.195312 63.679688 " clip-rule="nonzero"/></clipPath><clipPath id="37dac3572e"><path d="M 76 302 L 86 302 L 86 311.179688 L 76 311.179688 Z M 76 302 " clip-rule="nonzero"/></clipPath><clipPath id="8b5f224638"><path d="M 102 289 L 111 289 L 111 311.179688 L 102 311.179688 Z M 102 289 " clip-rule="nonzero"/></clipPath><clipPath id="1199c59776"><path d="M 127 302 L 137 302 L 137 311.179688 L 127 311.179688 Z M 127 302 " clip-rule="nonzero"/></clipPath><clipPath id="85e2f038d5"><path d="M 153 289 L 162 289 L 162 311.179688 L 153 311.179688 Z M 153 289 " clip-rule="nonzero"/></clipPath><clipPath id="e5afe1d563"><path d="M 178 302 L 188 302 L 188 311.179688 L 178 311.179688 Z M 178 302 " clip-rule="nonzero"/></clipPath><clipPath id="727f7d7d71"><path d="M 204 289 L 214 289 L 214 311.179688 L 204 311.179688 Z M 204 289 " clip-rule="nonzero"/></clipPath><clipPath id="7e76073295"><path d="M 230 302 L 239 302 L 239 311.179688 L 230 311.179688 Z M 230 302 " clip-rule="nonzero"/></clipPath><clipPath id="407d811be9"><path d="M 255 289 L 265 289 L 265 311.179688 L 255 311.179688 Z M 255 289 " clip-rule="nonzero"/></clipPath></defs><rect x="-37.5" width="450" fill="#ffffff" y="-37.499999" height="449.999989" fill-opacity="1"/><rect x="-37.5" width="450" fill="#ffffff" y="-37.499999" height="449.999989" fill-opacity="1"/><g clip-path="url(#ed6b6e5593)"><path fill="#0284c7" d="M 264.347656 247.273438 L 67.941406 247.273438 L 67.941406 255.816406 L 272.890625 255.816406 L 272.886719 247.273438 L 264.347656 247.273438 " fill-opacity="1" fill-rule="nonzero"/></g><path fill="#0284c7" d="M 183.222656 140.535156 L 157.605469 140.535156 L 157.605469 153.339844 L 183.222656 153.339844 L 183.222656 140.535156 " fill-opacity="1" fill-rule="nonzero"/><path fill="#0284c7" d="M 247.253906 230.511719 L 238.742188 229.878906 C 239.160156 224.242188 238.820312 215.570312 234.808594 206.269531 C 229.972656 195.054688 222.242188 188.5625 219.144531 186.289062 C 214.449219 182.851562 209.171875 180.335938 203.472656 178.816406 L 205.671875 170.566406 C 212.402344 172.359375 218.632812 175.332031 224.1875 179.398438 C 227.851562 182.085938 236.984375 189.746094 242.652344 202.886719 C 246.367188 211.507812 247.960938 221.0625 247.253906 230.511719 Z M 255.808594 228.949219 C 255.808594 191.96875 225.71875 161.882812 188.738281 161.882812 L 152.089844 161.882812 C 115.109375 161.882812 85.019531 191.96875 85.019531 228.949219 L 85.019531 238.734375 L 255.808594 238.734375 L 255.808594 228.949219 " fill-opacity="1" fill-rule="nonzero"/><path fill="#0284c7" d="M 166.144531 114.914062 L 166.144531 131.996094 L 174.683594 131.996094 L 174.683594 114.914062 C 174.683594 105.496094 182.347656 97.835938 191.761719 97.835938 L 289.960938 97.835938 L 289.960938 89.296875 L 191.761719 89.296875 C 177.636719 89.296875 166.144531 100.789062 166.144531 114.914062 " fill-opacity="1" fill-rule="nonzero"/><g clip-path="url(#37a0ee857b)"><path fill="#0284c7" d="M 302.773438 63.679688 C 300.421875 63.679688 298.503906 65.59375 298.503906 67.949219 L 298.503906 119.183594 C 298.503906 121.539062 300.421875 123.453125 302.773438 123.453125 L 307.042969 123.453125 L 307.042969 63.679688 L 302.773438 63.679688 " fill-opacity="1" fill-rule="nonzero"/></g><path fill="#0284c7" d="M 76.480469 294.242188 L 85.019531 294.242188 L 85.019531 272.894531 L 76.480469 272.894531 L 76.480469 294.242188 " fill-opacity="1" fill-rule="nonzero"/><g clip-path="url(#37dac3572e)"><path fill="#0284c7" d="M 76.480469 311.320312 L 85.019531 311.320312 L 85.019531 302.78125 L 76.480469 302.78125 L 76.480469 311.320312 " fill-opacity="1" fill-rule="nonzero"/></g><g clip-path="url(#8b5f224638)"><path fill="#0284c7" d="M 102.101562 311.320312 L 110.640625 311.320312 L 110.640625 289.96875 L 102.101562 289.96875 L 102.101562 311.320312 " fill-opacity="1" fill-rule="nonzero"/></g><path fill="#0284c7" d="M 102.101562 281.429688 L 110.640625 281.429688 L 110.640625 272.894531 L 102.101562 272.894531 L 102.101562 281.429688 " fill-opacity="1" fill-rule="nonzero"/><path fill="#0284c7" d="M 127.71875 294.242188 L 136.257812 294.242188 L 136.257812 272.894531 L 127.71875 272.894531 L 127.71875 294.242188 " fill-opacity="1" fill-rule="nonzero"/><g clip-path="url(#1199c59776)"><path fill="#0284c7" d="M 127.71875 311.320312 L 136.257812 311.320312 L 136.257812 302.78125 L 127.71875 302.78125 L 127.71875 311.320312 " fill-opacity="1" fill-rule="nonzero"/></g><g clip-path="url(#85e2f038d5)"><path fill="#0284c7" d="M 153.335938 311.320312 L 161.875 311.320312 L 161.875 289.96875 L 153.335938 289.96875 L 153.335938 311.320312 " fill-opacity="1" fill-rule="nonzero"/></g><path fill="#0284c7" d="M 153.335938 281.429688 L 161.875 281.429688 L 161.875 272.894531 L 153.335938 272.894531 L 153.335938 281.429688 " fill-opacity="1" fill-rule="nonzero"/><path fill="#0284c7" d="M 178.953125 294.242188 L 187.492188 294.242188 L 187.492188 272.894531 L 178.953125 272.894531 L 178.953125 294.242188 " fill-opacity="1" fill-rule="nonzero"/><g clip-path="url(#e5afe1d563)"><path fill="#0284c7" d="M 178.953125 311.320312 L 187.492188 311.320312 L 187.492188 302.78125 L 178.953125 302.78125 L 178.953125 311.320312 " fill-opacity="1" fill-rule="nonzero"/></g><g clip-path="url(#727f7d7d71)"><path fill="#0284c7" d="M 204.574219 311.320312 L 213.113281 311.320312 L 213.113281 289.96875 L 204.574219 289.96875 L 204.574219 311.320312 " fill-opacity="1" fill-rule="nonzero"/></g><path fill="#0284c7" d="M 204.574219 281.429688 L 213.113281 281.429688 L 213.113281 272.894531 L 204.574219 272.894531 L 204.574219 281.429688 " fill-opacity="1" fill-rule="nonzero"/><path fill="#0284c7" d="M 230.1875 294.242188 L 238.726562 294.242188 L 238.726562 272.894531 L 230.1875 272.894531 L 230.1875 294.242188 " fill-opacity="1" fill-rule="nonzero"/><g clip-path="url(#7e76073295)"><path fill="#0284c7" d="M 230.1875 311.320312 L 238.726562 311.320312 L 238.726562 302.78125 L 230.1875 302.78125 L 230.1875 311.320312 " fill-opacity="1" fill-rule="nonzero"/></g><g clip-path="url(#407d811be9)"><path fill="#0284c7" d="M 255.808594 311.320312 L 264.347656 311.320312 L 264.347656 289.96875 L 255.808594 289.96875 L 255.808594 311.320312 " fill-opacity="1" fill-rule="nonzero"/></g><path fill="#0284c7" d="M 255.808594 281.429688 L 264.347656 281.429688 L 264.347656 272.894531 L 255.808594 272.894531 L 255.808594 281.429688 " fill-opacity="1" fill-rule="nonzero"/></svg>