<svg xmlns="http://www.w3.org/2000/svg" xmlns:xlink="http://www.w3.org/1999/xlink" width="500" zoomAndPan="magnify" viewBox="0 0 375 374.999991" height="500" preserveAspectRatio="xMidYMid meet" version="1.0"><defs><clipPath id="0aea04be02"><path d="M 64.929688 99.058594 L 310.179688 99.058594 L 310.179688 256.558594 L 64.929688 256.558594 Z M 64.929688 99.058594 " clip-rule="nonzero"/></clipPath></defs><rect x="-37.5" width="450" fill="#ffffff" y="-37.499999" height="449.999989" fill-opacity="1"/><rect x="-37.5" width="450" fill="#ffffff" y="-37.499999" height="449.999989" fill-opacity="1"/><g clip-path="url(#0aea04be02)"><path fill="#0284c7" d="M 169.984375 169.109375 L 169.984375 160.355469 C 169.984375 159.492188 169.945312 158.636719 169.859375 157.78125 C 169.773438 156.921875 169.648438 156.074219 169.480469 155.230469 C 169.3125 154.386719 169.105469 153.554688 168.855469 152.730469 C 168.605469 151.90625 168.316406 151.097656 167.988281 150.304688 C 167.65625 149.507812 167.289062 148.730469 166.882812 147.972656 C 166.480469 147.214844 166.039062 146.476562 165.558594 145.761719 C 165.082031 145.046875 164.570312 144.355469 164.023438 143.691406 C 163.480469 143.027344 162.902344 142.390625 162.292969 141.78125 C 161.683594 141.175781 161.046875 140.597656 160.382812 140.050781 C 159.71875 139.503906 159.027344 138.992188 158.3125 138.515625 C 157.597656 138.039062 156.859375 137.597656 156.101562 137.191406 C 155.34375 136.785156 154.566406 136.417969 153.773438 136.089844 C 152.976562 135.757812 152.167969 135.46875 151.347656 135.21875 C 150.523438 134.972656 149.6875 134.761719 148.84375 134.59375 C 148 134.425781 147.152344 134.300781 146.296875 134.214844 C 145.441406 134.132812 144.582031 134.089844 143.722656 134.089844 L 108.703125 134.089844 C 107.84375 134.089844 106.984375 134.132812 106.128906 134.214844 C 105.273438 134.300781 104.421875 134.425781 103.578125 134.59375 C 102.734375 134.761719 101.902344 134.972656 101.078125 135.21875 C 100.253906 135.46875 99.445312 135.757812 98.652344 136.089844 C 97.855469 136.417969 97.082031 136.785156 96.320312 137.191406 C 95.5625 137.597656 94.828125 138.039062 94.109375 138.515625 C 93.394531 138.992188 92.707031 139.503906 92.039062 140.050781 C 91.375 140.597656 90.738281 141.175781 90.132812 141.78125 C 89.523438 142.390625 88.945312 143.027344 88.398438 143.691406 C 87.855469 144.355469 87.34375 145.046875 86.863281 145.761719 C 86.386719 146.476562 85.945312 147.214844 85.539062 147.972656 C 85.132812 148.730469 84.765625 149.507812 84.4375 150.304688 C 84.109375 151.097656 83.820312 151.90625 83.570312 152.730469 C 83.320312 153.554688 83.109375 154.386719 82.941406 155.230469 C 82.773438 156.074219 82.648438 156.921875 82.566406 157.78125 C 82.480469 158.636719 82.4375 159.492188 82.4375 160.355469 L 82.4375 107.824219 C 82.4375 107.25 82.382812 106.679688 82.269531 106.117188 C 82.15625 105.554688 81.992188 105.007812 81.773438 104.476562 C 81.550781 103.945312 81.28125 103.4375 80.964844 102.960938 C 80.644531 102.484375 80.28125 102.042969 79.875 101.632812 C 79.46875 101.226562 79.027344 100.867188 78.546875 100.546875 C 78.070312 100.226562 77.566406 99.957031 77.035156 99.738281 C 76.503906 99.515625 75.957031 99.351562 75.390625 99.238281 C 74.828125 99.125 74.257812 99.070312 73.683594 99.070312 C 73.109375 99.070312 72.539062 99.125 71.976562 99.238281 C 71.410156 99.351562 70.863281 99.515625 70.332031 99.738281 C 69.800781 99.957031 69.296875 100.226562 68.820312 100.546875 C 68.34375 100.867188 67.898438 101.226562 67.492188 101.632812 C 67.085938 102.042969 66.722656 102.484375 66.40625 102.960938 C 66.085938 103.4375 65.816406 103.945312 65.59375 104.476562 C 65.375 105.007812 65.210938 105.554688 65.097656 106.117188 C 64.984375 106.679688 64.929688 107.25 64.929688 107.824219 L 64.929688 247.902344 C 64.929688 248.476562 64.984375 249.046875 65.097656 249.609375 C 65.210938 250.171875 65.375 250.71875 65.59375 251.25 C 65.816406 251.78125 66.085938 252.285156 66.40625 252.765625 C 66.722656 253.242188 67.085938 253.683594 67.492188 254.089844 C 67.898438 254.5 68.34375 254.859375 68.820312 255.179688 C 69.296875 255.5 69.800781 255.769531 70.332031 255.988281 C 70.863281 256.210938 71.410156 256.375 71.976562 256.488281 C 72.539062 256.601562 73.109375 256.65625 73.683594 256.65625 C 74.257812 256.65625 74.828125 256.601562 75.390625 256.488281 C 75.957031 256.375 76.503906 256.210938 77.035156 255.988281 C 77.566406 255.769531 78.070312 255.5 78.546875 255.179688 C 79.027344 254.859375 79.46875 254.5 79.875 254.089844 C 80.28125 253.683594 80.644531 253.242188 80.964844 252.765625 C 81.28125 252.285156 81.550781 251.78125 81.773438 251.25 C 81.992188 250.71875 82.15625 250.171875 82.269531 249.609375 C 82.382812 249.046875 82.4375 248.476562 82.4375 247.902344 L 82.4375 230.390625 L 292.550781 230.390625 L 292.550781 247.902344 C 292.550781 248.476562 292.609375 249.046875 292.71875 249.609375 C 292.832031 250.171875 293 250.71875 293.21875 251.25 C 293.4375 251.78125 293.707031 252.285156 294.027344 252.765625 C 294.347656 253.242188 294.710938 253.683594 295.117188 254.089844 C 295.523438 254.5 295.964844 254.859375 296.441406 255.179688 C 296.921875 255.5 297.425781 255.769531 297.957031 255.988281 C 298.488281 256.210938 299.035156 256.375 299.597656 256.488281 C 300.164062 256.601562 300.730469 256.65625 301.308594 256.65625 C 301.882812 256.65625 302.453125 256.601562 303.015625 256.488281 C 303.578125 256.375 304.125 256.210938 304.65625 255.988281 C 305.1875 255.769531 305.691406 255.5 306.171875 255.179688 C 306.648438 254.859375 307.089844 254.5 307.496094 254.089844 C 307.902344 253.683594 308.265625 253.242188 308.585938 252.765625 C 308.90625 252.285156 309.175781 251.78125 309.394531 251.25 C 309.617188 250.71875 309.78125 250.171875 309.894531 249.609375 C 310.003906 249.046875 310.0625 248.476562 310.0625 247.902344 L 310.0625 204.128906 C 310.0625 202.980469 310.003906 201.835938 309.894531 200.695312 C 309.78125 199.554688 309.613281 198.421875 309.390625 197.296875 C 309.164062 196.171875 308.886719 195.058594 308.554688 193.960938 C 308.222656 192.863281 307.835938 191.785156 307.394531 190.726562 C 306.957031 189.667969 306.46875 188.632812 305.925781 187.621094 C 305.386719 186.609375 304.796875 185.625 304.160156 184.671875 C 303.523438 183.71875 302.839844 182.796875 302.113281 181.910156 C 301.386719 181.023438 300.617188 180.175781 299.804688 179.367188 C 298.992188 178.554688 298.144531 177.785156 297.257812 177.058594 C 296.371094 176.328125 295.453125 175.648438 294.5 175.011719 C 293.542969 174.375 292.5625 173.785156 291.550781 173.242188 C 290.539062 172.703125 289.503906 172.214844 288.445312 171.773438 C 287.382812 171.335938 286.304688 170.949219 285.207031 170.617188 C 284.109375 170.285156 283 170.003906 281.875 169.78125 C 280.75 169.558594 279.617188 169.390625 278.476562 169.277344 C 277.332031 169.164062 276.191406 169.109375 275.042969 169.109375 Z M 169.984375 169.109375 " fill-opacity="1" fill-rule="nonzero"/></g></svg>