<svg xmlns="http://www.w3.org/2000/svg" xmlns:xlink="http://www.w3.org/1999/xlink" width="500" zoomAndPan="magnify" viewBox="0 0 375 374.999991" height="500" preserveAspectRatio="xMidYMid meet" version="1.0"><defs><clipPath id="eb6928258c"><path d="M 64.699219 88.367188 L 309.949219 88.367188 L 309.949219 286.367188 L 64.699219 286.367188 Z M 64.699219 88.367188 " clip-rule="nonzero"/></clipPath></defs><rect x="-37.5" width="450" fill="#ffffff" y="-37.499999" height="449.999989" fill-opacity="1"/><rect x="-37.5" width="450" fill="#ffffff" y="-37.499999" height="449.999989" fill-opacity="1"/><g clip-path="url(#eb6928258c)"><path fill="#0284c7" d="M 123.003906 247.632812 L 123.003906 267.125 C 123.003906 277.796875 114.40625 286.488281 103.734375 286.488281 C 93.09375 286.488281 84.5 277.796875 84.5 267.125 L 84.5 247.632812 L 64.945312 247.632812 L 64.945312 184.421875 C 64.945312 170.621094 74.214844 159.054688 86.804688 155.570312 L 109.425781 101.820312 C 112.621094 93.925781 120.417969 88.335938 129.492188 88.335938 L 245.191406 88.335938 C 254.300781 88.335938 262.066406 93.925781 265.355469 101.820312 L 287.945312 155.570312 C 300.632812 159.054688 309.898438 170.621094 309.898438 184.421875 L 309.898438 247.625 L 290.214844 247.625 L 290.214844 267.121094 C 290.214844 277.789062 281.652344 286.480469 270.949219 286.480469 C 260.277344 286.480469 251.679688 277.789062 251.679688 267.121094 L 251.679688 247.625 L 123.003906 247.625 Z M 103.289062 207.882812 C 112.207031 207.882812 119.394531 200.691406 119.394531 191.714844 C 119.394531 182.828125 112.207031 175.578125 103.289062 175.578125 C 94.40625 175.578125 87.089844 182.828125 87.089844 191.714844 C 87.089844 200.691406 94.40625 207.882812 103.289062 207.882812 Z M 286.351562 191.714844 C 286.351562 182.828125 279.160156 175.578125 270.148438 175.578125 C 261.265625 175.578125 253.980469 182.828125 253.980469 191.714844 C 253.980469 200.691406 261.265625 207.882812 270.148438 207.882812 C 279.160156 207.882812 286.351562 200.691406 286.351562 191.714844 Z M 268.457031 154.453125 L 249.1875 108.121094 C 248.292969 105.722656 246.089844 104.03125 243.40625 104.03125 L 131.28125 104.03125 C 128.691406 104.03125 126.394531 105.722656 125.59375 108.121094 L 106.230469 154.453125 Z M 268.457031 154.453125 " fill-opacity="1" fill-rule="nonzero"/></g></svg>