<svg xmlns="http://www.w3.org/2000/svg" xmlns:xlink="http://www.w3.org/1999/xlink" width="500" zoomAndPan="magnify" viewBox="0 0 375 374.999991" height="500" preserveAspectRatio="xMidYMid meet" version="1.0"><defs><clipPath id="8faa380605"><path d="M 133 57.921875 L 245 57.921875 L 245 317.421875 L 133 317.421875 Z M 133 57.921875 " clip-rule="nonzero"/></clipPath><clipPath id="b551b49483"><path d="M 106.1875 178 L 154 178 L 154 185 L 106.1875 185 Z M 106.1875 178 " clip-rule="nonzero"/></clipPath><clipPath id="55d0d53626"><path d="M 243 84 L 268.9375 84 L 268.9375 181 L 243 181 Z M 243 84 " clip-rule="nonzero"/></clipPath></defs><rect x="-37.5" width="450" fill="#ffffff" y="-37.499999" height="449.999989" fill-opacity="1"/><rect x="-37.5" width="450" fill="#ffffff" y="-37.499999" height="449.999989" fill-opacity="1"/><g clip-path="url(#8faa380605)"><path fill="#0284c7" d="M 216.921875 213.140625 C 212.117188 210.332031 209.148438 205.203125 209.148438 199.640625 L 209.148438 78.167969 C 209.148438 72.765625 207.042969 67.691406 203.210938 63.859375 C 199.429688 60.078125 194.410156 57.972656 189.066406 57.921875 L 188.902344 57.921875 C 183.667969 57.921875 178.699219 60.027344 174.867188 63.804688 C 170.925781 67.691406 168.65625 73.089844 168.65625 78.542969 L 168.65625 199.589844 C 168.65625 205.09375 165.632812 210.277344 160.828125 213.085938 C 143.714844 223.074219 133.132812 241.539062 133.132812 261.296875 C 133.132812 291.746094 157.914062 316.746094 188.363281 317.070312 L 188.902344 317.070312 C 203.640625 317.070312 217.515625 311.347656 228.097656 300.871094 C 238.789062 290.289062 244.675781 276.253906 244.675781 261.351562 C 244.675781 241.589844 234.039062 223.074219 216.921875 213.140625 Z M 188.902344 296.824219 C 170.4375 296.824219 155.375 281.757812 155.375 263.296875 C 155.375 245.855469 168.710938 231.550781 185.71875 229.929688 L 185.71875 76.871094 C 185.71875 75.089844 187.121094 73.683594 188.902344 73.683594 C 190.683594 73.683594 192.089844 75.089844 192.089844 76.871094 L 192.089844 87.558594 L 200.457031 87.558594 C 202.238281 87.558594 203.640625 88.964844 203.640625 90.746094 C 203.640625 92.527344 202.238281 93.929688 200.457031 93.929688 L 192.089844 93.929688 L 192.089844 108.507812 L 200.457031 108.507812 C 202.238281 108.507812 203.640625 109.910156 203.640625 111.695312 C 203.640625 113.476562 202.238281 114.878906 200.457031 114.878906 L 192.089844 114.878906 L 192.089844 129.457031 L 200.457031 129.457031 C 202.238281 129.457031 203.640625 130.859375 203.640625 132.640625 C 203.640625 134.421875 202.238281 135.828125 200.457031 135.828125 L 192.089844 135.828125 L 192.089844 150.402344 L 200.457031 150.402344 C 202.238281 150.402344 203.640625 151.808594 203.640625 153.589844 C 203.640625 155.371094 202.238281 156.773438 200.457031 156.773438 L 192.089844 156.773438 L 192.089844 171.351562 L 200.457031 171.351562 C 202.238281 171.351562 203.640625 172.753906 203.640625 174.535156 C 203.640625 176.320312 202.238281 177.722656 200.457031 177.722656 L 192.089844 177.722656 L 192.089844 192.300781 L 200.457031 192.300781 C 202.238281 192.300781 203.640625 193.703125 203.640625 195.484375 C 203.640625 197.265625 202.238281 198.671875 200.457031 198.671875 L 192.089844 198.671875 L 192.089844 213.246094 L 200.457031 213.246094 C 202.238281 213.246094 203.640625 214.652344 203.640625 216.433594 C 203.640625 218.214844 202.238281 219.617188 200.457031 219.617188 L 192.089844 219.617188 L 192.089844 229.875 C 209.09375 231.496094 222.429688 245.855469 222.429688 263.242188 C 222.429688 281.757812 207.421875 296.824219 188.902344 296.824219 Z M 188.902344 296.824219 " fill-opacity="1" fill-rule="nonzero"/></g><path fill="#0284c7" d="M 216.058594 263.296875 C 216.058594 278.25 203.859375 290.453125 188.902344 290.453125 C 173.949219 290.453125 161.746094 278.25 161.746094 263.296875 C 161.746094 248.339844 173.949219 236.140625 188.902344 236.140625 C 203.910156 236.140625 216.058594 248.285156 216.058594 263.296875 Z M 216.058594 263.296875 " fill-opacity="1" fill-rule="nonzero"/><path fill="#0284c7" d="M 153.808594 106.347656 C 153.808594 108.128906 152.40625 109.535156 150.625 109.535156 L 137.398438 109.535156 C 135.617188 109.535156 134.210938 108.128906 134.210938 106.347656 C 134.210938 104.566406 135.617188 103.164062 137.398438 103.164062 L 150.625 103.164062 C 152.351562 103.164062 153.808594 104.621094 153.808594 106.347656 Z M 153.808594 106.347656 " fill-opacity="1" fill-rule="nonzero"/><path fill="#0284c7" d="M 153.808594 156.667969 C 153.808594 158.449219 152.40625 159.851562 150.625 159.851562 L 142.796875 159.851562 C 141.015625 159.851562 139.609375 158.449219 139.609375 156.667969 C 139.609375 154.886719 141.015625 153.480469 142.796875 153.480469 L 150.625 153.480469 C 152.351562 153.480469 153.808594 154.886719 153.808594 156.667969 Z M 153.808594 156.667969 " fill-opacity="1" fill-rule="nonzero"/><path fill="#0284c7" d="M 153.808594 131.507812 C 153.808594 133.289062 152.40625 134.691406 150.625 134.691406 L 124.167969 134.691406 C 122.386719 134.691406 120.984375 133.289062 120.984375 131.507812 C 120.984375 129.726562 122.386719 128.320312 124.167969 128.320312 L 150.625 128.320312 C 152.351562 128.320312 153.808594 129.726562 153.808594 131.507812 Z M 153.808594 131.507812 " fill-opacity="1" fill-rule="nonzero"/><path fill="#0284c7" d="M 126.761719 81.242188 C 126.761719 79.460938 128.164062 78.058594 129.945312 78.058594 L 150.570312 78.058594 C 152.351562 78.058594 153.757812 79.460938 153.757812 81.242188 C 153.757812 83.023438 152.351562 84.429688 150.570312 84.429688 L 129.945312 84.429688 C 128.21875 84.429688 126.761719 82.972656 126.761719 81.242188 Z M 126.761719 81.242188 " fill-opacity="1" fill-rule="nonzero"/><g clip-path="url(#b551b49483)"><path fill="#0284c7" d="M 153.808594 181.773438 C 153.808594 183.554688 152.40625 184.957031 150.625 184.957031 L 109.429688 184.957031 C 107.648438 184.957031 106.246094 183.554688 106.246094 181.773438 C 106.246094 179.988281 107.648438 178.585938 109.429688 178.585938 L 150.625 178.585938 C 152.351562 178.585938 153.808594 180.042969 153.808594 181.773438 Z M 153.808594 181.773438 " fill-opacity="1" fill-rule="nonzero"/></g><path fill="#0284c7" d="M 232.957031 145.921875 C 232.308594 146.570312 231.5 146.839844 230.691406 146.839844 C 229.882812 146.839844 229.070312 146.515625 228.421875 145.921875 C 227.179688 144.679688 227.179688 142.683594 228.421875 141.386719 C 233.226562 136.582031 233.226562 128.753906 228.421875 123.894531 C 227.179688 122.652344 227.179688 120.65625 228.421875 119.359375 C 229.664062 118.117188 231.664062 118.117188 232.957031 119.359375 C 240.246094 126.703125 240.246094 138.582031 232.957031 145.921875 Z M 232.957031 145.921875 " fill-opacity="1" fill-rule="nonzero"/><path fill="#0284c7" d="M 242.839844 159.851562 C 242.191406 160.5 241.378906 160.769531 240.570312 160.769531 C 239.761719 160.769531 238.949219 160.445312 238.304688 159.851562 C 237.0625 158.609375 237.0625 156.613281 238.304688 155.316406 C 250.828125 142.792969 250.828125 122.4375 238.304688 109.910156 C 237.0625 108.671875 237.0625 106.671875 238.304688 105.375 C 239.546875 104.136719 241.542969 104.136719 242.785156 105.375 C 257.847656 120.441406 257.847656 144.84375 242.839844 159.851562 Z M 242.839844 159.851562 " fill-opacity="1" fill-rule="nonzero"/><g clip-path="url(#55d0d53626)"><path fill="#0284c7" d="M 268.753906 132.640625 C 268.753906 150.511719 261.789062 167.300781 249.15625 179.9375 C 248.507812 180.582031 247.699219 180.855469 246.886719 180.855469 C 246.078125 180.855469 245.269531 180.53125 244.621094 179.9375 C 243.378906 178.695312 243.378906 176.695312 244.621094 175.402344 C 256.066406 163.957031 262.382812 148.785156 262.382812 132.585938 C 262.382812 116.445312 256.066406 101.21875 244.621094 89.773438 C 243.378906 88.53125 243.378906 86.535156 244.621094 85.238281 C 245.863281 83.996094 247.859375 83.996094 249.101562 85.238281 C 261.789062 97.980469 268.753906 114.824219 268.753906 132.640625 Z M 268.753906 132.640625 " fill-opacity="1" fill-rule="nonzero"/></g></svg>