<svg xmlns="http://www.w3.org/2000/svg" xmlns:xlink="http://www.w3.org/1999/xlink" width="500" zoomAndPan="magnify" viewBox="0 0 375 374.999991" height="500" preserveAspectRatio="xMidYMid meet" version="1.0"><defs><clipPath id="59feedf3c3"><path d="M 84.984375 75 L 289.734375 75 L 289.734375 298 L 84.984375 298 Z M 84.984375 75 " clip-rule="nonzero"/></clipPath></defs><rect x="-37.5" width="450" fill="#ffffff" y="-37.499999" height="449.999989" fill-opacity="1"/><rect x="-37.5" width="450" fill="#ffffff" y="-37.499999" height="449.999989" fill-opacity="1"/><g clip-path="url(#59feedf3c3)"><path fill="#0284c7" d="M 274.550781 163.054688 C 274.550781 161.628906 274.515625 160.199219 274.445312 158.773438 C 274.375 157.34375 274.269531 155.921875 274.128906 154.5 C 273.992188 153.078125 273.816406 151.660156 273.605469 150.246094 C 273.394531 148.832031 273.152344 147.425781 272.875 146.023438 C 272.59375 144.625 272.28125 143.230469 271.933594 141.84375 C 271.585938 140.457031 271.207031 139.082031 270.792969 137.714844 C 270.378906 136.347656 269.929688 134.992188 269.449219 133.644531 C 268.964844 132.300781 268.453125 130.96875 267.90625 129.648438 C 267.359375 128.328125 266.78125 127.023438 266.167969 125.730469 C 265.558594 124.4375 264.917969 123.164062 264.242188 121.902344 C 263.570312 120.644531 262.863281 119.398438 262.128906 118.175781 C 261.394531 116.949219 260.632812 115.742188 259.839844 114.554688 C 259.042969 113.367188 258.222656 112.199219 257.371094 111.050781 C 256.519531 109.902344 255.640625 108.777344 254.734375 107.671875 C 253.828125 106.570312 252.894531 105.488281 251.9375 104.429688 C 250.976562 103.371094 249.992188 102.335938 248.980469 101.324219 C 247.972656 100.316406 246.9375 99.328125 245.878906 98.371094 C 244.820312 97.410156 243.738281 96.476562 242.632812 95.570312 C 241.527344 94.664062 240.402344 93.785156 239.253906 92.933594 C 238.109375 92.085938 236.941406 91.261719 235.753906 90.46875 C 234.5625 89.675781 233.355469 88.910156 232.132812 88.175781 C 230.90625 87.441406 229.664062 86.738281 228.402344 86.0625 C 227.144531 85.390625 225.867188 84.75 224.578125 84.136719 C 223.285156 83.527344 221.980469 82.949219 220.660156 82.402344 C 219.339844 81.855469 218.007812 81.339844 216.660156 80.859375 C 215.316406 80.378906 213.960938 79.929688 212.59375 79.515625 C 211.226562 79.101562 209.847656 78.71875 208.460938 78.371094 C 207.078125 78.023438 205.683594 77.710938 204.28125 77.433594 C 202.878906 77.152344 201.472656 76.910156 200.058594 76.699219 C 198.648438 76.492188 197.230469 76.316406 195.808594 76.175781 C 194.386719 76.035156 192.960938 75.929688 191.535156 75.859375 C 190.105469 75.789062 188.679688 75.753906 187.25 75.753906 C 185.820312 75.753906 184.394531 75.789062 182.96875 75.859375 C 181.539062 75.929688 180.117188 76.035156 178.695312 76.175781 C 177.273438 76.316406 175.855469 76.492188 174.441406 76.699219 C 173.027344 76.910156 171.621094 77.152344 170.21875 77.433594 C 168.816406 77.710938 167.425781 78.023438 166.039062 78.371094 C 164.652344 78.71875 163.277344 79.101562 161.910156 79.515625 C 160.542969 79.929688 159.183594 80.378906 157.839844 80.859375 C 156.496094 81.339844 155.164062 81.855469 153.84375 82.402344 C 152.523438 82.949219 151.214844 83.527344 149.925781 84.136719 C 148.632812 84.75 147.359375 85.390625 146.097656 86.0625 C 144.835938 86.738281 143.59375 87.441406 142.371094 88.175781 C 141.144531 88.910156 139.9375 89.675781 138.75 90.46875 C 137.5625 91.261719 136.394531 92.085938 135.246094 92.933594 C 134.097656 93.785156 132.972656 94.664062 131.867188 95.570312 C 130.761719 96.476562 129.683594 97.410156 128.625 98.371094 C 127.566406 99.328125 126.53125 100.316406 125.519531 101.324219 C 124.507812 102.335938 123.523438 103.371094 122.566406 104.429688 C 121.605469 105.488281 120.671875 106.570312 119.765625 107.671875 C 118.859375 108.777344 117.980469 109.902344 117.128906 111.050781 C 116.277344 112.199219 115.457031 113.367188 114.664062 114.554688 C 113.871094 115.742188 113.105469 116.949219 112.371094 118.175781 C 111.636719 119.398438 110.933594 120.644531 110.257812 121.902344 C 109.585938 123.164062 108.941406 124.4375 108.332031 125.730469 C 107.722656 127.023438 107.140625 128.328125 106.59375 129.648438 C 106.046875 130.96875 105.535156 132.300781 105.054688 133.644531 C 104.570312 134.992188 104.125 136.347656 103.710938 137.714844 C 103.292969 139.082031 102.914062 140.457031 102.566406 141.84375 C 102.21875 143.230469 101.90625 144.625 101.628906 146.023438 C 101.347656 147.425781 101.105469 148.832031 100.894531 150.246094 C 100.683594 151.660156 100.511719 153.078125 100.371094 154.5 C 100.230469 155.921875 100.125 157.34375 100.054688 158.773438 C 99.984375 160.199219 99.949219 161.628906 99.949219 163.054688 C 98.984375 163.054688 98.03125 163.148438 97.085938 163.332031 C 96.136719 163.515625 95.21875 163.789062 94.324219 164.152344 C 93.429688 164.511719 92.582031 164.957031 91.773438 165.484375 C 90.964844 166.007812 90.214844 166.609375 89.523438 167.28125 C 88.832031 167.949219 88.210938 168.683594 87.660156 169.472656 C 87.109375 170.265625 86.640625 171.101562 86.25 171.984375 C 85.859375 172.867188 85.558594 173.777344 85.347656 174.71875 C 85.132812 175.65625 85.011719 176.609375 84.984375 177.574219 L 84.984375 218.378906 C 84.984375 219.332031 85.078125 220.277344 85.261719 221.210938 C 85.449219 222.144531 85.726562 223.054688 86.089844 223.933594 C 86.453125 224.816406 86.902344 225.652344 87.429688 226.445312 C 87.960938 227.238281 88.5625 227.96875 89.234375 228.644531 C 89.910156 229.316406 90.644531 229.921875 91.4375 230.449219 C 92.230469 230.980469 93.066406 231.425781 93.945312 231.792969 C 94.828125 232.15625 95.734375 232.429688 96.667969 232.617188 C 97.605469 232.804688 98.546875 232.894531 99.5 232.894531 L 109.476562 232.894531 C 110.964844 235.800781 112.609375 238.613281 114.414062 241.335938 C 116.21875 244.054688 118.167969 246.667969 120.265625 249.167969 C 122.363281 251.667969 124.59375 254.042969 126.960938 256.292969 C 129.324219 258.542969 131.808594 260.652344 134.410156 262.621094 C 137.015625 264.589844 139.71875 266.40625 142.527344 268.074219 C 145.332031 269.738281 148.226562 271.238281 151.203125 272.578125 C 154.179688 273.917969 157.21875 275.085938 160.328125 276.085938 C 163.4375 277.082031 166.589844 277.898438 169.789062 278.542969 C 169.824219 279.339844 169.90625 280.136719 170.035156 280.925781 C 170.164062 281.714844 170.339844 282.492188 170.5625 283.261719 C 170.785156 284.027344 171.054688 284.78125 171.367188 285.515625 C 171.683594 286.253906 172.039062 286.96875 172.4375 287.660156 C 172.835938 288.355469 173.277344 289.019531 173.757812 289.660156 C 174.234375 290.300781 174.75 290.910156 175.304688 291.488281 C 175.855469 292.066406 176.441406 292.609375 177.0625 293.117188 C 177.679688 293.625 178.324219 294.09375 179 294.523438 C 179.675781 294.953125 180.371094 295.339844 181.09375 295.6875 C 181.8125 296.035156 182.554688 296.335938 183.3125 296.59375 C 184.070312 296.851562 184.839844 297.0625 185.621094 297.226562 C 186.402344 297.390625 187.195312 297.507812 187.992188 297.578125 C 188.789062 297.644531 189.585938 297.667969 190.386719 297.640625 C 191.183594 297.613281 191.980469 297.539062 192.769531 297.417969 C 193.5625 297.296875 194.339844 297.128906 195.113281 296.910156 C 195.882812 296.695312 196.636719 296.433594 197.375 296.128906 C 198.113281 295.820312 198.832031 295.472656 199.527344 295.078125 C 200.226562 294.6875 200.894531 294.253906 201.539062 293.78125 C 202.183594 293.304688 202.800781 292.796875 203.382812 292.25 C 203.964844 291.699219 204.515625 291.121094 205.027344 290.507812 C 205.539062 289.894531 206.015625 289.25 206.453125 288.582031 C 206.886719 287.910156 207.28125 287.214844 207.636719 286.5 C 207.988281 285.78125 208.296875 285.042969 208.5625 284.289062 C 208.824219 283.535156 209.042969 282.765625 209.214844 281.984375 C 209.386719 281.203125 209.511719 280.414062 209.589844 279.621094 C 209.664062 278.824219 209.695312 278.023438 209.675781 277.226562 C 209.65625 276.425781 209.589844 275.628906 209.476562 274.839844 C 209.359375 274.046875 209.199219 273.265625 208.992188 272.492188 C 208.78125 271.71875 208.527344 270.964844 208.226562 270.222656 C 207.929688 269.480469 207.585938 268.757812 207.199219 268.058594 C 206.8125 267.359375 206.386719 266.683594 205.917969 266.035156 C 205.449219 265.386719 204.945312 264.765625 204.402344 264.179688 C 203.863281 263.589844 203.285156 263.035156 202.679688 262.515625 C 202.070312 262 201.433594 261.515625 200.765625 261.074219 C 200.097656 260.632812 199.410156 260.230469 198.695312 259.871094 C 197.980469 259.511719 197.246094 259.195312 196.492188 258.925781 C 195.742188 258.65625 194.976562 258.429688 194.195312 258.25 C 193.417969 258.070312 192.628906 257.9375 191.832031 257.855469 C 191.039062 257.769531 190.242188 257.734375 189.441406 257.746094 C 188.640625 257.757812 187.84375 257.816406 187.050781 257.921875 C 186.257812 258.03125 185.476562 258.183594 184.703125 258.386719 C 183.925781 258.589844 183.167969 258.835938 182.421875 259.128906 C 181.679688 259.421875 180.957031 259.757812 180.25 260.136719 C 179.546875 260.515625 178.867188 260.9375 178.214844 261.398438 C 177.5625 261.859375 176.9375 262.359375 176.34375 262.894531 C 175.75 263.433594 175.191406 264.003906 174.667969 264.605469 C 174.144531 265.210938 173.65625 265.84375 173.207031 266.503906 C 172.757812 267.167969 172.351562 267.851562 171.984375 268.566406 C 169.210938 268.019531 166.476562 267.320312 163.78125 266.472656 C 161.082031 265.625 158.441406 264.628906 155.855469 263.488281 C 153.265625 262.347656 150.75 261.070312 148.304688 259.652344 C 145.859375 258.234375 143.5 256.683594 141.226562 255.003906 C 138.949219 253.328125 136.773438 251.527344 134.699219 249.609375 C 132.625 247.6875 130.660156 245.660156 128.808594 243.523438 C 126.957031 241.386719 125.226562 239.15625 123.621094 236.828125 C 122.015625 234.503906 120.546875 232.09375 119.207031 229.605469 C 120.070312 228.941406 120.851562 228.191406 121.546875 227.355469 C 122.242188 226.515625 122.835938 225.609375 123.328125 224.640625 C 123.820312 223.667969 124.199219 222.652344 124.464844 221.597656 C 124.726562 220.539062 124.871094 219.46875 124.894531 218.378906 L 124.894531 177.574219 C 124.863281 176.609375 124.742188 175.65625 124.53125 174.71875 C 124.316406 173.777344 124.015625 172.867188 123.628906 171.984375 C 123.238281 171.101562 122.769531 170.265625 122.21875 169.472656 C 121.667969 168.683594 121.046875 167.949219 120.355469 167.28125 C 119.664062 166.609375 118.914062 166.007812 118.105469 165.484375 C 117.296875 164.957031 116.445312 164.511719 115.550781 164.152344 C 114.660156 163.789062 113.738281 163.515625 112.792969 163.332031 C 111.847656 163.148438 110.890625 163.054688 109.925781 163.054688 C 109.925781 161.789062 109.957031 160.527344 110.019531 159.261719 C 110.082031 157.996094 110.175781 156.734375 110.300781 155.476562 C 110.421875 154.21875 110.578125 152.960938 110.765625 151.710938 C 110.949219 150.457031 111.167969 149.210938 111.414062 147.972656 C 111.660156 146.730469 111.9375 145.496094 112.246094 144.269531 C 112.550781 143.039062 112.890625 141.820312 113.257812 140.609375 C 113.625 139.398438 114.019531 138.199219 114.449219 137.007812 C 114.875 135.816406 115.328125 134.632812 115.8125 133.464844 C 116.296875 132.296875 116.808594 131.140625 117.351562 129.996094 C 117.890625 128.851562 118.460938 127.722656 119.058594 126.605469 C 119.652344 125.488281 120.277344 124.390625 120.929688 123.304688 C 121.578125 122.21875 122.253906 121.148438 122.957031 120.097656 C 123.660156 119.046875 124.390625 118.011719 125.144531 116.996094 C 125.898438 115.976562 126.675781 114.980469 127.480469 114.003906 C 128.28125 113.023438 129.109375 112.066406 129.957031 111.128906 C 130.808594 110.191406 131.679688 109.273438 132.574219 108.378906 C 133.46875 107.484375 134.386719 106.613281 135.324219 105.761719 C 136.261719 104.914062 137.21875 104.085938 138.195312 103.285156 C 139.175781 102.480469 140.171875 101.703125 141.1875 100.949219 C 142.207031 100.195312 143.238281 99.46875 144.292969 98.765625 C 145.34375 98.0625 146.414062 97.382812 147.5 96.734375 C 148.582031 96.082031 149.683594 95.460938 150.800781 94.863281 C 151.917969 94.265625 153.046875 93.699219 154.191406 93.15625 C 155.335938 92.617188 156.492188 92.101562 157.660156 91.617188 C 158.828125 91.132812 160.007812 90.679688 161.199219 90.253906 C 162.394531 89.828125 163.59375 89.429688 164.804688 89.0625 C 166.015625 88.695312 167.234375 88.355469 168.460938 88.050781 C 169.691406 87.742188 170.925781 87.464844 172.164062 87.21875 C 173.40625 86.972656 174.652344 86.753906 175.90625 86.570312 C 177.15625 86.382812 178.414062 86.230469 179.671875 86.105469 C 180.929688 85.980469 182.191406 85.886719 183.457031 85.824219 C 184.71875 85.765625 185.984375 85.734375 187.25 85.734375 C 188.515625 85.734375 189.78125 85.765625 191.042969 85.824219 C 192.308594 85.886719 193.570312 85.980469 194.828125 86.105469 C 196.089844 86.230469 197.34375 86.382812 198.597656 86.570312 C 199.847656 86.753906 201.09375 86.972656 202.335938 87.21875 C 203.578125 87.464844 204.8125 87.742188 206.039062 88.050781 C 207.265625 88.355469 208.484375 88.695312 209.695312 89.0625 C 210.90625 89.429688 212.109375 89.828125 213.300781 90.253906 C 214.492188 90.679688 215.671875 91.132812 216.839844 91.617188 C 218.011719 92.101562 219.167969 92.617188 220.308594 93.15625 C 221.453125 93.699219 222.585938 94.265625 223.699219 94.863281 C 224.816406 95.460938 225.917969 96.082031 227.003906 96.734375 C 228.089844 97.382812 229.15625 98.0625 230.210938 98.765625 C 231.261719 99.46875 232.296875 100.195312 233.3125 100.949219 C 234.328125 101.703125 235.324219 102.480469 236.304688 103.285156 C 237.28125 104.085938 238.238281 104.914062 239.175781 105.761719 C 240.117188 106.613281 241.03125 107.484375 241.925781 108.378906 C 242.820312 109.273438 243.695312 110.191406 244.542969 111.128906 C 245.394531 112.066406 246.21875 113.023438 247.023438 114.003906 C 247.824219 114.980469 248.601562 115.976562 249.355469 116.996094 C 250.109375 118.011719 250.839844 119.046875 251.542969 120.097656 C 252.246094 121.148438 252.921875 122.21875 253.574219 123.304688 C 254.222656 124.390625 254.847656 125.488281 255.445312 126.605469 C 256.039062 127.722656 256.609375 128.851562 257.148438 129.996094 C 257.691406 131.140625 258.203125 132.296875 258.6875 133.464844 C 259.171875 134.632812 259.628906 135.816406 260.054688 137.007812 C 260.480469 138.199219 260.875 139.398438 261.246094 140.609375 C 261.613281 141.820312 261.949219 143.039062 262.257812 144.269531 C 262.5625 145.496094 262.839844 146.730469 263.089844 147.972656 C 263.335938 149.210938 263.550781 150.457031 263.738281 151.710938 C 263.921875 152.960938 264.078125 154.21875 264.203125 155.476562 C 264.324219 156.734375 264.417969 157.996094 264.480469 159.261719 C 264.542969 160.527344 264.574219 161.789062 264.574219 163.054688 C 264.574219 163.054688 248.859375 162.707031 249.609375 177.574219 L 249.609375 218.378906 C 249.609375 219.332031 249.699219 220.277344 249.886719 221.210938 C 250.074219 222.144531 250.347656 223.054688 250.714844 223.933594 C 251.078125 224.816406 251.523438 225.652344 252.054688 226.445312 C 252.585938 227.238281 253.1875 227.96875 253.859375 228.644531 C 254.535156 229.316406 255.265625 229.921875 256.058594 230.449219 C 256.851562 230.980469 257.6875 231.425781 258.570312 231.792969 C 259.449219 232.15625 260.359375 232.429688 261.292969 232.617188 C 262.226562 232.804688 263.171875 232.894531 264.125 232.894531 L 275 232.894531 C 275.953125 232.894531 276.898438 232.804688 277.832031 232.617188 C 278.765625 232.429688 279.675781 232.15625 280.554688 231.792969 C 281.4375 231.425781 282.273438 230.980469 283.066406 230.449219 C 283.859375 229.921875 284.589844 229.316406 285.265625 228.644531 C 285.9375 227.96875 286.539062 227.238281 287.070312 226.445312 C 287.601562 225.652344 288.046875 224.816406 288.410156 223.933594 C 288.777344 223.054688 289.050781 222.144531 289.238281 221.210938 C 289.421875 220.277344 289.515625 219.332031 289.515625 218.378906 L 289.515625 177.574219 C 289.554688 177.078125 289.570312 176.582031 289.554688 176.085938 C 289.539062 175.589844 289.496094 175.09375 289.425781 174.605469 C 289.359375 174.113281 289.261719 173.625 289.140625 173.144531 C 289.015625 172.664062 288.867188 172.191406 288.691406 171.726562 C 288.515625 171.261719 288.316406 170.808594 288.089844 170.363281 C 287.867188 169.921875 287.617188 169.492188 287.34375 169.078125 C 287.074219 168.664062 286.777344 168.265625 286.460938 167.882812 C 286.144531 167.5 285.808594 167.132812 285.453125 166.789062 C 285.097656 166.441406 284.722656 166.117188 284.332031 165.8125 C 283.9375 165.507812 283.53125 165.226562 283.105469 164.96875 C 282.683594 164.707031 282.246094 164.472656 281.796875 164.261719 C 281.347656 164.050781 280.890625 163.863281 280.421875 163.703125 C 279.949219 163.542969 279.472656 163.40625 278.988281 163.296875 C 278.503906 163.191406 278.015625 163.109375 277.519531 163.054688 C 277.027344 163 276.53125 162.972656 276.035156 162.972656 C 275.539062 162.972656 275.042969 163 274.550781 163.054688 Z M 274.550781 163.054688 " fill-opacity="1" fill-rule="nonzero"/></g></svg>