<svg xmlns="http://www.w3.org/2000/svg" xmlns:xlink="http://www.w3.org/1999/xlink" width="500" zoomAndPan="magnify" viewBox="0 0 375 374.999991" height="500" preserveAspectRatio="xMidYMid meet" version="1.0"><defs><clipPath id="b1cedb3042"><path d="M 115 201 L 260 201 L 260 275.652344 L 115 275.652344 Z M 115 201 " clip-rule="nonzero"/></clipPath><clipPath id="b9c0a50323"><path d="M 142 99.402344 L 233 99.402344 L 233 190 L 142 190 Z M 142 99.402344 " clip-rule="nonzero"/></clipPath></defs><rect x="-37.5" width="450" fill="#ffffff" y="-37.499999" height="449.999989" fill-opacity="1"/><rect x="-37.5" width="450" fill="#ffffff" y="-37.499999" height="449.999989" fill-opacity="1"/><path fill="#0284c7" d="M 260.605469 254.832031 L 313.9375 254.832031 C 307.578125 205.738281 283.035156 192.429688 253.726562 192.429688 C 240.917969 192.429688 229.03125 194.96875 219.171875 201.894531 C 239.792969 210.066406 253.496094 227.59375 260.605469 254.832031 " fill-opacity="1" fill-rule="nonzero"/><path fill="#0284c7" d="M 253.726562 107.238281 C 244.253906 107.238281 235.632812 110.75 229.015625 116.507812 C 234.433594 124.464844 237.605469 134.039062 237.605469 144.351562 C 237.605469 154.980469 234.210938 164.792969 228.492188 172.875 C 235.171875 178.90625 244.015625 182.605469 253.726562 182.605469 C 274.519531 182.605469 291.40625 165.730469 291.40625 144.9375 C 291.40625 124.113281 274.519531 107.238281 253.726562 107.238281 " fill-opacity="1" fill-rule="nonzero"/><path fill="#0284c7" d="M 114.484375 254.832031 L 61.144531 254.832031 C 67.507812 205.738281 92.042969 192.429688 121.363281 192.429688 C 134.160156 192.429688 146.054688 194.96875 155.914062 201.894531 C 135.296875 210.066406 121.582031 227.59375 114.484375 254.832031 " fill-opacity="1" fill-rule="nonzero"/><path fill="#0284c7" d="M 121.363281 107.238281 C 130.832031 107.238281 139.449219 110.75 146.070312 116.507812 C 140.652344 124.464844 137.484375 134.039062 137.484375 144.351562 C 137.484375 154.980469 140.871094 164.792969 146.59375 172.875 C 139.90625 178.90625 131.074219 182.605469 121.363281 182.605469 C 100.554688 182.605469 83.667969 165.730469 83.667969 144.9375 C 83.667969 124.113281 100.554688 107.238281 121.363281 107.238281 " fill-opacity="1" fill-rule="nonzero"/><g clip-path="url(#b1cedb3042)"><path fill="#0284c7" d="M 259.410156 275.535156 C 251.828125 216.933594 222.535156 201.035156 187.539062 201.035156 C 152.535156 201.035156 123.257812 216.933594 115.675781 275.535156 L 259.410156 275.535156 " fill-opacity="1" fill-rule="nonzero"/></g><g clip-path="url(#b9c0a50323)"><path fill="#0284c7" d="M 232.527344 144.351562 C 232.527344 169.195312 212.375 189.332031 187.539062 189.332031 C 162.699219 189.332031 142.554688 169.195312 142.554688 144.351562 C 142.554688 119.496094 162.699219 99.363281 187.539062 99.363281 C 212.375 99.363281 232.527344 119.496094 232.527344 144.351562 " fill-opacity="1" fill-rule="nonzero"/></g></svg>