<svg xmlns="http://www.w3.org/2000/svg" xmlns:xlink="http://www.w3.org/1999/xlink" width="500" zoomAndPan="magnify" viewBox="0 0 375 374.999991" height="500" preserveAspectRatio="xMidYMid meet" version="1.0"><defs><clipPath id="0b27d3305b"><path d="M 130 77.675781 L 156 77.675781 L 156 121 L 130 121 Z M 130 77.675781 " clip-rule="nonzero"/></clipPath><clipPath id="7538e2dca3"><path d="M 219 77.675781 L 245 77.675781 L 245 121 L 219 121 Z M 219 77.675781 " clip-rule="nonzero"/></clipPath><clipPath id="cf9387b82f"><path d="M 81.519531 99 L 293.769531 99 L 293.769531 297.425781 L 81.519531 297.425781 Z M 81.519531 99 " clip-rule="nonzero"/></clipPath></defs><rect x="-37.5" width="450" fill="#ffffff" y="-37.499999" height="449.999989" fill-opacity="1"/><rect x="-37.5" width="450" fill="#ffffff" y="-37.499999" height="449.999989" fill-opacity="1"/><g clip-path="url(#0b27d3305b)"><path fill="#0097b2" d="M 141.15625 120.609375 L 145.125 120.609375 C 151.058594 120.609375 155.867188 115.800781 155.867188 109.871094 L 155.867188 89.464844 C 155.867188 82.996094 150.625 77.753906 144.15625 77.753906 L 142.121094 77.753906 C 135.65625 77.753906 130.414062 82.996094 130.414062 89.464844 L 130.414062 109.871094 C 130.414062 115.800781 135.222656 120.609375 141.15625 120.609375 Z M 141.15625 120.609375 " fill-opacity="1" fill-rule="nonzero"/></g><g clip-path="url(#7538e2dca3)"><path fill="#0097b2" d="M 229.855469 120.609375 L 233.828125 120.609375 C 239.761719 120.609375 244.570312 115.800781 244.570312 109.871094 L 244.570312 89.464844 C 244.570312 82.996094 239.328125 77.753906 232.859375 77.753906 L 230.824219 77.753906 C 224.355469 77.753906 219.113281 82.996094 219.113281 89.464844 L 219.113281 109.871094 C 219.113281 115.800781 223.921875 120.609375 229.855469 120.609375 Z M 229.855469 120.609375 " fill-opacity="1" fill-rule="nonzero"/></g><g clip-path="url(#cf9387b82f)"><path fill="#0097b2" d="M 275.046875 99.195312 L 255.605469 99.195312 L 255.605469 109.886719 C 255.605469 121.867188 245.835938 131.636719 233.855469 131.636719 L 229.890625 131.636719 C 217.820312 131.636719 208.050781 121.867188 208.050781 109.886719 L 208.050781 99.195312 L 166.949219 99.195312 L 166.949219 109.886719 C 166.949219 121.867188 157.179688 131.636719 145.109375 131.636719 L 141.144531 131.636719 C 129.164062 131.636719 119.394531 121.867188 119.394531 109.886719 L 119.394531 99.195312 L 99.949219 99.195312 C 89.71875 99.195312 81.515625 107.398438 81.515625 117.628906 L 81.515625 278.8125 C 81.515625 288.949219 89.71875 297.242188 99.949219 297.242188 L 275.046875 297.242188 C 285.1875 297.242188 293.480469 288.949219 293.480469 278.8125 L 293.480469 117.628906 C 293.480469 107.398438 285.1875 99.195312 275.046875 99.195312 Z M 151.28125 259.089844 C 151.28125 261.761719 149.160156 263.882812 146.488281 263.882812 L 117.460938 263.882812 C 114.789062 263.882812 112.574219 261.761719 112.574219 259.089844 L 112.574219 244.527344 C 112.574219 241.855469 114.789062 239.644531 117.460938 239.644531 L 146.488281 239.644531 C 149.160156 239.644531 151.28125 241.855469 151.28125 244.527344 Z M 151.28125 218.722656 C 151.28125 221.398438 149.160156 223.515625 146.488281 223.515625 L 117.460938 223.515625 C 114.789062 223.515625 112.574219 221.398438 112.574219 218.722656 L 112.574219 204.164062 C 112.574219 201.488281 114.789062 199.371094 117.460938 199.371094 L 146.488281 199.371094 C 149.160156 199.371094 151.28125 201.488281 151.28125 204.164062 Z M 151.28125 178.449219 C 151.28125 181.03125 149.160156 183.242188 146.488281 183.242188 L 117.460938 183.242188 C 114.789062 183.242188 112.574219 181.03125 112.574219 178.449219 L 112.574219 163.890625 C 112.574219 161.21875 114.789062 159.007812 117.460938 159.007812 L 146.488281 159.007812 C 149.160156 159.007812 151.28125 161.21875 151.28125 163.890625 Z M 206.851562 259.089844 C 206.851562 261.761719 204.640625 263.882812 202.058594 263.882812 L 172.9375 263.882812 C 170.359375 263.882812 168.148438 261.761719 168.148438 259.089844 L 168.148438 244.527344 C 168.148438 241.855469 170.359375 239.644531 172.9375 239.644531 L 202.058594 239.644531 C 204.640625 239.644531 206.851562 241.855469 206.851562 244.527344 Z M 206.851562 218.722656 C 206.851562 221.398438 204.640625 223.515625 202.058594 223.515625 L 172.9375 223.515625 C 170.359375 223.515625 168.148438 221.398438 168.148438 218.722656 L 168.148438 204.164062 C 168.148438 201.488281 170.359375 199.371094 172.9375 199.371094 L 202.058594 199.371094 C 204.640625 199.371094 206.851562 201.488281 206.851562 204.164062 Z M 206.851562 178.449219 C 206.851562 181.03125 204.640625 183.242188 202.058594 183.242188 L 172.9375 183.242188 C 170.359375 183.242188 168.148438 181.03125 168.148438 178.449219 L 168.148438 163.890625 C 168.148438 161.21875 170.359375 159.007812 172.9375 159.007812 L 202.058594 159.007812 C 204.640625 159.007812 206.851562 161.21875 206.851562 163.890625 Z M 262.332031 259.089844 C 262.332031 261.761719 260.210938 263.882812 257.539062 263.882812 L 228.507812 263.882812 C 225.835938 263.882812 223.714844 261.761719 223.714844 259.089844 L 223.714844 244.527344 C 223.714844 241.855469 225.835938 239.644531 228.507812 239.644531 L 257.539062 239.644531 C 260.210938 239.644531 262.332031 241.855469 262.332031 244.527344 Z M 262.332031 218.722656 C 262.332031 221.398438 260.210938 223.515625 257.539062 223.515625 L 228.507812 223.515625 C 225.835938 223.515625 223.714844 221.398438 223.714844 218.722656 L 223.714844 204.164062 C 223.714844 201.488281 225.835938 199.371094 228.507812 199.371094 L 257.539062 199.371094 C 260.210938 199.371094 262.332031 201.488281 262.332031 204.164062 Z M 262.332031 178.449219 C 262.332031 181.03125 260.210938 183.242188 257.539062 183.242188 L 228.507812 183.242188 C 225.835938 183.242188 223.714844 181.03125 223.714844 178.449219 L 223.714844 163.890625 C 223.714844 161.21875 225.835938 159.007812 228.507812 159.007812 L 257.539062 159.007812 C 260.210938 159.007812 262.332031 161.21875 262.332031 163.890625 Z M 262.332031 178.449219 " fill-opacity="1" fill-rule="nonzero"/></g></svg>