<svg xmlns="http://www.w3.org/2000/svg" xmlns:xlink="http://www.w3.org/1999/xlink" width="500" zoomAndPan="magnify" viewBox="0 0 375 374.999991" height="500" preserveAspectRatio="xMidYMid meet" version="1.0"><defs><clipPath id="02cf40a96d"><path d="M 106.769531 52.953125 L 268.019531 52.953125 L 268.019531 322.203125 L 106.769531 322.203125 Z M 106.769531 52.953125 " clip-rule="nonzero"/></clipPath></defs><rect x="-37.5" width="450" fill="#ffffff" y="-37.499999" height="449.999989" fill-opacity="1"/><rect x="-37.5" width="450" fill="#ffffff" y="-37.499999" height="449.999989" fill-opacity="1"/><g clip-path="url(#02cf40a96d)"><path fill="#0284c7" d="M 196.578125 52.953125 L 110.472656 79.863281 C 108.328125 80.933594 106.769531 83.101562 106.769531 85.242188 L 106.769531 295.128906 C 106.769531 297.820312 108.453125 299.964844 111.144531 300.507812 L 197.25 322.035156 L 198.257812 322.035156 C 199.332031 322.035156 200.382812 321.574219 201.453125 321.027344 C 202.527344 319.953125 203.640625 318.273438 203.640625 316.65625 L 203.640625 58.335938 C 203.640625 56.71875 202.527344 55.035156 201.453125 53.964844 C 199.835938 52.890625 198.195312 52.953125 196.578125 52.953125 Z M 214.402344 74.480469 L 214.402344 85.242188 L 257.457031 85.242188 L 257.457031 289.746094 L 214.402344 289.746094 L 214.402344 300.507812 L 262.839844 300.507812 C 265.804688 300.507812 268.21875 298.09375 268.21875 295.128906 L 268.21875 79.863281 C 268.21875 76.898438 265.804688 74.480469 262.839844 74.480469 Z M 182.113281 182.113281 C 185.351562 182.113281 187.496094 185.875 187.496094 190.1875 C 187.496094 194.496094 185.351562 198.257812 182.113281 198.257812 C 178.875 198.257812 176.734375 194.496094 176.734375 190.1875 C 176.734375 185.875 178.875 182.113281 182.113281 182.113281 Z M 182.113281 182.113281 " fill-opacity="1" fill-rule="nonzero"/></g></svg>