<svg xmlns="http://www.w3.org/2000/svg" xmlns:xlink="http://www.w3.org/1999/xlink" width="500" zoomAndPan="magnify" viewBox="0 0 375 374.999991" height="500" preserveAspectRatio="xMidYMid meet" version="1.0"><defs><clipPath id="84215a381a"><path d="M 104.394531 51 L 270.894531 51 L 270.894531 324 L 104.394531 324 Z M 104.394531 51 " clip-rule="nonzero"/></clipPath></defs><rect x="-37.5" width="450" fill="#ffffff" y="-37.499999" height="449.999989" fill-opacity="1"/><rect x="-37.5" width="450" fill="#ffffff" y="-37.499999" height="449.999989" fill-opacity="1"/><g clip-path="url(#84215a381a)"><path fill="#0284c7" d="M 109.964844 206.992188 L 177.992188 206.992188 C 179.457031 206.992188 180.867188 207.660156 181.78125 208.800781 C 182.714844 209.945312 183.074219 211.449219 182.75 212.894531 L 159.238281 322.753906 C 159.179688 323 159.066406 323.535156 159.789062 323.855469 C 160.53125 324.199219 160.835938 323.761719 160.988281 323.550781 L 269.589844 176.074219 C 270.753906 174.492188 270.921875 172.511719 270.046875 170.78125 C 269.152344 169.027344 267.457031 168 265.515625 168 L 197.488281 168 C 196.023438 168 194.613281 167.332031 193.699219 166.191406 C 192.765625 165.046875 192.40625 163.542969 192.726562 162.097656 L 216.242188 52.238281 C 216.300781 51.992188 216.414062 51.460938 215.691406 51.136719 C 215.5 51.058594 215.347656 51.019531 215.214844 51.019531 C 214.8125 51.019531 214.605469 51.289062 214.492188 51.441406 L 105.890625 198.917969 C 104.726562 200.5 104.554688 202.480469 105.433594 204.210938 C 106.328125 205.964844 108.023438 206.992188 109.964844 206.992188 " fill-opacity="1" fill-rule="nonzero"/></g></svg>