<svg xmlns="http://www.w3.org/2000/svg" xmlns:xlink="http://www.w3.org/1999/xlink" width="500" zoomAndPan="magnify" viewBox="0 0 375 374.999991" height="500" preserveAspectRatio="xMidYMid meet" version="1.0"><rect x="-37.5" width="450" fill="#ffffff" y="-37.499999" height="449.999989" fill-opacity="1"/><rect x="-37.5" width="450" fill="#ffffff" y="-37.499999" height="449.999989" fill-opacity="1"/><path fill="#0284c7" d="M 243.003906 182.160156 L 155.824219 131.824219 C 151.5 129.328125 146.09375 132.449219 146.09375 137.441406 L 146.09375 238.109375 C 146.09375 242.679688 151.039062 245.535156 154.996094 243.25 L 243.003906 192.4375 C 246.960938 190.152344 246.960938 184.445312 243.003906 182.160156 " fill-opacity="1" fill-rule="nonzero"/><path fill="#0284c7" d="M 256 256 C 237.703125 274.296875 213.375 284.375 187.5 284.375 C 161.625 284.375 137.296875 274.296875 119 256 C 100.703125 237.703125 90.625 213.375 90.625 187.5 C 90.625 161.625 100.703125 137.296875 119 119 C 137.296875 100.703125 161.625 90.625 187.5 90.625 C 213.375 90.625 237.703125 100.703125 256 119 C 274.296875 137.296875 284.375 161.625 284.375 187.5 C 284.375 213.375 274.296875 237.703125 256 256 Z M 187.5 75 C 125.367188 75 75 125.367188 75 187.5 C 75 249.632812 125.367188 300 187.5 300 C 249.632812 300 300 249.632812 300 187.5 C 300 125.367188 249.632812 75 187.5 75 " fill-opacity="1" fill-rule="nonzero"/></svg>