<svg xmlns="http://www.w3.org/2000/svg" xmlns:xlink="http://www.w3.org/1999/xlink" width="500" zoomAndPan="magnify" viewBox="0 0 375 374.999991" height="500" preserveAspectRatio="xMidYMid meet" version="1.0"><defs><clipPath id="3be3b569b7"><path d="M 70.417969 70.417969 L 304.417969 70.417969 L 304.417969 304.417969 L 70.417969 304.417969 Z M 70.417969 70.417969 " clip-rule="nonzero"/></clipPath></defs><rect x="-37.5" width="450" fill="#ffffff" y="-37.499999" height="449.999989" fill-opacity="1"/><rect x="-37.5" width="450" fill="#ffffff" y="-37.499999" height="449.999989" fill-opacity="1"/><g clip-path="url(#3be3b569b7)"><path fill="#0284c7" d="M 304.578125 187.5 C 304.578125 252.144531 252.152344 304.582031 187.503906 304.582031 C 122.820312 304.578125 70.421875 252.144531 70.421875 187.5 C 70.421875 122.847656 122.820312 70.417969 187.496094 70.417969 C 252.144531 70.417969 304.578125 122.847656 304.578125 187.5 Z M 304.578125 187.5 " fill-opacity="1" fill-rule="nonzero"/></g><path fill="#ffffff" d="M 140.257812 154.792969 C 140.257812 148.683594 142.214844 142.480469 146.140625 136.191406 C 150.0625 129.917969 155.808594 124.707031 163.355469 120.570312 C 170.910156 116.453125 179.683594 114.390625 189.757812 114.390625 C 199.105469 114.390625 207.332031 116.117188 214.492188 119.5625 C 221.640625 123.007812 227.164062 127.695312 231.082031 133.621094 C 234.976562 139.554688 236.929688 146.007812 236.929688 152.964844 C 236.929688 158.433594 235.820312 163.238281 233.597656 167.371094 C 231.378906 171.488281 228.726562 175.042969 225.652344 178.054688 C 222.582031 181.042969 217.09375 186.09375 209.15625 193.183594 C 206.96875 195.175781 205.234375 196.929688 203.894531 198.441406 C 202.585938 199.953125 201.613281 201.351562 200.960938 202.601562 C 200.308594 203.863281 199.824219 205.121094 199.453125 206.375 C 199.105469 207.628906 198.570312 209.839844 197.859375 212.984375 C 196.644531 219.679688 192.789062 223.046875 186.363281 223.046875 C 182.996094 223.046875 180.179688 221.945312 177.902344 219.757812 C 175.605469 217.558594 174.464844 214.296875 174.464844 209.988281 C 174.464844 204.570312 175.316406 199.886719 176.988281 195.921875 C 178.648438 191.957031 180.867188 188.480469 183.652344 185.492188 C 186.429688 182.484375 190.152344 178.929688 194.855469 174.792969 C 198.996094 171.183594 201.972656 168.46875 203.804688 166.621094 C 205.632812 164.792969 207.199219 162.753906 208.4375 160.496094 C 209.726562 158.238281 210.34375 155.792969 210.34375 153.148438 C 210.34375 147.984375 208.425781 143.644531 204.589844 140.097656 C 200.734375 136.550781 195.804688 134.773438 189.761719 134.773438 C 182.664062 134.773438 177.4375 136.5625 174.078125 140.144531 C 170.742188 143.71875 167.910156 148.988281 165.582031 155.949219 C 163.398438 163.21875 159.222656 166.859375 153.105469 166.859375 C 149.519531 166.859375 146.441406 165.589844 143.957031 163.058594 C 141.5 160.535156 140.257812 157.765625 140.257812 154.792969 Z M 187.433594 260.738281 C 183.488281 260.738281 180.054688 259.460938 177.109375 256.9375 C 174.195312 254.390625 172.738281 250.828125 172.738281 246.25 C 172.738281 242.199219 174.132812 238.789062 176.988281 236.011719 C 179.824219 233.242188 183.285156 231.851562 187.433594 231.851562 C 191.480469 231.851562 194.878906 233.242188 197.65625 236.011719 C 200.429688 238.785156 201.796875 242.199219 201.796875 246.25 C 201.796875 250.773438 200.359375 254.300781 197.453125 256.882812 C 194.589844 259.46875 191.226562 260.738281 187.433594 260.738281 Z M 187.433594 260.738281 " fill-opacity="1" fill-rule="nonzero"/></svg>