<svg xmlns="http://www.w3.org/2000/svg" xmlns:xlink="http://www.w3.org/1999/xlink" width="500" zoomAndPan="magnify" viewBox="0 0 375 374.999991" height="500" preserveAspectRatio="xMidYMid meet" version="1.0"><defs><clipPath id="19f7a6c84d"><path d="M 78.101562 78.101562 L 297.101562 78.101562 L 297.101562 297.101562 L 78.101562 297.101562 Z M 78.101562 78.101562 " clip-rule="nonzero"/></clipPath></defs><rect x="-37.5" width="450" fill="#ffffff" y="-37.499999" height="449.999989" fill-opacity="1"/><rect x="-37.5" width="450" fill="#0f172a" y="-37.499999" height="449.999989" fill-opacity="1"/><g clip-path="url(#19f7a6c84d)"><path fill="#ffffff" d="M 142.222656 78.851562 C 130.574219 79.398438 122.621094 81.265625 115.667969 83.988281 C 108.46875 86.796875 102.371094 90.550781 96.308594 96.648438 C 90.230469 102.742188 86.496094 108.851562 83.722656 116.0625 C 81.03125 123.035156 79.203125 130.988281 78.6875 142.644531 C 78.171875 154.3125 78.058594 158.035156 78.109375 187.765625 C 78.160156 217.484375 78.296875 221.21875 78.851562 232.894531 C 79.410156 244.542969 81.265625 252.484375 83.988281 259.449219 C 86.796875 266.648438 90.550781 272.734375 96.648438 278.808594 C 102.742188 284.886719 108.851562 288.609375 116.0625 291.394531 C 123.023438 294.085938 130.988281 295.925781 142.632812 296.429688 C 154.3125 296.945312 158.035156 297.058594 187.753906 296.996094 C 217.484375 296.945312 221.207031 296.8125 232.886719 296.253906 C 244.53125 295.695312 252.476562 293.828125 259.4375 291.117188 C 266.636719 288.300781 272.734375 284.554688 278.800781 278.460938 C 284.867188 272.363281 288.601562 266.257812 291.386719 259.046875 C 294.078125 252.082031 295.914062 244.117188 296.417969 232.484375 C 296.925781 220.804688 297.046875 217.070312 296.996094 187.351562 C 296.945312 157.632812 296.800781 153.910156 296.253906 142.230469 C 295.695312 130.574219 293.839844 122.632812 291.117188 115.667969 C 288.300781 108.46875 284.554688 102.382812 278.460938 96.308594 C 272.363281 90.242188 266.257812 86.496094 259.046875 83.722656 C 252.082031 81.03125 244.117188 79.195312 232.472656 78.6875 C 220.796875 78.171875 217.0625 78.058594 187.34375 78.109375 C 157.621094 78.160156 153.898438 78.296875 142.222656 78.851562 M 143.5 276.714844 C 132.835938 276.253906 127.039062 274.476562 123.167969 272.992188 C 118.050781 271.011719 114.410156 268.640625 110.5625 264.832031 C 106.726562 261.003906 104.351562 257.363281 102.351562 252.269531 C 100.855469 248.410156 99.050781 242.625 98.546875 231.945312 C 98 220.414062 97.875 216.949219 97.824219 187.722656 C 97.773438 158.511719 97.875 155.042969 98.378906 143.5 C 98.835938 132.835938 100.617188 127.039062 102.105469 123.179688 C 104.085938 118.0625 106.445312 114.421875 110.265625 110.574219 C 114.089844 106.734375 117.734375 104.363281 122.839844 102.363281 C 126.695312 100.855469 132.484375 99.0625 143.148438 98.554688 C 154.691406 98.007812 158.148438 97.894531 187.371094 97.832031 C 216.597656 97.773438 220.0625 97.875 231.605469 98.390625 C 242.273438 98.855469 248.070312 100.617188 251.929688 102.113281 C 257.042969 104.09375 260.695312 106.445312 264.535156 110.273438 C 268.371094 114.101562 270.753906 117.734375 272.746094 122.847656 C 274.25 126.695312 276.046875 132.492188 276.550781 143.148438 C 277.097656 154.691406 277.222656 158.160156 277.273438 187.371094 C 277.324219 216.597656 277.222656 220.0625 276.714844 231.597656 C 276.253906 242.261719 274.476562 248.070312 272.992188 251.929688 C 271.011719 257.035156 268.648438 260.6875 264.824219 264.523438 C 260.996094 268.351562 257.363281 270.734375 252.246094 272.734375 C 248.398438 274.242188 242.601562 276.035156 231.945312 276.542969 C 220.402344 277.085938 216.949219 277.210938 187.714844 277.261719 C 158.5 277.316406 155.035156 277.210938 143.492188 276.707031 M 232.730469 129.046875 C 232.742188 136.300781 238.640625 142.171875 245.882812 142.148438 C 253.136719 142.140625 259.003906 136.25 258.996094 128.996094 C 258.984375 121.746094 253.082031 115.875 245.832031 115.886719 C 238.578125 115.894531 232.710938 121.796875 232.71875 129.039062 M 131.347656 187.660156 C 131.410156 218.703125 156.621094 243.808594 187.652344 243.746094 C 218.691406 243.6875 243.808594 218.484375 243.746094 187.445312 C 243.6875 156.414062 218.472656 131.296875 187.433594 131.347656 C 156.40625 131.410156 131.289062 156.621094 131.347656 187.660156 M 151.0625 187.621094 C 151.03125 167.472656 167.328125 151.101562 187.476562 151.074219 C 207.621094 151.03125 223.992188 167.328125 224.035156 187.488281 C 224.074219 207.632812 207.765625 224.003906 187.621094 224.035156 C 167.472656 224.074219 151.101562 207.765625 151.074219 187.621094 " fill-opacity="1" fill-rule="nonzero"/></g></svg>