<svg xmlns="http://www.w3.org/2000/svg" xmlns:xlink="http://www.w3.org/1999/xlink" width="500" zoomAndPan="magnify" viewBox="0 0 375 374.999991" height="500" preserveAspectRatio="xMidYMid meet" version="1.0"><defs><clipPath id="19b3172777"><path d="M 85.304688 87.113281 L 285 87.113281 L 285 287 L 85.304688 287 Z M 85.304688 87.113281 " clip-rule="nonzero"/></clipPath></defs><rect x="-37.5" width="450" fill="#ffffff" y="-37.499999" height="449.999989" fill-opacity="1"/><rect x="-37.5" width="450" fill="#0f172a" y="-37.499999" height="449.999989" fill-opacity="1"/><g clip-path="url(#19b3172777)"><path fill="#ffffff" d="M 254.914062 257.042969 L 225.421875 257.042969 L 225.421875 210.808594 C 225.421875 199.789062 225.226562 185.59375 210.085938 185.59375 C 194.945312 185.59375 192.375 197.609375 192.375 210.011719 L 192.375 257.042969 L 162.882812 257.042969 L 162.882812 161.964844 L 191.199219 161.964844 L 191.199219 174.960938 L 191.59375 174.960938 C 197.367188 165.078125 208.105469 159.175781 219.527344 159.597656 C 249.421875 159.597656 254.933594 179.28125 254.933594 204.882812 L 254.933594 257.042969 Z M 129.589844 148.972656 C 120.136719 148.972656 112.46875 141.308594 112.46875 131.847656 C 112.46875 122.386719 120.128906 114.710938 129.582031 114.710938 C 139.03125 114.710938 146.699219 122.375 146.699219 131.835938 C 146.699219 141.296875 139.042969 148.972656 129.589844 148.972656 M 144.34375 257.042969 L 114.816406 257.042969 L 114.816406 161.964844 L 144.34375 161.964844 Z M 269.621094 87.285156 L 99.996094 87.285156 C 91.980469 87.203125 85.398438 93.628906 85.304688 101.652344 L 85.304688 272.140625 C 85.398438 280.171875 91.96875 286.597656 99.996094 286.515625 L 269.621094 286.515625 C 277.65625 286.617188 284.257812 280.183594 284.367188 272.140625 L 284.367188 101.640625 C 284.257812 93.601562 277.65625 87.175781 269.621094 87.277344 " fill-opacity="1" fill-rule="nonzero"/></g></svg>