<svg xmlns="http://www.w3.org/2000/svg" xmlns:xlink="http://www.w3.org/1999/xlink" width="500" zoomAndPan="magnify" viewBox="0 0 375 374.999991" height="500" preserveAspectRatio="xMidYMid meet" version="1.0"><defs><clipPath id="bd60064514"><path d="M 103.359375 73 L 271.359375 73 L 271.359375 302 L 103.359375 302 Z M 103.359375 73 " clip-rule="nonzero"/></clipPath></defs><rect x="-37.5" width="450" fill="#ffffff" y="-37.499999" height="449.999989" fill-opacity="1"/><rect x="-37.5" width="450" fill="#ffffff" y="-37.499999" height="449.999989" fill-opacity="1"/><g clip-path="url(#bd60064514)"><path fill="#0284c7" d="M 187.484375 199.945312 C 162.582031 199.945312 142.382812 179.746094 142.382812 154.820312 C 142.382812 129.929688 162.582031 109.730469 187.484375 109.730469 C 212.410156 109.730469 232.570312 129.929688 232.570312 154.820312 C 232.570312 179.746094 212.410156 199.945312 187.484375 199.945312 Z M 187.484375 73.171875 C 141.027344 73.171875 103.375 110.828125 103.375 157.28125 C 103.375 203.761719 187.484375 301.507812 187.484375 301.507812 C 187.484375 301.507812 271.617188 203.761719 271.617188 157.28125 C 271.617188 110.828125 233.960938 73.171875 187.484375 73.171875 " fill-opacity="1" fill-rule="nonzero"/></g></svg>