<svg xmlns="http://www.w3.org/2000/svg" xmlns:xlink="http://www.w3.org/1999/xlink" width="500" zoomAndPan="magnify" viewBox="0 0 375 374.999991" height="500" preserveAspectRatio="xMidYMid meet" version="1.0"><defs><clipPath id="1fdc9ffa48"><path d="M 99.253906 99.253906 L 275.503906 99.253906 L 275.503906 275.503906 L 99.253906 275.503906 Z M 99.253906 99.253906 " clip-rule="nonzero"/></clipPath></defs><rect x="-37.5" width="450" fill="#ffffff" y="-37.499999" height="449.999989" fill-opacity="1"/><rect x="-37.5" width="450" fill="#ffffff" y="-37.499999" height="449.999989" fill-opacity="1"/><path fill="#0284c7" d="M 215.597656 199.671875 C 220.429688 188.46875 218.300781 174.980469 209.164062 165.84375 C 201.875 158.554688 191.835938 155.746094 182.402344 157.363281 L 200.253906 175.214844 L 194.304688 194.269531 L 175.300781 200.265625 L 157.445312 182.414062 C 155.851562 191.871094 158.675781 201.921875 165.960938 209.210938 C 175.097656 218.351562 188.566406 220.457031 199.738281 215.59375 L 245.242188 261.097656 C 249.625 265.480469 256.730469 265.472656 261.113281 261.078125 C 265.492188 256.679688 265.488281 249.5625 261.101562 245.175781 L 215.597656 199.671875 " fill-opacity="1" fill-rule="nonzero"/><g clip-path="url(#1fdc9ffa48)"><path fill="#0284c7" d="M 255.089844 174.8125 C 253.304688 165.269531 249.582031 156.414062 244.292969 148.695312 L 256.125 131.320312 L 243.710938 118.902344 L 226.335938 130.738281 C 218.617188 125.449219 209.765625 121.726562 200.21875 119.941406 L 196.296875 99.265625 L 178.734375 99.265625 L 174.8125 119.941406 C 165.265625 121.726562 156.414062 125.449219 148.695312 130.738281 L 131.320312 118.902344 L 118.902344 131.320312 L 130.738281 148.695312 C 125.449219 156.414062 121.726562 165.269531 119.945312 174.8125 L 99.265625 178.734375 L 99.265625 196.296875 L 119.945312 200.21875 C 121.726562 209.761719 125.449219 218.617188 130.738281 226.335938 L 118.902344 243.710938 L 131.320312 256.125 L 148.695312 244.292969 C 156.414062 249.582031 165.265625 253.304688 174.8125 255.085938 L 178.734375 275.765625 L 196.296875 275.765625 L 200.21875 255.085938 C 205.164062 254.164062 209.910156 252.695312 214.421875 250.785156 L 198.683594 235.058594 C 195.089844 235.902344 191.363281 236.390625 187.515625 236.390625 C 160.523438 236.390625 138.636719 214.511719 138.636719 187.515625 C 138.636719 160.519531 160.523438 138.636719 187.515625 138.636719 C 214.507812 138.636719 236.390625 160.519531 236.390625 187.515625 C 236.390625 191.367188 235.898438 195.097656 235.058594 198.691406 L 250.789062 214.410156 C 252.699219 209.902344 254.164062 205.160156 255.089844 200.21875 L 275.765625 196.296875 L 275.765625 178.734375 L 255.089844 174.8125 " fill-opacity="1" fill-rule="nonzero"/></g></svg>