<svg xmlns="http://www.w3.org/2000/svg" xmlns:xlink="http://www.w3.org/1999/xlink" width="500" zoomAndPan="magnify" viewBox="0 0 375 374.999991" height="500" preserveAspectRatio="xMidYMid meet" version="1.0"><defs><clipPath id="1927a1e41a"><path d="M 121.515625 75.660156 L 253.515625 75.660156 L 253.515625 299.160156 L 121.515625 299.160156 Z M 121.515625 75.660156 " clip-rule="nonzero"/></clipPath></defs><rect x="-37.5" width="450" fill="#ffffff" y="-37.499999" height="449.999989" fill-opacity="1"/><rect x="-37.5" width="450" fill="#ffffff" y="-37.499999" height="449.999989" fill-opacity="1"/><g clip-path="url(#1927a1e41a)"><path fill="#0284c7" d="M 141.816406 75.664062 C 141.816406 75.664062 121.515625 75.664062 121.515625 95.996094 L 121.515625 279 C 121.515625 299.332031 141.816406 299.332031 141.816406 299.332031 L 233.175781 299.332031 C 233.175781 299.332031 253.480469 299.332031 253.480469 279 L 253.480469 95.996094 C 253.480469 75.664062 233.175781 75.664062 233.175781 75.664062 Z M 132.699219 100.269531 L 132.699219 261.308594 L 242.296875 261.308594 L 242.296875 100.269531 Z M 187.496094 289.167969 C 191.703125 289.167969 195.109375 285.753906 195.109375 281.542969 C 195.109375 277.332031 191.703125 273.917969 187.496094 273.917969 C 183.292969 273.917969 179.882812 277.332031 179.882812 281.542969 C 179.882812 285.753906 183.292969 289.167969 187.496094 289.167969 Z M 164.367188 85.832031 C 163.125 85.832031 162.121094 86.8125 162.121094 88.074219 L 162.121094 88.667969 C 162.121094 89.910156 163.132812 90.914062 164.367188 90.914062 L 210.628906 90.914062 C 211.871094 90.914062 212.875 89.933594 212.875 88.667969 L 212.875 88.074219 C 212.875 86.835938 211.859375 85.832031 210.628906 85.832031 Z M 164.367188 85.832031 " fill-opacity="1" fill-rule="evenodd"/></g></svg>