<svg width="64" height="64" viewBox="0 0 64 64" fill="none" xmlns="http://www.w3.org/2000/svg">
  <rect width="64" height="64" rx="12" fill="#3B82F6"/>
  <path d="M20 16H44V20H20V16ZM20 24H44V28H20V24ZM20 32H44V36H20V32ZM20 40H44V44H20V40Z" fill="white"/>
  <path d="M24 20H40V24H24V20ZM24 28H40V32H24V28ZM24 36H40V40H24V36Z" fill="white"/>
  <circle cx="20" cy="18" r="1" fill="white"/>
  <circle cx="20" cy="26" r="1" fill="white"/>
  <circle cx="20" cy="34" r="1" fill="white"/>
  <circle cx="20" cy="42" r="1" fill="white"/>
  <path d="M16 20L20 24L24 20" stroke="white" stroke-width="2" stroke-linecap="round" stroke-linejoin="round"/>
</svg>