<svg xmlns="http://www.w3.org/2000/svg" xmlns:xlink="http://www.w3.org/1999/xlink" width="500" zoomAndPan="magnify" viewBox="0 0 375 374.999991" height="500" preserveAspectRatio="xMidYMid meet" version="1.0"><defs><clipPath id="8615cfa678"><path d="M 159 285 L 216 285 L 216 307.5 L 159 307.5 Z M 159 285 " clip-rule="nonzero"/></clipPath><clipPath id="cdc15935c8"><path d="M 78.410156 67.5 L 296.660156 67.5 L 296.660156 275 L 78.410156 275 Z M 78.410156 67.5 " clip-rule="nonzero"/></clipPath></defs><rect x="-37.5" width="450" fill="#ffffff" y="-37.499999" height="449.999989" fill-opacity="1"/><rect x="-37.5" width="450" fill="#ffffff" y="-37.499999" height="449.999989" fill-opacity="1"/><g clip-path="url(#8615cfa678)"><path fill="#0284c7" d="M 214.921875 286.605469 C 214.390625 285.828125 213.320312 285.292969 212.640625 285.390625 L 162.503906 285.683594 C 162.503906 285.683594 160.707031 286.167969 160.21875 286.945312 C 159.734375 287.722656 159.636719 288.695312 160.027344 289.519531 C 164.785156 300.453125 175.621094 307.496094 187.523438 307.496094 C 199.621094 307.496094 210.453125 300.304688 215.167969 289.179688 C 215.507812 288.308594 215.410156 287.335938 214.921875 286.605469 Z M 214.921875 286.605469 " fill-opacity="1" fill-rule="nonzero"/></g><g clip-path="url(#cdc15935c8)"><path fill="#0284c7" d="M 294.644531 259.691406 L 263.894531 234.042969 L 263.894531 165.6875 C 263.894531 131.046875 240.671875 101.753906 208.996094 92.425781 C 209.140625 91.40625 209.335938 90.386719 209.335938 89.316406 C 209.335938 77.269531 199.570312 67.503906 187.523438 67.503906 C 175.476562 67.503906 165.710938 77.269531 165.710938 89.316406 C 165.710938 90.386719 165.90625 91.40625 166.050781 92.425781 C 134.375 101.753906 111.152344 131 111.152344 165.6875 L 111.152344 234.042969 L 80.351562 259.691406 C 79.089844 260.710938 78.410156 262.265625 78.410156 263.871094 L 78.410156 269.3125 C 78.410156 272.324219 80.839844 274.753906 83.851562 274.753906 L 291.148438 274.753906 C 294.160156 274.753906 296.589844 272.324219 296.589844 269.3125 L 296.589844 263.871094 C 296.589844 262.265625 295.859375 260.710938 294.644531 259.691406 Z M 176.691406 90.191406 C 176.691406 89.898438 176.59375 89.609375 176.59375 89.316406 C 176.59375 83.292969 181.5 78.386719 187.523438 78.386719 C 193.546875 78.386719 198.40625 83.292969 198.40625 89.316406 C 198.40625 89.609375 198.355469 89.898438 198.308594 90.191406 C 194.761719 89.707031 191.167969 89.316406 187.476562 89.316406 C 183.78125 89.316406 180.234375 89.65625 176.691406 90.191406 Z M 176.691406 90.191406 " fill-opacity="1" fill-rule="nonzero"/></g></svg>