<svg xmlns="http://www.w3.org/2000/svg" xmlns:xlink="http://www.w3.org/1999/xlink" width="500" zoomAndPan="magnify" viewBox="0 0 375 374.999991" height="500" preserveAspectRatio="xMidYMid meet" version="1.0"><defs><clipPath id="a3e1e62e22"><path d="M 61.300781 61.300781 L 314 61.300781 L 314 314 L 61.300781 314 Z M 61.300781 61.300781 " clip-rule="nonzero"/></clipPath></defs><rect x="-37.5" width="450" fill="#ffffff" y="-37.499999" height="449.999989" fill-opacity="1"/><rect x="-37.5" width="450" fill="#ffffff" y="-37.499999" height="449.999989" fill-opacity="1"/><g clip-path="url(#a3e1e62e22)"><path fill="#0284c7" d="M 187.5 61.300781 C 185.433594 61.300781 183.371094 61.351562 181.308594 61.453125 C 179.242188 61.554688 177.183594 61.707031 175.128906 61.90625 C 173.074219 62.109375 171.023438 62.363281 168.980469 62.664062 C 166.9375 62.96875 164.90625 63.320312 162.878906 63.726562 C 160.851562 64.128906 158.839844 64.578125 156.835938 65.082031 C 154.832031 65.582031 152.839844 66.132812 150.867188 66.734375 C 148.890625 67.332031 146.929688 67.980469 144.984375 68.675781 C 143.039062 69.371094 141.113281 70.117188 139.203125 70.90625 C 137.296875 71.695312 135.410156 72.535156 133.542969 73.417969 C 131.675781 74.300781 129.832031 75.226562 128.007812 76.203125 C 126.1875 77.175781 124.390625 78.191406 122.621094 79.253906 C 120.847656 80.316406 119.105469 81.421875 117.386719 82.566406 C 115.667969 83.714844 113.980469 84.90625 112.324219 86.136719 C 110.664062 87.367188 109.035156 88.636719 107.4375 89.945312 C 105.84375 91.257812 104.277344 92.605469 102.75 93.992188 C 101.21875 95.378906 99.722656 96.800781 98.261719 98.261719 C 96.800781 99.722656 95.378906 101.21875 93.992188 102.75 C 92.605469 104.277344 91.257812 105.84375 89.945312 107.4375 C 88.636719 109.035156 87.367188 110.664062 86.136719 112.324219 C 84.90625 113.980469 83.714844 115.667969 82.566406 117.386719 C 81.421875 119.105469 80.316406 120.847656 79.253906 122.621094 C 78.191406 124.390625 77.175781 126.1875 76.203125 128.007812 C 75.226562 129.832031 74.300781 131.675781 73.417969 133.542969 C 72.535156 135.410156 71.695312 137.296875 70.90625 139.203125 C 70.117188 141.113281 69.371094 143.039062 68.675781 144.984375 C 67.980469 146.929688 67.332031 148.890625 66.734375 150.867188 C 66.132812 152.839844 65.582031 154.832031 65.082031 156.835938 C 64.578125 158.839844 64.128906 160.851562 63.726562 162.878906 C 63.320312 164.90625 62.96875 166.9375 62.664062 168.980469 C 62.363281 171.023438 62.109375 173.074219 61.90625 175.128906 C 61.707031 177.183594 61.554688 179.242188 61.453125 181.308594 C 61.351562 183.371094 61.300781 185.433594 61.300781 187.5 C 61.300781 189.5625 61.351562 191.628906 61.453125 193.691406 C 61.554688 195.753906 61.707031 197.8125 61.90625 199.867188 C 62.109375 201.925781 62.363281 203.972656 62.664062 206.015625 C 62.96875 208.058594 63.320312 210.09375 63.726562 212.121094 C 64.128906 214.144531 64.578125 216.160156 65.082031 218.164062 C 65.582031 220.167969 66.132812 222.15625 66.734375 224.132812 C 67.332031 226.109375 67.980469 228.070312 68.675781 230.015625 C 69.371094 231.957031 70.117188 233.886719 70.90625 235.792969 C 71.695312 237.703125 72.535156 239.589844 73.417969 241.457031 C 74.300781 243.324219 75.226562 245.167969 76.203125 246.988281 C 77.175781 248.808594 78.191406 250.605469 79.253906 252.378906 C 80.316406 254.148438 81.421875 255.894531 82.566406 257.613281 C 83.714844 259.328125 84.90625 261.015625 86.136719 262.675781 C 87.367188 264.335938 88.636719 265.960938 89.945312 267.558594 C 91.257812 269.15625 92.605469 270.71875 93.992188 272.25 C 95.378906 273.78125 96.800781 275.273438 98.261719 276.734375 C 99.722656 278.195312 101.21875 279.621094 102.75 281.007812 C 104.277344 282.394531 105.84375 283.742188 107.4375 285.050781 C 109.035156 286.363281 110.664062 287.632812 112.324219 288.863281 C 113.980469 290.09375 115.667969 291.28125 117.386719 292.429688 C 119.105469 293.578125 120.847656 294.683594 122.621094 295.742188 C 124.390625 296.804688 126.1875 297.824219 128.007812 298.796875 C 129.832031 299.769531 131.675781 300.699219 133.542969 301.582031 C 135.410156 302.464844 137.296875 303.300781 139.203125 304.09375 C 141.113281 304.882812 143.039062 305.625 144.984375 306.320312 C 146.929688 307.015625 148.890625 307.664062 150.867188 308.265625 C 152.839844 308.863281 154.832031 309.414062 156.835938 309.917969 C 158.839844 310.417969 160.851562 310.871094 162.878906 311.273438 C 164.90625 311.675781 166.9375 312.027344 168.980469 312.332031 C 171.023438 312.636719 173.074219 312.886719 175.128906 313.089844 C 177.183594 313.292969 179.242188 313.445312 181.308594 313.546875 C 183.371094 313.648438 185.433594 313.699219 187.5 313.699219 C 189.5625 313.699219 191.628906 313.648438 193.691406 313.546875 C 195.753906 313.445312 197.8125 313.292969 199.867188 313.089844 C 201.925781 312.886719 203.972656 312.636719 206.015625 312.332031 C 208.058594 312.027344 210.09375 311.675781 212.121094 311.273438 C 214.144531 310.871094 216.160156 310.417969 218.164062 309.917969 C 220.167969 309.414062 222.15625 308.863281 224.132812 308.265625 C 226.109375 307.664062 228.070312 307.015625 230.015625 306.320312 C 231.957031 305.625 233.886719 304.882812 235.792969 304.09375 C 237.703125 303.300781 239.589844 302.464844 241.457031 301.582031 C 243.324219 300.699219 245.167969 299.769531 246.988281 298.796875 C 248.808594 297.824219 250.605469 296.804688 252.378906 295.742188 C 254.148438 294.683594 255.894531 293.578125 257.613281 292.429688 C 259.328125 291.28125 261.015625 290.09375 262.675781 288.863281 C 264.335938 287.632812 265.960938 286.363281 267.558594 285.050781 C 269.15625 283.742188 270.71875 282.394531 272.25 281.007812 C 273.78125 279.621094 275.273438 278.195312 276.734375 276.734375 C 278.195312 275.273438 279.621094 273.78125 281.007812 272.25 C 282.394531 270.71875 283.742188 269.15625 285.050781 267.558594 C 286.363281 265.960938 287.632812 264.335938 288.863281 262.675781 C 290.09375 261.015625 291.28125 259.328125 292.429688 257.613281 C 293.578125 255.894531 294.683594 254.148438 295.742188 252.378906 C 296.804688 250.605469 297.824219 248.808594 298.796875 246.988281 C 299.769531 245.167969 300.699219 243.324219 301.582031 241.457031 C 302.464844 239.589844 303.300781 237.703125 304.09375 235.792969 C 304.882812 233.886719 305.625 231.957031 306.320312 230.015625 C 307.015625 228.070312 307.664062 226.109375 308.265625 224.132812 C 308.863281 222.15625 309.414062 220.167969 309.917969 218.164062 C 310.417969 216.160156 310.871094 214.144531 311.273438 212.121094 C 311.675781 210.09375 312.027344 208.058594 312.332031 206.015625 C 312.636719 203.972656 312.886719 201.925781 313.089844 199.867188 C 313.292969 197.8125 313.445312 195.753906 313.546875 193.691406 C 313.648438 191.628906 313.699219 189.5625 313.699219 187.5 C 313.695312 185.433594 313.644531 183.371094 313.539062 181.308594 C 313.4375 179.246094 313.285156 177.1875 313.078125 175.132812 C 312.875 173.078125 312.621094 171.03125 312.316406 168.988281 C 312.011719 166.945312 311.65625 164.910156 311.253906 162.886719 C 310.847656 160.863281 310.394531 158.847656 309.894531 156.847656 C 309.390625 154.84375 308.835938 152.855469 308.238281 150.878906 C 307.636719 148.902344 306.988281 146.945312 306.292969 145 C 305.59375 143.054688 304.851562 141.128906 304.058594 139.222656 C 303.269531 137.316406 302.429688 135.429688 301.546875 133.5625 C 300.664062 131.695312 299.734375 129.855469 298.761719 128.03125 C 297.789062 126.210938 296.769531 124.417969 295.707031 122.644531 C 294.644531 120.875 293.539062 119.132812 292.394531 117.414062 C 291.246094 115.699219 290.054688 114.011719 288.828125 112.351562 C 287.597656 110.695312 286.324219 109.066406 285.015625 107.472656 C 283.707031 105.875 282.355469 104.3125 280.96875 102.78125 C 279.582031 101.253906 278.160156 99.757812 276.699219 98.296875 C 275.238281 96.835938 273.746094 95.414062 272.214844 94.027344 C 270.6875 92.640625 269.121094 91.292969 267.527344 89.984375 C 265.929688 88.671875 264.304688 87.402344 262.644531 86.171875 C 260.988281 84.941406 259.300781 83.753906 257.582031 82.605469 C 255.867188 81.457031 254.121094 80.351562 252.351562 79.289062 C 250.582031 78.230469 248.785156 77.210938 246.964844 76.238281 C 245.144531 75.261719 243.300781 74.332031 241.433594 73.449219 C 239.570312 72.566406 237.683594 71.730469 235.773438 70.9375 C 233.867188 70.148438 231.941406 69.402344 230 68.707031 C 228.054688 68.011719 226.09375 67.363281 224.121094 66.761719 C 222.144531 66.160156 220.15625 65.609375 218.152344 65.105469 C 216.148438 64.601562 214.136719 64.148438 212.109375 63.746094 C 210.085938 63.339844 208.050781 62.984375 206.011719 62.679688 C 203.96875 62.375 201.917969 62.121094 199.863281 61.917969 C 197.808594 61.714844 195.75 61.5625 193.691406 61.457031 C 191.628906 61.355469 189.5625 61.300781 187.5 61.300781 Z M 121.394531 205.527344 C 120.804688 205.527344 120.214844 205.5 119.628906 205.441406 C 119.039062 205.382812 118.457031 205.296875 117.878906 205.179688 C 117.296875 205.066406 116.726562 204.921875 116.160156 204.75 C 115.597656 204.578125 115.042969 204.382812 114.496094 204.15625 C 113.949219 203.929688 113.417969 203.675781 112.894531 203.398438 C 112.375 203.121094 111.871094 202.816406 111.378906 202.488281 C 110.886719 202.160156 110.414062 201.808594 109.957031 201.433594 C 109.5 201.0625 109.0625 200.664062 108.648438 200.246094 C 108.230469 199.828125 107.832031 199.394531 107.457031 198.9375 C 107.082031 198.480469 106.734375 198.007812 106.40625 197.515625 C 106.078125 197.023438 105.773438 196.519531 105.496094 195.996094 C 105.214844 195.476562 104.964844 194.945312 104.738281 194.398438 C 104.511719 193.851562 104.3125 193.296875 104.144531 192.734375 C 103.972656 192.167969 103.828125 191.59375 103.710938 191.015625 C 103.597656 190.4375 103.511719 189.855469 103.453125 189.265625 C 103.394531 188.679688 103.367188 188.089844 103.367188 187.5 C 103.367188 186.910156 103.394531 186.320312 103.453125 185.730469 C 103.511719 185.144531 103.597656 184.5625 103.710938 183.980469 C 103.828125 183.402344 103.972656 182.832031 104.144531 182.265625 C 104.3125 181.699219 104.511719 181.144531 104.738281 180.601562 C 104.964844 180.054688 105.214844 179.519531 105.496094 179 C 105.773438 178.480469 106.078125 177.972656 106.40625 177.484375 C 106.734375 176.992188 107.082031 176.519531 107.457031 176.0625 C 107.832031 175.605469 108.230469 175.167969 108.648438 174.75 C 109.0625 174.332031 109.5 173.9375 109.957031 173.5625 C 110.414062 173.1875 110.886719 172.835938 111.378906 172.507812 C 111.871094 172.179688 112.375 171.878906 112.894531 171.597656 C 113.417969 171.320312 113.949219 171.070312 114.496094 170.84375 C 115.042969 170.617188 115.597656 170.417969 116.160156 170.246094 C 116.726562 170.074219 117.296875 169.933594 117.878906 169.816406 C 118.457031 169.703125 119.039062 169.617188 119.628906 169.558594 C 120.214844 169.5 120.804688 169.46875 121.394531 169.46875 C 121.984375 169.46875 122.574219 169.5 123.160156 169.558594 C 123.75 169.617188 124.332031 169.703125 124.910156 169.816406 C 125.492188 169.933594 126.0625 170.074219 126.628906 170.246094 C 127.191406 170.417969 127.75 170.617188 128.292969 170.84375 C 128.839844 171.070312 129.371094 171.320312 129.894531 171.597656 C 130.414062 171.878906 130.917969 172.179688 131.410156 172.507812 C 131.902344 172.835938 132.375 173.1875 132.832031 173.5625 C 133.289062 173.9375 133.726562 174.332031 134.144531 174.75 C 134.558594 175.167969 134.957031 175.605469 135.332031 176.0625 C 135.707031 176.519531 136.058594 176.992188 136.386719 177.484375 C 136.710938 177.972656 137.015625 178.480469 137.292969 179 C 137.574219 179.519531 137.824219 180.054688 138.050781 180.601562 C 138.277344 181.144531 138.476562 181.699219 138.648438 182.265625 C 138.816406 182.832031 138.960938 183.402344 139.078125 183.980469 C 139.191406 184.5625 139.277344 185.144531 139.335938 185.730469 C 139.394531 186.320312 139.421875 186.910156 139.421875 187.5 C 139.421875 188.089844 139.394531 188.679688 139.335938 189.265625 C 139.277344 189.855469 139.191406 190.4375 139.078125 191.015625 C 138.960938 191.59375 138.816406 192.167969 138.648438 192.734375 C 138.476562 193.296875 138.277344 193.851562 138.050781 194.398438 C 137.824219 194.945312 137.574219 195.476562 137.292969 195.996094 C 137.015625 196.519531 136.710938 197.023438 136.386719 197.515625 C 136.058594 198.007812 135.707031 198.480469 135.332031 198.9375 C 134.957031 199.394531 134.558594 199.828125 134.144531 200.246094 C 133.726562 200.664062 133.289062 201.0625 132.832031 201.433594 C 132.375 201.808594 131.902344 202.160156 131.410156 202.488281 C 130.917969 202.816406 130.414062 203.121094 129.894531 203.398438 C 129.371094 203.675781 128.839844 203.929688 128.292969 204.15625 C 127.75 204.382812 127.191406 204.578125 126.628906 204.75 C 126.0625 204.921875 125.492188 205.066406 124.910156 205.179688 C 124.332031 205.296875 123.75 205.382812 123.160156 205.441406 C 122.574219 205.5 121.984375 205.527344 121.394531 205.527344 Z M 187.5 205.527344 C 186.910156 205.527344 186.320312 205.5 185.730469 205.441406 C 185.144531 205.382812 184.5625 205.296875 183.980469 205.179688 C 183.402344 205.066406 182.832031 204.921875 182.265625 204.75 C 181.699219 204.578125 181.144531 204.382812 180.601562 204.15625 C 180.054688 203.929688 179.519531 203.675781 179 203.398438 C 178.480469 203.121094 177.972656 202.816406 177.484375 202.488281 C 176.992188 202.160156 176.519531 201.808594 176.0625 201.433594 C 175.605469 201.0625 175.167969 200.664062 174.75 200.246094 C 174.332031 199.828125 173.9375 199.394531 173.5625 198.9375 C 173.1875 198.480469 172.835938 198.007812 172.507812 197.515625 C 172.179688 197.023438 171.878906 196.519531 171.597656 195.996094 C 171.320312 195.476562 171.070312 194.945312 170.84375 194.398438 C 170.617188 193.851562 170.417969 193.296875 170.246094 192.734375 C 170.074219 192.167969 169.933594 191.59375 169.816406 191.015625 C 169.703125 190.4375 169.617188 189.855469 169.558594 189.265625 C 169.5 188.679688 169.46875 188.089844 169.46875 187.5 C 169.46875 186.910156 169.5 186.320312 169.558594 185.730469 C 169.617188 185.144531 169.703125 184.5625 169.816406 183.980469 C 169.933594 183.402344 170.074219 182.832031 170.246094 182.265625 C 170.417969 181.699219 170.617188 181.144531 170.84375 180.601562 C 171.070312 180.054688 171.320312 179.519531 171.597656 179 C 171.878906 178.480469 172.179688 177.972656 172.507812 177.484375 C 172.835938 176.992188 173.1875 176.519531 173.5625 176.0625 C 173.9375 175.605469 174.332031 175.167969 174.75 174.75 C 175.167969 174.332031 175.605469 173.9375 176.0625 173.5625 C 176.519531 173.1875 176.992188 172.835938 177.484375 172.507812 C 177.972656 172.179688 178.480469 171.878906 179 171.597656 C 179.519531 171.320312 180.054688 171.070312 180.601562 170.84375 C 181.144531 170.617188 181.699219 170.417969 182.265625 170.246094 C 182.832031 170.074219 183.402344 169.933594 183.980469 169.816406 C 184.5625 169.703125 185.144531 169.617188 185.730469 169.558594 C 186.320312 169.5 186.910156 169.46875 187.5 169.46875 C 188.089844 169.46875 188.679688 169.5 189.265625 169.558594 C 189.855469 169.617188 190.4375 169.703125 191.015625 169.816406 C 191.59375 169.933594 192.167969 170.074219 192.734375 170.246094 C 193.296875 170.417969 193.851562 170.617188 194.398438 170.84375 C 194.945312 171.070312 195.476562 171.320312 195.996094 171.597656 C 196.519531 171.878906 197.023438 172.179688 197.515625 172.507812 C 198.007812 172.835938 198.480469 173.1875 198.9375 173.5625 C 199.394531 173.9375 199.828125 174.332031 200.246094 174.75 C 200.664062 175.167969 201.0625 175.605469 201.433594 176.0625 C 201.808594 176.519531 202.160156 176.992188 202.488281 177.484375 C 202.816406 177.972656 203.121094 178.480469 203.398438 179 C 203.675781 179.519531 203.929688 180.054688 204.15625 180.601562 C 204.382812 181.144531 204.578125 181.699219 204.75 182.265625 C 204.921875 182.832031 205.066406 183.402344 205.179688 183.980469 C 205.296875 184.5625 205.382812 185.144531 205.441406 185.730469 C 205.5 186.320312 205.527344 186.910156 205.527344 187.5 C 205.527344 188.089844 205.5 188.679688 205.441406 189.265625 C 205.382812 189.855469 205.296875 190.4375 205.179688 191.015625 C 205.066406 191.59375 204.921875 192.167969 204.75 192.734375 C 204.578125 193.296875 204.382812 193.851562 204.15625 194.398438 C 203.929688 194.945312 203.675781 195.476562 203.398438 195.996094 C 203.121094 196.519531 202.816406 197.023438 202.488281 197.515625 C 202.160156 198.007812 201.808594 198.480469 201.433594 198.9375 C 201.0625 199.394531 200.664062 199.828125 200.246094 200.246094 C 199.828125 200.664062 199.394531 201.0625 198.9375 201.433594 C 198.480469 201.808594 198.007812 202.160156 197.515625 202.488281 C 197.023438 202.816406 196.519531 203.121094 195.996094 203.398438 C 195.476562 203.675781 194.945312 203.929688 194.398438 204.15625 C 193.851562 204.382812 193.296875 204.578125 192.734375 204.75 C 192.167969 204.921875 191.59375 205.066406 191.015625 205.179688 C 190.4375 205.296875 189.855469 205.382812 189.265625 205.441406 C 188.679688 205.5 188.089844 205.527344 187.5 205.527344 Z M 253.601562 205.527344 C 253.011719 205.527344 252.425781 205.5 251.835938 205.441406 C 251.25 205.382812 250.664062 205.296875 250.085938 205.179688 C 249.507812 205.066406 248.933594 204.921875 248.371094 204.75 C 247.804688 204.578125 247.25 204.382812 246.703125 204.15625 C 246.160156 203.929688 245.625 203.675781 245.105469 203.398438 C 244.585938 203.121094 244.078125 202.816406 243.585938 202.488281 C 243.097656 202.160156 242.621094 201.808594 242.167969 201.433594 C 241.710938 201.0625 241.273438 200.664062 240.855469 200.246094 C 240.4375 199.828125 240.042969 199.394531 239.667969 198.9375 C 239.292969 198.480469 238.941406 198.007812 238.613281 197.515625 C 238.285156 197.023438 237.980469 196.519531 237.703125 195.996094 C 237.425781 195.476562 237.171875 194.945312 236.949219 194.398438 C 236.722656 193.851562 236.523438 193.296875 236.351562 192.734375 C 236.179688 192.167969 236.035156 191.59375 235.921875 191.015625 C 235.804688 190.4375 235.71875 189.855469 235.660156 189.265625 C 235.605469 188.679688 235.574219 188.089844 235.574219 187.5 C 235.574219 186.910156 235.605469 186.320312 235.660156 185.730469 C 235.71875 185.144531 235.804688 184.5625 235.921875 183.980469 C 236.035156 183.402344 236.179688 182.832031 236.351562 182.265625 C 236.523438 181.699219 236.722656 181.144531 236.949219 180.601562 C 237.171875 180.054688 237.425781 179.519531 237.703125 179 C 237.980469 178.480469 238.285156 177.972656 238.613281 177.484375 C 238.941406 176.992188 239.292969 176.519531 239.667969 176.0625 C 240.042969 175.605469 240.4375 175.167969 240.855469 174.75 C 241.273438 174.332031 241.710938 173.9375 242.167969 173.5625 C 242.621094 173.1875 243.097656 172.835938 243.585938 172.507812 C 244.078125 172.179688 244.585938 171.878906 245.105469 171.597656 C 245.625 171.320312 246.160156 171.070312 246.703125 170.84375 C 247.25 170.617188 247.804688 170.417969 248.371094 170.246094 C 248.933594 170.074219 249.507812 169.933594 250.085938 169.816406 C 250.664062 169.703125 251.25 169.617188 251.835938 169.558594 C 252.425781 169.5 253.011719 169.46875 253.601562 169.46875 C 254.195312 169.46875 254.78125 169.5 255.371094 169.558594 C 255.957031 169.617188 256.542969 169.703125 257.121094 169.816406 C 257.699219 169.933594 258.273438 170.074219 258.835938 170.246094 C 259.402344 170.417969 259.957031 170.617188 260.503906 170.84375 C 261.046875 171.070312 261.582031 171.320312 262.101562 171.597656 C 262.621094 171.878906 263.128906 172.179688 263.621094 172.507812 C 264.109375 172.835938 264.585938 173.1875 265.039062 173.5625 C 265.496094 173.9375 265.933594 174.332031 266.351562 174.75 C 266.769531 175.167969 267.164062 175.605469 267.539062 176.0625 C 267.914062 176.519531 268.265625 176.992188 268.59375 177.484375 C 268.921875 177.972656 269.226562 178.480469 269.503906 179 C 269.78125 179.519531 270.035156 180.054688 270.257812 180.601562 C 270.484375 181.144531 270.683594 181.699219 270.855469 182.265625 C 271.027344 182.832031 271.171875 183.402344 271.285156 183.980469 C 271.402344 184.5625 271.488281 185.144531 271.546875 185.730469 C 271.601562 186.320312 271.632812 186.910156 271.632812 187.5 C 271.632812 188.089844 271.601562 188.679688 271.546875 189.265625 C 271.488281 189.855469 271.402344 190.4375 271.285156 191.015625 C 271.171875 191.59375 271.027344 192.167969 270.855469 192.734375 C 270.683594 193.296875 270.484375 193.851562 270.257812 194.398438 C 270.035156 194.945312 269.78125 195.476562 269.503906 195.996094 C 269.226562 196.519531 268.921875 197.023438 268.59375 197.515625 C 268.265625 198.007812 267.914062 198.480469 267.539062 198.9375 C 267.164062 199.394531 266.769531 199.828125 266.351562 200.246094 C 265.933594 200.664062 265.496094 201.0625 265.039062 201.433594 C 264.585938 201.808594 264.109375 202.160156 263.621094 202.488281 C 263.128906 202.816406 262.621094 203.121094 262.101562 203.398438 C 261.582031 203.675781 261.046875 203.929688 260.503906 204.15625 C 259.957031 204.382812 259.402344 204.578125 258.835938 204.75 C 258.273438 204.921875 257.699219 205.066406 257.121094 205.179688 C 256.542969 205.296875 255.957031 205.382812 255.371094 205.441406 C 254.78125 205.5 254.195312 205.527344 253.601562 205.527344 Z M 253.601562 205.527344 " fill-opacity="1" fill-rule="nonzero"/></g></svg>