<svg xmlns="http://www.w3.org/2000/svg" xmlns:xlink="http://www.w3.org/1999/xlink" width="500" zoomAndPan="magnify" viewBox="0 0 375 374.999991" height="500" preserveAspectRatio="xMidYMid meet" version="1.0"><defs><clipPath id="171aad7264"><path d="M 99.519531 68.316406 L 275.769531 68.316406 L 275.769531 306.816406 L 99.519531 306.816406 Z M 99.519531 68.316406 " clip-rule="nonzero"/></clipPath></defs><rect x="-37.5" width="450" fill="#ffffff" y="-37.499999" height="449.999989" fill-opacity="1"/><rect x="-37.5" width="450" fill="#ffffff" y="-37.499999" height="449.999989" fill-opacity="1"/><g clip-path="url(#171aad7264)"><path fill="#0284c7" d="M 266.65625 164.945312 L 254.5 164.945312 L 254.5 135.390625 C 254.550781 98.398438 224.46875 68.316406 187.476562 68.316406 C 150.480469 68.316406 120.402344 98.398438 120.402344 135.390625 L 120.402344 164.945312 L 108.292969 164.945312 C 103.476562 164.945312 99.566406 168.855469 99.566406 173.671875 L 99.566406 298 C 99.566406 302.765625 103.476562 306.675781 108.292969 306.675781 L 266.707031 306.675781 C 271.519531 306.675781 275.429688 302.765625 275.429688 297.949219 L 275.429688 173.671875 C 275.382812 168.855469 271.472656 164.945312 266.65625 164.945312 Z M 137.847656 135.390625 C 137.847656 108.027344 160.109375 85.761719 187.476562 85.761719 C 214.839844 85.761719 237.101562 108.027344 237.101562 135.390625 L 237.101562 164.945312 L 137.847656 164.945312 Z M 196.199219 242.078125 L 196.199219 265.011719 C 196.199219 269.824219 192.289062 273.734375 187.476562 273.734375 C 182.660156 273.734375 178.75 269.824219 178.75 265.011719 L 178.75 242.078125 C 172.746094 238.933594 168.644531 232.640625 168.644531 225.441406 C 168.644531 215.050781 177.082031 206.660156 187.425781 206.660156 C 197.820312 206.660156 206.210938 215.097656 206.210938 225.441406 C 206.304688 232.640625 202.207031 238.933594 196.199219 242.078125 Z M 196.199219 242.078125 " fill-opacity="1" fill-rule="nonzero"/></g></svg>