<svg width="64" height="64" viewBox="0 0 64 64" fill="none" xmlns="http://www.w3.org/2000/svg">
  <rect width="64" height="64" rx="12" fill="#3B82F6"/>
  <path d="M32 16C25.373 16 20 21.373 20 28V36C20 42.627 25.373 48 32 48C38.627 48 44 42.627 44 36V28C44 21.373 38.627 16 32 16ZM40 36C40 40.418 36.418 44 32 44C27.582 44 24 40.418 24 36V28C24 23.582 27.582 20 32 20C36.418 20 40 23.582 40 28V36Z" fill="white"/>
  <path d="M28 24H36V32H28V24ZM28 34H40V36H28V34Z" fill="white"/>
  <circle cx="32" cy="28" r="2" fill="white"/>
  <path d="M30 30L32 32L34 30" stroke="white" stroke-width="2" stroke-linecap="round" stroke-linejoin="round"/>
</svg>