<svg xmlns="http://www.w3.org/2000/svg" xmlns:xlink="http://www.w3.org/1999/xlink" width="500" zoomAndPan="magnify" viewBox="0 0 375 374.999991" height="500" preserveAspectRatio="xMidYMid meet" version="1.0"><defs><clipPath id="f4785aa4bb"><path d="M 84.492188 124.664062 L 290.742188 124.664062 L 290.742188 250.664062 L 84.492188 250.664062 Z M 84.492188 124.664062 " clip-rule="nonzero"/></clipPath></defs><rect x="-37.5" width="450" fill="#ffffff" y="-37.499999" height="449.999989" fill-opacity="1"/><rect x="-37.5" width="450" fill="#ffffff" y="-37.499999" height="449.999989" fill-opacity="1"/><g clip-path="url(#f4785aa4bb)"><path fill="#0284c7" d="M 266.699219 211.304688 C 266.699219 209.808594 265.488281 208.589844 263.988281 208.589844 L 247.34375 208.589844 C 245.84375 208.589844 244.632812 209.808594 244.632812 211.304688 L 244.632812 227.949219 C 244.632812 229.445312 245.84375 230.660156 247.34375 230.660156 L 263.988281 230.660156 C 265.488281 230.660156 266.699219 229.445312 266.699219 227.949219 Z M 164.660156 225.59375 L 101.964844 225.59375 L 101.964844 230.660156 L 164.660156 230.660156 Z M 101.964844 213.65625 L 146.058594 213.65625 L 146.058594 208.589844 L 101.964844 208.589844 Z M 290.417969 170.265625 L 290.417969 235.933594 C 290.417969 243.871094 283.984375 250.308594 276.042969 250.308594 L 98.953125 250.308594 C 91.015625 250.308594 84.578125 243.871094 84.578125 235.933594 L 84.578125 170.265625 Z M 290.417969 139.035156 L 290.417969 150.007812 L 84.578125 150.007812 L 84.578125 139.035156 C 84.578125 131.09375 91.015625 124.660156 98.953125 124.660156 L 276.042969 124.660156 C 283.984375 124.660156 290.417969 131.09375 290.417969 139.035156 " fill-opacity="1" fill-rule="nonzero"/></g></svg>