<svg xmlns="http://www.w3.org/2000/svg" xmlns:xlink="http://www.w3.org/1999/xlink" width="500" zoomAndPan="magnify" viewBox="0 0 375 374.999991" height="500" preserveAspectRatio="xMidYMid meet" version="1.0"><defs><clipPath id="581626c63b"><path d="M 111.464844 174 L 263.714844 174 L 263.714844 300 L 111.464844 300 Z M 111.464844 174 " clip-rule="nonzero"/></clipPath></defs><rect x="-37.5" width="450" fill="#ffffff" y="-37.499999" height="449.999989" fill-opacity="1"/><rect x="-37.5" width="450" fill="#ffffff" y="-37.499999" height="449.999989" fill-opacity="1"/><path fill="#0284c7" d="M 187.585938 167.125 L 187.535156 167.125 C 184.527344 167.125 181.546875 166.832031 178.597656 166.238281 C 175.644531 165.648438 172.78125 164.773438 170.003906 163.609375 C 167.230469 162.449219 164.59375 161.023438 162.101562 159.339844 C 159.609375 157.652344 157.308594 155.738281 155.195312 153.59375 C 153.066406 151.453125 151.164062 149.128906 149.492188 146.613281 C 147.816406 144.101562 146.402344 141.453125 145.246094 138.664062 C 144.09375 135.871094 143.21875 133 142.628906 130.039062 C 142.035156 127.078125 141.738281 124.085938 141.730469 121.070312 C 141.667969 108.671875 147.003906 96.492188 156.367188 87.671875 C 165.179688 79.367188 176.636719 74.996094 187.8125 75.691406 C 198.84375 75.097656 210.164062 79.5 218.890625 87.789062 C 228.203125 96.625 233.503906 108.796875 233.445312 121.183594 C 233.4375 124.199219 233.136719 127.1875 232.546875 130.148438 C 231.953125 133.105469 231.074219 135.980469 229.917969 138.765625 C 228.757812 141.554688 227.339844 144.203125 225.664062 146.710938 C 223.984375 149.21875 222.078125 151.539062 219.941406 153.671875 C 217.824219 155.808594 215.519531 157.71875 213.023438 159.394531 C 210.527344 161.074219 207.894531 162.492188 205.117188 163.648438 C 202.339844 164.800781 199.472656 165.671875 196.523438 166.257812 C 193.574219 166.84375 190.59375 167.132812 187.585938 167.125 Z M 187.585938 167.125 " fill-opacity="1" fill-rule="nonzero"/><g clip-path="url(#581626c63b)"><path fill="#0284c7" d="M 187.351562 299.984375 C 177.160156 299.972656 167.101562 298.800781 157.179688 296.46875 C 147.257812 294.132812 137.730469 290.699219 128.601562 286.164062 C 116.777344 280.269531 111.46875 275.515625 111.90625 271.207031 L 117.566406 215.027344 C 117.585938 206.148438 120.878906 197.730469 127.089844 190.675781 C 133.109375 183.847656 141.652344 178.757812 151.152344 176.351562 C 155.382812 175.300781 159.683594 174.789062 164.042969 174.808594 L 212.746094 174.808594 C 224.558594 175.53125 235.523438 180.035156 243.617188 187.488281 C 251.707031 194.941406 256.234375 204.746094 256.261719 215.007812 L 262.988281 270.746094 C 263.503906 275.078125 258.332031 279.855469 246.691406 285.777344 C 237.546875 290.410156 227.992188 293.925781 218.027344 296.328125 C 208.0625 298.726562 197.953125 299.945312 187.703125 299.980469 Z M 187.351562 299.984375 " fill-opacity="1" fill-rule="nonzero"/></g></svg>