<svg xmlns="http://www.w3.org/2000/svg" xmlns:xlink="http://www.w3.org/1999/xlink" width="500" zoomAndPan="magnify" viewBox="0 0 375 374.999991" height="500" preserveAspectRatio="xMidYMid meet" version="1.0"><defs><clipPath id="a2d2bd5929"><path d="M 92.371094 197 L 282.871094 197 L 282.871094 300 L 92.371094 300 Z M 92.371094 197 " clip-rule="nonzero"/></clipPath></defs><rect x="-37.5" width="450" fill="#ffffff" y="-37.499999" height="449.999989" fill-opacity="1"/><rect x="-37.5" width="450" fill="#ffffff" y="-37.499999" height="449.999989" fill-opacity="1"/><path fill="#0284c7" d="M 243.15625 129.746094 C 243.15625 131.539062 243.070312 133.328125 242.890625 135.109375 C 242.710938 136.894531 242.445312 138.667969 242.089844 140.425781 C 241.734375 142.183594 241.289062 143.921875 240.761719 145.636719 C 240.230469 147.351562 239.617188 149.039062 238.921875 150.695312 C 238.222656 152.351562 237.445312 153.96875 236.585938 155.550781 C 235.726562 157.132812 234.789062 158.667969 233.777344 160.160156 C 232.765625 161.648438 231.679688 163.089844 230.523438 164.476562 C 229.367188 165.859375 228.144531 167.1875 226.855469 168.457031 C 225.566406 169.722656 224.21875 170.925781 222.808594 172.0625 C 221.398438 173.199219 219.9375 174.265625 218.421875 175.261719 C 216.90625 176.257812 215.34375 177.179688 213.734375 178.027344 C 212.128906 178.871094 210.484375 179.636719 208.796875 180.324219 C 207.113281 181.007812 205.398438 181.613281 203.65625 182.132812 C 201.910156 182.652344 200.144531 183.089844 198.355469 183.4375 C 196.570312 183.789062 194.769531 184.050781 192.953125 184.226562 C 191.140625 184.402344 189.320312 184.488281 187.5 184.488281 C 185.675781 184.488281 183.855469 184.402344 182.042969 184.226562 C 180.230469 184.050781 178.425781 183.789062 176.640625 183.4375 C 174.851562 183.089844 173.085938 182.652344 171.339844 182.132812 C 169.597656 181.613281 167.882812 181.007812 166.199219 180.324219 C 164.515625 179.636719 162.867188 178.871094 161.261719 178.027344 C 159.652344 177.179688 158.089844 176.257812 156.574219 175.261719 C 155.058594 174.265625 153.597656 173.199219 152.1875 172.0625 C 150.777344 170.925781 149.429688 169.722656 148.140625 168.457031 C 146.851562 167.1875 145.628906 165.859375 144.472656 164.476562 C 143.316406 163.089844 142.230469 161.648438 141.21875 160.160156 C 140.207031 158.667969 139.269531 157.132812 138.410156 155.550781 C 137.550781 153.96875 136.773438 152.351562 136.074219 150.695312 C 135.378906 149.039062 134.765625 147.351562 134.234375 145.636719 C 133.707031 143.921875 133.261719 142.183594 132.90625 140.425781 C 132.550781 138.667969 132.285156 136.894531 132.105469 135.109375 C 131.929688 133.328125 131.839844 131.539062 131.839844 129.746094 C 131.839844 127.953125 131.929688 126.164062 132.105469 124.378906 C 132.285156 122.59375 132.550781 120.824219 132.90625 119.066406 C 133.261719 117.304688 133.707031 115.570312 134.234375 113.851562 C 134.765625 112.136719 135.378906 110.453125 136.074219 108.792969 C 136.773438 107.136719 137.550781 105.519531 138.410156 103.9375 C 139.269531 102.355469 140.207031 100.820312 141.21875 99.332031 C 142.230469 97.839844 143.316406 96.402344 144.472656 95.015625 C 145.628906 93.628906 146.851562 92.300781 148.140625 91.035156 C 149.429688 89.765625 150.777344 88.5625 152.1875 87.425781 C 153.597656 86.289062 155.058594 85.222656 156.574219 84.226562 C 158.089844 83.230469 159.652344 82.308594 161.261719 81.464844 C 162.867188 80.617188 164.515625 79.851562 166.199219 79.167969 C 167.882812 78.480469 169.597656 77.878906 171.339844 77.355469 C 173.085938 76.835938 174.851562 76.402344 176.640625 76.050781 C 178.425781 75.703125 180.230469 75.4375 182.042969 75.261719 C 183.855469 75.085938 185.675781 75 187.5 75 C 189.320312 75 191.140625 75.085938 192.953125 75.261719 C 194.769531 75.4375 196.570312 75.703125 198.355469 76.050781 C 200.144531 76.402344 201.910156 76.835938 203.65625 77.355469 C 205.398438 77.878906 207.113281 78.480469 208.796875 79.167969 C 210.484375 79.851562 212.128906 80.617188 213.734375 81.464844 C 215.34375 82.308594 216.90625 83.230469 218.421875 84.226562 C 219.9375 85.222656 221.398438 86.289062 222.808594 87.425781 C 224.21875 88.5625 225.566406 89.765625 226.855469 91.035156 C 228.144531 92.300781 229.367188 93.628906 230.523438 95.015625 C 231.679688 96.402344 232.765625 97.839844 233.777344 99.332031 C 234.789062 100.820312 235.726562 102.355469 236.585938 103.9375 C 237.445312 105.519531 238.222656 107.136719 238.921875 108.792969 C 239.617188 110.453125 240.230469 112.136719 240.761719 113.851562 C 241.289062 115.570312 241.734375 117.304688 242.089844 119.066406 C 242.445312 120.824219 242.710938 122.59375 242.890625 124.378906 C 243.070312 126.164062 243.15625 127.953125 243.15625 129.746094 Z M 243.15625 129.746094 " fill-opacity="1" fill-rule="nonzero"/><g clip-path="url(#a2d2bd5929)"><path fill="#0284c7" d="M 214.355469 197.238281 L 160.640625 197.238281 C 122.957031 197.238281 92.410156 239.292969 92.410156 276.980469 C 92.410156 289.699219 102.710938 300 115.429688 300 L 259.566406 300 C 272.285156 300 282.585938 289.699219 282.585938 276.980469 C 282.585938 239.292969 252.042969 197.238281 214.355469 197.238281 Z M 214.355469 197.238281 " fill-opacity="1" fill-rule="nonzero"/></g></svg>