<svg xmlns="http://www.w3.org/2000/svg" xmlns:xlink="http://www.w3.org/1999/xlink" width="500" zoomAndPan="magnify" viewBox="0 0 375 374.999991" height="500" preserveAspectRatio="xMidYMid meet" version="1.0"><defs><clipPath id="112909d7b5"><path d="M 68.78125 68.78125 L 306.53125 68.78125 L 306.53125 306.53125 L 68.78125 306.53125 Z M 68.78125 68.78125 " clip-rule="nonzero"/></clipPath></defs><rect x="-37.5" width="450" fill="#ffffff" y="-37.499999" height="449.999989" fill-opacity="1"/><rect x="-37.5" width="450" fill="#ffffff" y="-37.499999" height="449.999989" fill-opacity="1"/><path fill="#0284c7" d="M 166.554688 119.660156 C 171.554688 119.660156 175.625 123.601562 175.921875 128.519531 C 174.183594 130.132812 172.785156 132.125 171.851562 134.371094 C 175.074219 133.101562 178.550781 132.378906 182.242188 132.378906 L 192.796875 132.378906 C 196.445312 132.378906 199.964844 133.101562 203.1875 134.371094 C 202.253906 132.125 200.855469 130.175781 199.117188 128.519531 C 199.410156 123.601562 203.480469 119.660156 208.484375 119.660156 C 210.816406 119.660156 212.726562 117.75 212.726562 115.421875 C 212.726562 113.089844 210.816406 111.179688 208.484375 111.179688 C 200.261719 111.179688 193.390625 116.777344 191.3125 124.367188 C 190.085938 124.070312 188.855469 123.898438 187.539062 123.898438 C 186.226562 123.898438 184.996094 124.113281 183.765625 124.367188 C 181.6875 116.777344 174.820312 111.179688 166.59375 111.179688 C 164.261719 111.179688 162.355469 113.089844 162.355469 115.421875 C 162.355469 117.75 164.261719 119.660156 166.59375 119.660156 Z M 166.554688 119.660156 " fill-opacity="1" fill-rule="nonzero"/><path fill="#0284c7" d="M 182.199219 140.859375 C 175.457031 140.859375 169.519531 144.207031 165.832031 149.339844 L 201.660156 149.339844 L 205.515625 145.480469 C 202.039062 142.597656 197.632812 140.859375 192.796875 140.859375 Z M 182.199219 140.859375 " fill-opacity="1" fill-rule="nonzero"/><path fill="#0284c7" d="M 157.4375 193.5625 L 183.257812 167.738281 L 183.257812 157.820312 L 161.125 157.820312 C 156.972656 157.820312 153.578125 161.210938 153.578125 165.367188 L 153.578125 171.21875 L 136.109375 157.351562 L 132.886719 134.796875 C 132.550781 132.464844 130.429688 130.851562 128.097656 131.191406 C 125.765625 131.53125 124.152344 133.652344 124.492188 135.984375 L 127.96875 160.191406 C 128.140625 161.253906 128.691406 162.226562 129.539062 162.90625 L 153.621094 181.984375 L 153.621094 193.390625 L 129.371094 193.390625 C 128.222656 193.390625 127.078125 193.859375 126.316406 194.707031 L 108.339844 213.699219 C 106.726562 215.394531 106.8125 218.109375 108.507812 219.722656 C 109.316406 220.484375 110.375 220.867188 111.433594 220.867188 C 112.496094 220.867188 113.679688 220.441406 114.488281 219.550781 L 131.191406 201.871094 L 149.128906 201.871094 L 153.621094 197.375 L 157.480469 193.519531 Z M 157.4375 193.5625 " fill-opacity="1" fill-rule="nonzero"/><g clip-path="url(#112909d7b5)"><path fill="#0284c7" d="M 187.496094 68.78125 C 121.949219 68.78125 68.78125 121.949219 68.78125 187.496094 C 68.78125 253.046875 121.949219 306.214844 187.496094 306.214844 C 253.046875 306.214844 306.214844 253.046875 306.214844 187.496094 C 306.214844 121.949219 253.046875 68.78125 187.496094 68.78125 Z M 85.742188 187.496094 C 85.742188 131.320312 131.320312 85.742188 187.496094 85.742188 C 212.511719 85.742188 235.449219 94.8125 253.171875 109.824219 L 205.179688 157.820312 L 191.738281 171.257812 L 109.824219 253.171875 C 94.8125 235.449219 85.742188 212.511719 85.742188 187.496094 Z M 221.417969 165.578125 L 240.453125 146.539062 L 238.929688 157.351562 L 221.460938 171.21875 L 221.460938 165.578125 Z M 121.820312 265.171875 L 156.378906 230.617188 C 161.042969 241.386719 171.175781 249.316406 183.257812 250.84375 L 183.257812 203.738281 L 191.738281 195.257812 L 191.738281 250.84375 C 204.839844 249.1875 215.609375 240.03125 219.679688 227.820312 L 239.605469 242.066406 L 251.222656 263.644531 C 251.648438 264.410156 252.242188 265.003906 252.960938 265.382812 C 235.28125 280.265625 212.429688 289.253906 187.496094 289.253906 C 162.566406 289.253906 139.542969 280.183594 121.820312 265.171875 Z M 258.8125 260.085938 C 258.8125 260.085938 258.769531 259.789062 258.6875 259.660156 L 246.601562 237.1875 C 246.304688 236.636719 245.882812 236.128906 245.328125 235.746094 L 221.375 218.617188 C 221.375 218.152344 221.460938 217.644531 221.460938 217.175781 L 221.460938 201.914062 L 243.886719 201.914062 L 260.59375 219.59375 C 261.441406 220.484375 262.542969 220.910156 263.6875 220.910156 C 264.75 220.910156 265.765625 220.527344 266.613281 219.761719 C 268.308594 218.152344 268.394531 215.480469 266.785156 213.785156 L 248.808594 194.789062 C 248 193.941406 246.898438 193.476562 245.710938 193.476562 L 221.460938 193.476562 L 221.460938 182.070312 L 245.542969 162.992188 C 246.390625 162.3125 246.941406 161.339844 247.109375 160.277344 L 250.503906 136.621094 L 265.257812 121.863281 C 280.265625 139.585938 289.339844 162.523438 289.339844 187.539062 C 289.339844 215.949219 277.679688 241.640625 258.898438 260.128906 Z M 258.8125 260.085938 " fill-opacity="1" fill-rule="nonzero"/></g></svg>