<svg xmlns="http://www.w3.org/2000/svg" xmlns:xlink="http://www.w3.org/1999/xlink" width="500" zoomAndPan="magnify" viewBox="0 0 375 374.999991" height="500" preserveAspectRatio="xMidYMid meet" version="1.0"><defs><clipPath id="f2c08bb246"><path d="M 92.296875 75 L 282.796875 75 L 282.796875 300 L 92.296875 300 Z M 92.296875 75 " clip-rule="nonzero"/></clipPath></defs><rect x="-37.5" width="450" fill="#ffffff" y="-37.499999" height="449.999989" fill-opacity="1"/><rect x="-37.5" width="450" fill="#ffffff" y="-37.499999" height="449.999989" fill-opacity="1"/><g clip-path="url(#f2c08bb246)"><path fill="#0284c7" d="M 170.058594 74.882812 C 169.488281 74.890625 168.929688 74.953125 168.375 75.074219 C 167.820312 75.191406 167.28125 75.367188 166.757812 75.589844 C 166.238281 75.816406 165.746094 76.089844 165.277344 76.410156 C 164.808594 76.734375 164.378906 77.097656 163.984375 77.507812 C 163.589844 77.914062 163.234375 78.355469 162.925781 78.832031 C 162.621094 79.308594 162.359375 79.808594 162.148438 80.335938 C 161.941406 80.863281 161.785156 81.40625 161.679688 81.964844 C 161.578125 82.523438 161.53125 83.085938 161.539062 83.652344 L 133.226562 83.652344 C 132.46875 82.339844 131.554688 81.148438 130.484375 80.074219 C 129.410156 79 128.21875 78.085938 126.90625 77.328125 C 125.59375 76.566406 124.203125 75.988281 122.742188 75.59375 C 121.277344 75.203125 119.785156 75.003906 118.269531 75 C 117.703125 75 117.136719 75.027344 116.574219 75.082031 C 116.007812 75.140625 115.449219 75.222656 114.894531 75.332031 C 114.335938 75.441406 113.789062 75.582031 113.246094 75.746094 C 112.703125 75.910156 112.167969 76.101562 111.644531 76.316406 C 111.121094 76.535156 110.609375 76.777344 110.109375 77.042969 C 109.609375 77.3125 109.125 77.601562 108.652344 77.917969 C 108.183594 78.230469 107.726562 78.570312 107.289062 78.929688 C 106.851562 79.289062 106.433594 79.667969 106.03125 80.070312 C 105.628906 80.46875 105.25 80.890625 104.890625 81.328125 C 104.53125 81.765625 104.191406 82.222656 103.878906 82.691406 C 103.5625 83.164062 103.273438 83.648438 103.003906 84.148438 C 102.738281 84.648438 102.496094 85.160156 102.277344 85.683594 C 102.0625 86.207031 101.871094 86.742188 101.707031 87.285156 C 101.542969 87.824219 101.40625 88.375 101.292969 88.929688 C 101.183594 89.488281 101.101562 90.046875 101.042969 90.609375 C 100.988281 91.175781 100.960938 91.742188 100.960938 92.308594 C 100.960938 92.875 100.988281 93.441406 101.042969 94.003906 C 101.101562 94.566406 101.183594 95.128906 101.292969 95.683594 C 101.40625 96.238281 101.542969 96.789062 101.707031 97.332031 C 101.871094 97.875 102.0625 98.40625 102.277344 98.929688 C 102.496094 99.453125 102.738281 99.964844 103.003906 100.464844 C 103.273438 100.964844 103.5625 101.453125 103.878906 101.921875 C 104.191406 102.394531 104.53125 102.847656 104.890625 103.289062 C 105.25 103.726562 105.628906 104.144531 106.03125 104.546875 C 106.433594 104.945312 106.851562 105.328125 107.289062 105.6875 C 107.726562 106.046875 108.183594 106.382812 108.652344 106.699219 C 109.125 107.011719 109.609375 107.304688 110.109375 107.570312 C 110.609375 107.839844 111.121094 108.082031 111.644531 108.296875 C 112.167969 108.515625 112.703125 108.707031 113.246094 108.871094 C 113.789062 109.035156 114.335938 109.171875 114.894531 109.28125 C 115.449219 109.394531 116.007812 109.476562 116.574219 109.53125 C 117.136719 109.585938 117.703125 109.617188 118.269531 109.617188 C 119.789062 109.613281 121.277344 109.417969 122.746094 109.023438 C 124.210938 108.628906 125.601562 108.050781 126.914062 107.292969 C 128.230469 106.535156 129.421875 105.617188 130.496094 104.542969 C 131.570312 103.46875 132.484375 102.277344 133.246094 100.960938 L 161.539062 100.960938 L 161.539062 128.054688 C 156.214844 129.4375 151.488281 131.941406 147.359375 135.578125 L 92.308594 135.578125 L 92.308594 187.5 L 147.359375 187.5 C 148.921875 188.878906 150.597656 190.105469 152.382812 191.183594 C 154.167969 192.261719 156.035156 193.167969 157.988281 193.90625 C 159.9375 194.644531 161.9375 195.203125 163.988281 195.582031 C 166.039062 195.960938 168.105469 196.148438 170.191406 196.152344 C 172.277344 196.148438 174.347656 195.960938 176.398438 195.582031 C 178.449219 195.203125 180.449219 194.644531 182.398438 193.90625 C 184.347656 193.167969 186.214844 192.261719 188.003906 191.183594 C 189.789062 190.105469 191.464844 188.878906 193.027344 187.5 L 213.460938 187.5 C 223.023438 187.5 230.769531 195.246094 230.769531 204.808594 L 230.769531 230.769531 L 282.691406 230.769531 L 282.691406 204.808594 C 282.691406 166.574219 251.695312 135.578125 213.460938 135.578125 L 193.027344 135.578125 C 188.894531 131.949219 184.167969 129.449219 178.847656 128.074219 L 178.847656 100.960938 L 207.15625 100.960938 C 207.914062 102.273438 208.832031 103.46875 209.902344 104.539062 C 210.972656 105.613281 212.167969 106.53125 213.480469 107.289062 C 214.792969 108.046875 216.179688 108.625 217.644531 109.019531 C 219.109375 109.414062 220.597656 109.613281 222.117188 109.617188 C 222.683594 109.617188 223.246094 109.585938 223.8125 109.53125 C 224.375 109.476562 224.9375 109.394531 225.492188 109.28125 C 226.046875 109.171875 226.597656 109.035156 227.140625 108.871094 C 227.683594 108.707031 228.214844 108.515625 228.738281 108.296875 C 229.261719 108.082031 229.773438 107.839844 230.273438 107.570312 C 230.773438 107.304688 231.257812 107.011719 231.730469 106.699219 C 232.203125 106.382812 232.65625 106.046875 233.09375 105.6875 C 233.535156 105.328125 233.953125 104.945312 234.355469 104.546875 C 234.753906 104.144531 235.136719 103.726562 235.496094 103.289062 C 235.855469 102.847656 236.191406 102.394531 236.507812 101.921875 C 236.820312 101.453125 237.113281 100.964844 237.378906 100.464844 C 237.648438 99.964844 237.886719 99.453125 238.105469 98.929688 C 238.324219 98.40625 238.511719 97.875 238.679688 97.332031 C 238.84375 96.789062 238.980469 96.238281 239.089844 95.683594 C 239.199219 95.128906 239.285156 94.566406 239.339844 94.003906 C 239.394531 93.441406 239.421875 92.875 239.421875 92.308594 C 239.421875 91.742188 239.394531 91.175781 239.339844 90.609375 C 239.285156 90.046875 239.199219 89.488281 239.089844 88.929688 C 238.980469 88.375 238.84375 87.824219 238.679688 87.285156 C 238.511719 86.742188 238.324219 86.207031 238.105469 85.683594 C 237.886719 85.160156 237.648438 84.648438 237.378906 84.148438 C 237.113281 83.648438 236.820312 83.164062 236.507812 82.691406 C 236.191406 82.222656 235.855469 81.765625 235.496094 81.328125 C 235.136719 80.890625 234.753906 80.46875 234.355469 80.070312 C 233.953125 79.667969 233.535156 79.289062 233.09375 78.929688 C 232.65625 78.570312 232.203125 78.230469 231.730469 77.917969 C 231.257812 77.601562 230.773438 77.3125 230.273438 77.042969 C 229.773438 76.777344 229.261719 76.535156 228.738281 76.316406 C 228.214844 76.101562 227.683594 75.910156 227.140625 75.746094 C 226.597656 75.582031 226.046875 75.441406 225.492188 75.332031 C 224.9375 75.222656 224.375 75.140625 223.8125 75.082031 C 223.246094 75.027344 222.683594 75 222.117188 75 C 220.597656 75 219.105469 75.199219 217.640625 75.59375 C 216.171875 75.984375 214.785156 76.5625 213.46875 77.320312 C 212.15625 78.082031 210.960938 79 209.886719 80.070312 C 208.816406 81.144531 207.898438 82.339844 207.140625 83.652344 L 178.847656 83.652344 C 178.855469 83.074219 178.804688 82.5 178.695312 81.933594 C 178.589844 81.363281 178.425781 80.8125 178.210938 80.273438 C 177.992188 79.738281 177.722656 79.230469 177.402344 78.746094 C 177.082031 78.265625 176.714844 77.820312 176.304688 77.410156 C 175.894531 77 175.449219 76.636719 174.96875 76.316406 C 174.484375 75.996094 173.972656 75.730469 173.4375 75.511719 C 172.902344 75.296875 172.347656 75.132812 171.777344 75.027344 C 171.210938 74.921875 170.636719 74.871094 170.058594 74.882812 Z M 256.730469 248.078125 C 256.730469 248.078125 239.421875 273.128906 239.421875 282.691406 C 239.421875 292.253906 247.167969 300 256.730469 300 C 266.292969 300 274.039062 292.253906 274.039062 282.691406 C 274.039062 273.128906 256.730469 248.078125 256.730469 248.078125 Z M 256.730469 248.078125 " fill-opacity="1" fill-rule="nonzero"/></g></svg>