<svg xmlns="http://www.w3.org/2000/svg" xmlns:xlink="http://www.w3.org/1999/xlink" width="500" zoomAndPan="magnify" viewBox="0 0 375 374.999991" height="500" preserveAspectRatio="xMidYMid meet" version="1.0"><defs><clipPath id="232d26ab2f"><path d="M 81.753906 81.753906 L 293.253906 81.753906 L 293.253906 293.253906 L 81.753906 293.253906 Z M 81.753906 81.753906 " clip-rule="nonzero"/></clipPath></defs><rect x="-37.5" width="450" fill="#ffffff" y="-37.499999" height="449.999989" fill-opacity="1"/><rect x="-37.5" width="450" fill="#ffffff" y="-37.499999" height="449.999989" fill-opacity="1"/><g clip-path="url(#232d26ab2f)"><path fill="#0284c7" d="M 287.164062 87.835938 C 283.226562 83.898438 277.984375 81.757812 272.414062 81.820312 L 190.5 82.714844 C 189.253906 82.726562 188.058594 83.230469 187.179688 84.113281 L 87.773438 183.519531 C 83.890625 187.398438 81.753906 192.558594 81.753906 198.042969 C 81.753906 203.53125 83.890625 208.691406 87.773438 212.570312 L 162.429688 287.230469 C 166.4375 291.238281 171.695312 293.238281 176.957031 293.238281 C 182.21875 293.238281 187.480469 291.234375 191.484375 287.230469 L 290.890625 187.824219 C 291.773438 186.941406 292.273438 185.75 292.289062 184.503906 L 293.183594 102.589844 C 293.242188 97.015625 291.105469 91.777344 287.164062 87.835938 Z M 282.765625 182.453125 L 184.734375 280.480469 C 180.445312 284.769531 173.46875 284.769531 169.179688 280.480469 L 94.519531 205.820312 C 92.445312 203.746094 91.300781 200.984375 91.300781 198.042969 C 91.300781 195.105469 92.445312 192.34375 94.519531 190.269531 L 192.550781 92.238281 L 272.519531 91.363281 C 272.558594 91.363281 272.601562 91.363281 272.644531 91.363281 C 275.578125 91.363281 278.335938 92.503906 280.417969 94.585938 C 282.527344 96.695312 283.671875 99.5 283.636719 102.484375 Z M 282.765625 182.453125 " fill-opacity="1" fill-rule="nonzero"/></g><path fill="#0284c7" d="M 255.523438 104.113281 C 251.597656 104.113281 247.910156 105.640625 245.136719 108.414062 C 242.363281 111.1875 240.832031 114.878906 240.832031 118.800781 C 240.832031 122.722656 242.363281 126.414062 245.136719 129.1875 C 247.910156 131.960938 251.597656 133.488281 255.523438 133.488281 C 259.445312 133.488281 263.136719 131.960938 265.910156 129.1875 C 268.683594 126.414062 270.210938 122.722656 270.210938 118.800781 C 270.210938 114.878906 268.683594 111.1875 265.910156 108.414062 C 263.136719 105.640625 259.445312 104.113281 255.523438 104.113281 Z M 259.160156 122.4375 C 258.1875 123.410156 256.898438 123.945312 255.523438 123.945312 C 254.148438 123.945312 252.855469 123.410156 251.886719 122.4375 C 250.914062 121.464844 250.378906 120.175781 250.378906 118.800781 C 250.378906 117.425781 250.914062 116.136719 251.886719 115.164062 C 252.855469 114.191406 254.148438 113.65625 255.523438 113.65625 C 256.898438 113.65625 258.1875 114.191406 259.160156 115.164062 C 260.132812 116.136719 260.667969 117.425781 260.667969 118.800781 C 260.667969 120.175781 260.132812 121.464844 259.160156 122.4375 Z M 259.160156 122.4375 " fill-opacity="1" fill-rule="nonzero"/><path fill="#0284c7" d="M 222.167969 145.40625 L 216.605469 150.96875 C 212.636719 147.808594 207.75 146.089844 202.597656 146.089844 C 196.570312 146.089844 190.90625 148.4375 186.648438 152.699219 L 186.222656 153.121094 C 180.003906 159.339844 177.980469 168.683594 181.0625 176.917969 L 188.445312 196.628906 C 190.222656 201.371094 189.054688 206.746094 185.472656 210.328125 C 182.867188 212.933594 179.398438 214.371094 175.710938 214.371094 C 172.023438 214.371094 168.554688 212.933594 165.945312 210.328125 L 165.550781 209.929688 C 165.394531 209.710938 165.21875 209.5 165.023438 209.300781 C 164.824219 209.101562 164.613281 208.929688 164.390625 208.773438 L 163.996094 208.375 C 161.386719 205.769531 159.949219 202.300781 159.949219 198.613281 C 159.949219 194.925781 161.386719 191.457031 163.996094 188.847656 L 164.480469 188.363281 C 166.34375 186.5 166.34375 183.476562 164.480469 181.613281 C 162.617188 179.75 159.59375 179.75 157.730469 181.617188 L 157.246094 182.101562 C 152.835938 186.511719 150.40625 192.375 150.40625 198.613281 C 150.40625 203.703125 152.023438 208.546875 155.019531 212.554688 L 148.894531 218.679688 C 147.027344 220.542969 147.027344 223.566406 148.894531 225.429688 C 149.824219 226.359375 151.046875 226.828125 152.265625 226.828125 C 153.488281 226.828125 154.710938 226.359375 155.640625 225.429688 L 161.769531 219.304688 C 165.773438 222.296875 170.617188 223.917969 175.710938 223.917969 C 181.949219 223.917969 187.8125 221.488281 192.222656 217.078125 C 198.441406 210.855469 200.464844 201.515625 197.382812 193.28125 L 190 173.570312 C 188.222656 168.828125 189.390625 163.453125 192.972656 159.871094 L 193.394531 159.449219 C 195.851562 156.988281 199.121094 155.636719 202.597656 155.636719 C 206.070312 155.636719 209.339844 156.988281 211.796875 159.449219 L 214.875 162.523438 C 217.332031 164.980469 218.683594 168.25 218.683594 171.726562 C 218.683594 175.203125 217.332031 178.46875 214.875 180.925781 C 213.007812 182.792969 213.007812 185.8125 214.875 187.675781 C 216.738281 189.539062 219.757812 189.539062 221.621094 187.675781 C 229.796875 179.503906 230.371094 166.566406 223.351562 157.71875 L 228.914062 152.15625 C 230.777344 150.292969 230.777344 147.269531 228.914062 145.40625 C 227.050781 143.542969 224.03125 143.542969 222.167969 145.40625 Z M 222.167969 145.40625 " fill-opacity="1" fill-rule="nonzero"/></svg>