<svg xmlns="http://www.w3.org/2000/svg" xmlns:xlink="http://www.w3.org/1999/xlink" width="500" zoomAndPan="magnify" viewBox="0 0 375 374.999991" height="500" preserveAspectRatio="xMidYMid meet" version="1.0"><defs><clipPath id="2d2a10b876"><path d="M 141 214 L 234 214 L 234 296.90625 L 141 296.90625 Z M 141 214 " clip-rule="nonzero"/></clipPath><clipPath id="dee5baebdd"><path d="M 68.699219 132 L 306.449219 132 L 306.449219 261 L 68.699219 261 Z M 68.699219 132 " clip-rule="nonzero"/></clipPath><clipPath id="7068bb92b2"><path d="M 123 77.90625 L 252 77.90625 L 252 124 L 123 124 Z M 123 77.90625 " clip-rule="nonzero"/></clipPath></defs><rect x="-37.5" width="450" fill="#ffffff" y="-37.499999" height="449.999989" fill-opacity="1"/><rect x="-37.5" width="450" fill="#ffffff" y="-37.499999" height="449.999989" fill-opacity="1"/><g clip-path="url(#2d2a10b876)"><path fill="#000000" d="M 141.878906 214.78125 L 141.878906 287.78125 C 141.878906 288.378906 141.9375 288.972656 142.054688 289.5625 C 142.171875 290.148438 142.347656 290.71875 142.578125 291.273438 C 142.804688 291.828125 143.085938 292.351562 143.421875 292.851562 C 143.753906 293.347656 144.132812 293.808594 144.558594 294.234375 C 144.980469 294.65625 145.445312 295.035156 145.941406 295.367188 C 146.441406 295.703125 146.96875 295.980469 147.523438 296.210938 C 148.078125 296.441406 148.648438 296.613281 149.238281 296.730469 C 149.824219 296.847656 150.417969 296.90625 151.019531 296.90625 L 224.128906 296.90625 C 224.730469 296.90625 225.324219 296.847656 225.910156 296.730469 C 226.5 296.613281 227.070312 296.441406 227.625 296.210938 C 228.179688 295.980469 228.707031 295.703125 229.207031 295.367188 C 229.703125 295.035156 230.167969 294.65625 230.589844 294.234375 C 231.015625 293.808594 231.394531 293.347656 231.726562 292.851562 C 232.0625 292.351562 232.34375 291.828125 232.570312 291.273438 C 232.800781 290.71875 232.976562 290.148438 233.09375 289.5625 C 233.207031 288.972656 233.265625 288.378906 233.265625 287.78125 L 233.265625 214.78125 Z M 205.851562 278.65625 L 169.296875 278.65625 C 168.695312 278.65625 168.101562 278.597656 167.515625 278.480469 C 166.925781 278.363281 166.355469 278.191406 165.800781 277.960938 C 165.246094 277.730469 164.71875 277.453125 164.21875 277.117188 C 163.722656 276.785156 163.257812 276.40625 162.835938 275.984375 C 162.410156 275.558594 162.03125 275.097656 161.699219 274.601562 C 161.363281 274.101562 161.082031 273.578125 160.855469 273.023438 C 160.625 272.46875 160.449219 271.898438 160.332031 271.3125 C 160.214844 270.722656 160.15625 270.128906 160.15625 269.53125 C 160.15625 268.933594 160.214844 268.339844 160.332031 267.75 C 160.449219 267.164062 160.625 266.59375 160.855469 266.039062 C 161.082031 265.484375 161.363281 264.960938 161.699219 264.460938 C 162.03125 263.964844 162.410156 263.503906 162.835938 263.078125 C 163.257812 262.65625 163.722656 262.277344 164.21875 261.945312 C 164.71875 261.609375 165.246094 261.332031 165.800781 261.101562 C 166.355469 260.871094 166.925781 260.699219 167.515625 260.582031 C 168.101562 260.464844 168.695312 260.40625 169.296875 260.40625 L 205.851562 260.40625 C 206.453125 260.40625 207.046875 260.464844 207.632812 260.582031 C 208.222656 260.699219 208.792969 260.871094 209.347656 261.101562 C 209.902344 261.332031 210.429688 261.609375 210.929688 261.945312 C 211.425781 262.277344 211.890625 262.65625 212.3125 263.078125 C 212.738281 263.503906 213.117188 263.964844 213.449219 264.460938 C 213.785156 264.960938 214.066406 265.484375 214.292969 266.039062 C 214.523438 266.59375 214.699219 267.164062 214.816406 267.75 C 214.929688 268.339844 214.988281 268.933594 214.988281 269.53125 C 214.988281 270.128906 214.929688 270.722656 214.816406 271.3125 C 214.699219 271.898438 214.523438 272.46875 214.292969 273.023438 C 214.066406 273.578125 213.785156 274.101562 213.449219 274.601562 C 213.117188 275.097656 212.738281 275.558594 212.3125 275.984375 C 211.890625 276.40625 211.425781 276.785156 210.929688 277.117188 C 210.429688 277.453125 209.902344 277.730469 209.347656 277.960938 C 208.792969 278.191406 208.222656 278.363281 207.632812 278.480469 C 207.046875 278.597656 206.453125 278.65625 205.851562 278.65625 Z M 205.851562 251.28125 L 169.296875 251.28125 C 168.695312 251.28125 168.101562 251.222656 167.515625 251.105469 C 166.925781 250.988281 166.355469 250.816406 165.800781 250.585938 C 165.246094 250.355469 164.71875 250.078125 164.21875 249.742188 C 163.722656 249.410156 163.257812 249.03125 162.835938 248.609375 C 162.410156 248.183594 162.03125 247.722656 161.699219 247.226562 C 161.363281 246.726562 161.082031 246.203125 160.855469 245.648438 C 160.625 245.09375 160.449219 244.523438 160.332031 243.9375 C 160.214844 243.347656 160.15625 242.753906 160.15625 242.15625 C 160.15625 241.558594 160.214844 240.964844 160.332031 240.375 C 160.449219 239.789062 160.625 239.21875 160.855469 238.664062 C 161.082031 238.109375 161.363281 237.585938 161.699219 237.085938 C 162.03125 236.589844 162.410156 236.128906 162.835938 235.703125 C 163.257812 235.28125 163.722656 234.902344 164.21875 234.570312 C 164.71875 234.234375 165.246094 233.957031 165.800781 233.726562 C 166.355469 233.496094 166.925781 233.324219 167.515625 233.207031 C 168.101562 233.089844 168.695312 233.03125 169.296875 233.03125 L 205.851562 233.03125 C 206.453125 233.03125 207.046875 233.089844 207.632812 233.207031 C 208.222656 233.324219 208.792969 233.496094 209.347656 233.726562 C 209.902344 233.957031 210.429688 234.234375 210.929688 234.570312 C 211.425781 234.902344 211.890625 235.28125 212.3125 235.703125 C 212.738281 236.128906 213.117188 236.589844 213.449219 237.085938 C 213.785156 237.585938 214.066406 238.109375 214.292969 238.664062 C 214.523438 239.21875 214.699219 239.789062 214.816406 240.375 C 214.929688 240.964844 214.988281 241.558594 214.988281 242.15625 C 214.988281 242.753906 214.929688 243.347656 214.816406 243.9375 C 214.699219 244.523438 214.523438 245.09375 214.292969 245.648438 C 214.066406 246.203125 213.785156 246.726562 213.449219 247.226562 C 213.117188 247.722656 212.738281 248.183594 212.3125 248.609375 C 211.890625 249.03125 211.425781 249.410156 210.929688 249.742188 C 210.429688 250.078125 209.902344 250.355469 209.347656 250.585938 C 208.792969 250.816406 208.222656 250.988281 207.632812 251.105469 C 207.046875 251.222656 206.453125 251.28125 205.851562 251.28125 Z M 205.851562 251.28125 " fill-opacity="1" fill-rule="nonzero"/></g><g clip-path="url(#dee5baebdd)"><path fill="#000000" d="M 278.960938 132.65625 L 96.1875 132.65625 C 95.289062 132.65625 94.394531 132.699219 93.5 132.785156 C 92.605469 132.871094 91.71875 133.003906 90.835938 133.175781 C 89.957031 133.351562 89.085938 133.566406 88.226562 133.828125 C 87.363281 134.085938 86.519531 134.386719 85.691406 134.730469 C 84.859375 135.074219 84.046875 135.457031 83.257812 135.878906 C 82.464844 136.300781 81.695312 136.761719 80.949219 137.257812 C 80.199219 137.757812 79.480469 138.289062 78.785156 138.859375 C 78.089844 139.429688 77.425781 140.027344 76.789062 140.664062 C 76.15625 141.296875 75.554688 141.960938 74.984375 142.65625 C 74.414062 143.347656 73.878906 144.066406 73.378906 144.8125 C 72.882812 145.558594 72.421875 146.328125 71.996094 147.121094 C 71.574219 147.910156 71.191406 148.722656 70.847656 149.550781 C 70.503906 150.378906 70.203125 151.222656 69.945312 152.082031 C 69.683594 152.9375 69.464844 153.808594 69.292969 154.6875 C 69.117188 155.566406 68.988281 156.453125 68.898438 157.347656 C 68.8125 158.238281 68.769531 159.132812 68.773438 160.03125 L 68.773438 233.03125 C 68.773438 233.925781 68.820312 234.820312 68.910156 235.710938 C 69 236.601562 69.132812 237.488281 69.3125 238.367188 C 69.488281 239.246094 69.707031 240.113281 69.96875 240.96875 C 70.230469 241.824219 70.535156 242.667969 70.878906 243.496094 C 71.222656 244.320312 71.609375 245.128906 72.03125 245.917969 C 72.457031 246.710938 72.917969 247.476562 73.417969 248.222656 C 73.914062 248.964844 74.449219 249.683594 75.019531 250.375 C 75.589844 251.070312 76.191406 251.730469 76.824219 252.363281 C 77.460938 253 78.125 253.597656 78.816406 254.167969 C 79.511719 254.738281 80.230469 255.269531 80.976562 255.769531 C 81.71875 256.265625 82.488281 256.726562 83.28125 257.148438 C 84.070312 257.574219 84.878906 257.957031 85.707031 258.300781 C 86.535156 258.644531 87.378906 258.949219 88.238281 259.210938 C 89.097656 259.472656 89.964844 259.691406 90.84375 259.867188 C 91.722656 260.042969 92.609375 260.175781 93.503906 260.265625 C 94.394531 260.355469 95.289062 260.402344 96.1875 260.40625 L 123.601562 260.40625 L 123.601562 205.65625 C 123.605469 205.058594 123.664062 204.464844 123.785156 203.878906 C 123.902344 203.289062 124.074219 202.722656 124.304688 202.167969 C 124.535156 201.617188 124.816406 201.089844 125.152344 200.59375 C 125.484375 200.09375 125.863281 199.636719 126.289062 199.210938 C 126.710938 198.789062 127.171875 198.410156 127.671875 198.078125 C 128.167969 197.746094 128.695312 197.460938 129.25 197.234375 C 129.800781 197.003906 130.375 196.828125 130.960938 196.710938 C 131.550781 196.59375 132.144531 196.53125 132.742188 196.53125 L 242.40625 196.53125 C 243.003906 196.53125 243.597656 196.59375 244.1875 196.710938 C 244.773438 196.828125 245.34375 197.003906 245.898438 197.234375 C 246.453125 197.460938 246.980469 197.746094 247.476562 198.078125 C 247.976562 198.410156 248.4375 198.789062 248.859375 199.210938 C 249.285156 199.636719 249.664062 200.09375 249.996094 200.59375 C 250.328125 201.089844 250.613281 201.617188 250.84375 202.167969 C 251.074219 202.722656 251.246094 203.289062 251.363281 203.878906 C 251.484375 204.464844 251.542969 205.058594 251.542969 205.65625 L 251.542969 260.40625 L 278.960938 260.40625 C 279.859375 260.402344 280.753906 260.355469 281.644531 260.265625 C 282.539062 260.175781 283.425781 260.042969 284.304688 259.867188 C 285.183594 259.691406 286.050781 259.472656 286.910156 259.210938 C 287.769531 258.949219 288.613281 258.644531 289.441406 258.300781 C 290.269531 257.957031 291.078125 257.574219 291.867188 257.148438 C 292.660156 256.726562 293.429688 256.265625 294.171875 255.769531 C 294.917969 255.269531 295.636719 254.738281 296.332031 254.167969 C 297.023438 253.597656 297.6875 253 298.324219 252.363281 C 298.957031 251.730469 299.558594 251.070312 300.128906 250.375 C 300.699219 249.683594 301.234375 248.964844 301.730469 248.222656 C 302.230469 247.476562 302.691406 246.710938 303.117188 245.917969 C 303.539062 245.128906 303.925781 244.320312 304.269531 243.496094 C 304.613281 242.667969 304.917969 241.824219 305.179688 240.96875 C 305.441406 240.113281 305.660156 239.246094 305.835938 238.367188 C 306.015625 237.488281 306.148438 236.601562 306.238281 235.710938 C 306.328125 234.820312 306.375 233.925781 306.375 233.03125 L 306.375 160.03125 C 306.378906 159.132812 306.335938 158.238281 306.25 157.347656 C 306.160156 156.453125 306.03125 155.566406 305.855469 154.6875 C 305.683594 153.808594 305.464844 152.9375 305.203125 152.082031 C 304.945312 151.222656 304.644531 150.378906 304.300781 149.550781 C 303.957031 148.722656 303.574219 147.910156 303.152344 147.121094 C 302.726562 146.328125 302.265625 145.558594 301.769531 144.8125 C 301.269531 144.066406 300.734375 143.347656 300.164062 142.65625 C 299.59375 141.960938 298.992188 141.296875 298.359375 140.664062 C 297.722656 140.027344 297.058594 139.425781 296.363281 138.859375 C 295.667969 138.289062 294.949219 137.757812 294.199219 137.257812 C 293.453125 136.761719 292.683594 136.300781 291.890625 135.878906 C 291.097656 135.457031 290.289062 135.074219 289.457031 134.730469 C 288.628906 134.386719 287.78125 134.085938 286.921875 133.828125 C 286.0625 133.566406 285.191406 133.351562 284.3125 133.175781 C 283.429688 133.003906 282.542969 132.871094 281.648438 132.785156 C 280.753906 132.699219 279.859375 132.65625 278.960938 132.65625 Z M 260.683594 178.28125 C 260.082031 178.289062 259.484375 178.234375 258.894531 178.121094 C 258.300781 178.011719 257.726562 177.839844 257.171875 177.613281 C 256.613281 177.386719 256.082031 177.109375 255.582031 176.773438 C 255.082031 176.441406 254.617188 176.0625 254.191406 175.640625 C 253.765625 175.214844 253.386719 174.75 253.054688 174.25 C 252.71875 173.75 252.441406 173.222656 252.210938 172.664062 C 251.984375 172.109375 251.816406 171.535156 251.703125 170.945312 C 251.589844 170.351562 251.539062 169.757812 251.542969 169.15625 C 251.542969 168.558594 251.601562 167.964844 251.71875 167.375 C 251.835938 166.789062 252.011719 166.21875 252.242188 165.664062 C 252.46875 165.109375 252.75 164.585938 253.085938 164.085938 C 253.417969 163.589844 253.796875 163.128906 254.222656 162.703125 C 254.644531 162.28125 255.105469 161.902344 255.605469 161.570312 C 256.105469 161.234375 256.632812 160.957031 257.1875 160.726562 C 257.742188 160.496094 258.3125 160.324219 258.902344 160.207031 C 259.488281 160.089844 260.082031 160.03125 260.683594 160.03125 C 261.285156 160.03125 261.878906 160.089844 262.464844 160.207031 C 263.054688 160.324219 263.625 160.496094 264.179688 160.726562 C 264.734375 160.957031 265.261719 161.234375 265.761719 161.570312 C 266.257812 161.902344 266.722656 162.28125 267.144531 162.703125 C 267.570312 163.128906 267.949219 163.589844 268.28125 164.085938 C 268.617188 164.585938 268.898438 165.109375 269.125 165.664062 C 269.355469 166.21875 269.53125 166.789062 269.648438 167.375 C 269.761719 167.964844 269.820312 168.558594 269.820312 169.15625 C 269.820312 169.753906 269.761719 170.347656 269.648438 170.9375 C 269.53125 171.523438 269.355469 172.09375 269.125 172.648438 C 268.898438 173.203125 268.617188 173.726562 268.28125 174.226562 C 267.949219 174.722656 267.570312 175.183594 267.144531 175.609375 C 266.722656 176.03125 266.257812 176.410156 265.761719 176.742188 C 265.261719 177.078125 264.734375 177.355469 264.179688 177.585938 C 263.625 177.816406 263.054688 177.988281 262.464844 178.105469 C 261.878906 178.222656 261.285156 178.28125 260.683594 178.28125 Z M 260.683594 178.28125 " fill-opacity="1" fill-rule="nonzero"/></g><g clip-path="url(#7068bb92b2)"><path fill="#000000" d="M 251.542969 87.03125 L 251.542969 123.53125 L 123.601562 123.53125 L 123.601562 87.03125 C 123.605469 86.433594 123.664062 85.839844 123.785156 85.253906 C 123.902344 84.664062 124.074219 84.097656 124.304688 83.542969 C 124.535156 82.992188 124.816406 82.464844 125.152344 81.96875 C 125.484375 81.46875 125.863281 81.011719 126.289062 80.585938 C 126.710938 80.164062 127.171875 79.785156 127.671875 79.453125 C 128.167969 79.121094 128.695312 78.835938 129.25 78.609375 C 129.800781 78.378906 130.375 78.203125 130.960938 78.085938 C 131.550781 77.96875 132.144531 77.90625 132.742188 77.90625 L 242.40625 77.90625 C 243.003906 77.90625 243.597656 77.96875 244.1875 78.085938 C 244.773438 78.203125 245.34375 78.378906 245.898438 78.609375 C 246.453125 78.835938 246.980469 79.121094 247.476562 79.453125 C 247.976562 79.785156 248.4375 80.164062 248.859375 80.585938 C 249.285156 81.011719 249.664062 81.46875 249.996094 81.96875 C 250.328125 82.464844 250.613281 82.992188 250.84375 83.542969 C 251.074219 84.097656 251.246094 84.664062 251.363281 85.253906 C 251.484375 85.839844 251.542969 86.433594 251.542969 87.03125 Z M 251.542969 87.03125 " fill-opacity="1" fill-rule="nonzero"/></g></svg>