<svg xmlns="http://www.w3.org/2000/svg" xmlns:xlink="http://www.w3.org/1999/xlink" width="500" zoomAndPan="magnify" viewBox="0 0 375 374.999991" height="500" preserveAspectRatio="xMidYMid meet" version="1.0"><defs><clipPath id="619b0bae95"><path d="M 85.546875 76 L 287 76 L 287 299 L 85.546875 299 Z M 85.546875 76 " clip-rule="nonzero"/></clipPath></defs><rect x="-37.5" width="450" fill="#ffffff" y="-37.499999" height="449.999989" fill-opacity="1"/><rect x="-37.5" width="450" fill="#ffffff" y="-37.499999" height="449.999989" fill-opacity="1"/><path fill="#0284c7" d="M 262.160156 127.070312 C 232.941406 126.957031 206.269531 118.960938 184.90625 103.902344 C 163.730469 119.148438 138.402344 126.933594 109.601562 127.070312 C 108.695312 163.171875 114.746094 245.894531 185.394531 274.765625 C 185.726562 274.882812 186.058594 274.882812 186.390625 274.765625 C 257.039062 245.894531 263.0625 163.171875 262.160156 127.070312 Z M 197.394531 186.574219 L 197.394531 214.566406 C 197.394531 215.324219 197.324219 216.070312 197.175781 216.8125 C 197.027344 217.554688 196.808594 218.273438 196.519531 218.972656 C 196.230469 219.671875 195.875 220.335938 195.457031 220.964844 C 195.035156 221.59375 194.558594 222.175781 194.023438 222.710938 C 193.488281 223.242188 192.90625 223.722656 192.277344 224.140625 C 191.648438 224.5625 190.984375 224.917969 190.289062 225.207031 C 189.589844 225.496094 188.867188 225.714844 188.128906 225.859375 C 187.386719 226.007812 186.636719 226.082031 185.878906 226.082031 C 185.125 226.082031 184.375 226.007812 183.632812 225.859375 C 182.890625 225.714844 182.171875 225.496094 181.472656 225.207031 C 180.773438 224.917969 180.109375 224.5625 179.480469 224.140625 C 178.855469 223.722656 178.273438 223.242188 177.738281 222.710938 C 177.203125 222.175781 176.726562 221.59375 176.304688 220.964844 C 175.886719 220.335938 175.53125 219.671875 175.242188 218.972656 C 174.953125 218.273438 174.734375 217.554688 174.585938 216.8125 C 174.4375 216.070312 174.363281 215.324219 174.363281 214.566406 L 174.363281 186.574219 C 173.765625 186.167969 173.191406 185.730469 172.640625 185.261719 C 172.089844 184.792969 171.5625 184.296875 171.0625 183.773438 C 170.566406 183.25 170.09375 182.699219 169.65625 182.128906 C 169.214844 181.554688 168.804688 180.957031 168.425781 180.339844 C 168.050781 179.722656 167.707031 179.089844 167.394531 178.433594 C 167.085938 177.78125 166.808594 177.113281 166.570312 176.429688 C 166.332031 175.746094 166.128906 175.054688 165.964844 174.347656 C 165.796875 173.644531 165.671875 172.933594 165.578125 172.214844 C 165.488281 171.496094 165.4375 170.777344 165.425781 170.054688 C 165.410156 169.332031 165.433594 168.609375 165.496094 167.886719 C 165.558594 167.167969 165.660156 166.453125 165.800781 165.742188 C 165.9375 165.03125 166.113281 164.332031 166.328125 163.640625 C 166.539062 162.949219 166.789062 162.269531 167.074219 161.605469 C 167.359375 160.9375 167.679688 160.289062 168.03125 159.660156 C 168.386719 159.027344 168.773438 158.417969 169.191406 157.828125 C 169.609375 157.238281 170.058594 156.671875 170.539062 156.128906 C 171.015625 155.585938 171.523438 155.070312 172.054688 154.582031 C 172.589844 154.09375 173.144531 153.632812 173.726562 153.203125 C 174.308594 152.773438 174.914062 152.375 175.539062 152.011719 C 176.164062 151.644531 176.804688 151.3125 177.464844 151.015625 C 178.125 150.71875 178.796875 150.457031 179.484375 150.230469 C 180.171875 150.003906 180.867188 149.8125 181.574219 149.660156 C 182.28125 149.507812 182.996094 149.394531 183.714844 149.320312 C 184.433594 149.242188 185.15625 149.203125 185.878906 149.203125 C 186.605469 149.203125 187.324219 149.242188 188.042969 149.320312 C 188.765625 149.394531 189.476562 149.507812 190.183594 149.660156 C 190.890625 149.8125 191.589844 150.003906 192.277344 150.230469 C 192.964844 150.457031 193.636719 150.71875 194.296875 151.015625 C 194.957031 151.3125 195.597656 151.644531 196.222656 152.011719 C 196.847656 152.375 197.449219 152.773438 198.03125 153.203125 C 198.613281 153.632812 199.171875 154.09375 199.707031 154.582031 C 200.238281 155.070312 200.746094 155.585938 201.222656 156.128906 C 201.703125 156.671875 202.152344 157.238281 202.570312 157.828125 C 202.988281 158.417969 203.375 159.027344 203.726562 159.660156 C 204.082031 160.289062 204.402344 160.9375 204.6875 161.605469 C 204.972656 162.269531 205.21875 162.949219 205.433594 163.640625 C 205.644531 164.332031 205.820312 165.03125 205.960938 165.742188 C 206.097656 166.453125 206.199219 167.167969 206.261719 167.886719 C 206.324219 168.609375 206.351562 169.332031 206.335938 170.054688 C 206.324219 170.777344 206.269531 171.496094 206.179688 172.214844 C 206.089844 172.933594 205.960938 173.644531 205.796875 174.347656 C 205.632812 175.054688 205.429688 175.746094 205.191406 176.429688 C 204.949219 177.113281 204.675781 177.78125 204.367188 178.433594 C 204.054688 179.089844 203.710938 179.722656 203.332031 180.339844 C 202.957031 180.957031 202.546875 181.554688 202.105469 182.128906 C 201.664062 182.699219 201.195312 183.25 200.695312 183.773438 C 200.199219 184.296875 199.671875 184.792969 199.121094 185.261719 C 198.570312 185.730469 197.996094 186.167969 197.394531 186.574219 Z M 197.394531 186.574219 " fill-opacity="1" fill-rule="nonzero"/><g clip-path="url(#619b0bae95)"><path fill="#0284c7" d="M 285.445312 112.773438 C 285.382812 112.058594 285.253906 111.355469 285.054688 110.664062 C 284.855469 109.972656 284.589844 109.308594 284.261719 108.671875 C 283.933594 108.03125 283.550781 107.429688 283.105469 106.867188 C 282.660156 106.300781 282.164062 105.785156 281.621094 105.316406 C 281.074219 104.847656 280.492188 104.4375 279.867188 104.082031 C 279.242188 103.726562 278.589844 103.433594 277.910156 103.203125 C 277.226562 102.976562 276.53125 102.816406 275.820312 102.722656 C 275.105469 102.628906 274.394531 102.601562 273.675781 102.648438 C 241.097656 105.011719 212.875 96.855469 191.972656 79.035156 C 191.480469 78.609375 190.949219 78.234375 190.386719 77.902344 C 189.824219 77.570312 189.234375 77.292969 188.621094 77.066406 C 188.007812 76.84375 187.382812 76.671875 186.738281 76.558594 C 186.09375 76.445312 185.449219 76.390625 184.792969 76.390625 C 184.140625 76.394531 183.492188 76.453125 182.851562 76.570312 C 182.207031 76.6875 181.582031 76.863281 180.972656 77.09375 C 180.359375 77.320312 179.773438 77.605469 179.210938 77.9375 C 178.652344 78.273438 178.125 78.652344 177.632812 79.082031 C 156.777344 97.039062 129.992188 104.988281 98.085938 102.671875 C 97.367188 102.621094 96.652344 102.640625 95.9375 102.726562 C 95.226562 102.816406 94.527344 102.976562 93.84375 103.199219 C 93.160156 103.425781 92.507812 103.714844 91.882812 104.070312 C 91.253906 104.425781 90.667969 104.835938 90.125 105.304688 C 89.578125 105.773438 89.082031 106.289062 88.636719 106.855469 C 88.195312 107.417969 87.808594 108.023438 87.480469 108.664062 C 87.15625 109.300781 86.894531 109.96875 86.695312 110.660156 C 86.5 111.351562 86.371094 112.054688 86.3125 112.773438 C 85.898438 117.941406 85.527344 124.984375 85.527344 133.324219 C 85.527344 179.160156 96.832031 264.519531 176.3125 296.984375 C 177.832031 297.597656 179.398438 298.058594 181.007812 298.371094 C 182.617188 298.679688 184.242188 298.835938 185.878906 298.835938 C 187.519531 298.835938 189.144531 298.679688 190.753906 298.371094 C 192.363281 298.058594 193.929688 297.597656 195.449219 296.984375 C 289.433594 258.566406 288.089844 146.28125 285.445312 112.773438 Z M 187.6875 277.984375 C 186.484375 278.464844 185.277344 278.464844 184.074219 277.984375 C 110.273438 247.816406 105.011719 161.132812 106.195312 125.261719 C 106.203125 125.039062 106.25 124.820312 106.34375 124.617188 C 106.433594 124.410156 106.5625 124.230469 106.722656 124.074219 C 106.886719 123.917969 107.070312 123.796875 107.28125 123.714844 C 107.488281 123.632812 107.707031 123.589844 107.933594 123.59375 L 108.882812 123.59375 C 137.683594 123.59375 162.917969 115.761719 183.863281 100.351562 C 184.167969 100.132812 184.507812 100.023438 184.882812 100.023438 C 185.257812 100.023438 185.597656 100.132812 185.902344 100.351562 C 206.988281 115.554688 233.542969 123.59375 262.714844 123.59375 L 263.828125 123.59375 C 264.054688 123.589844 264.269531 123.632812 264.480469 123.714844 C 264.6875 123.796875 264.875 123.917969 265.039062 124.074219 C 265.199219 124.230469 265.328125 124.410156 265.417969 124.617188 C 265.511719 124.820312 265.558594 125.039062 265.566406 125.261719 C 266.746094 161.132812 261.488281 247.816406 187.6875 277.984375 Z M 187.6875 277.984375 " fill-opacity="1" fill-rule="nonzero"/></g></svg>