<svg xmlns="http://www.w3.org/2000/svg" xmlns:xlink="http://www.w3.org/1999/xlink" width="500" zoomAndPan="magnify" viewBox="0 0 375 374.999991" height="500" preserveAspectRatio="xMidYMid meet" version="1.0"><rect x="-37.5" width="450" fill="#ffffff" y="-37.499999" height="449.999989" fill-opacity="1"/><rect x="-37.5" width="450" fill="#ffffff" y="-37.499999" height="449.999989" fill-opacity="1"/><path fill="#0284c7" d="M 171.296875 292.542969 C 161.941406 292.542969 156.328125 284.46875 151.695312 277.488281 C 149.300781 273.878906 146.585938 269.785156 144.175781 268.496094 C 141.984375 267.328125 137.234375 267.359375 133.070312 267.375 C 125.371094 267.46875 116.65625 267.476562 110.867188 261.4375 C 105.078125 255.414062 105.476562 246.710938 105.832031 239.023438 C 106.027344 234.847656 106.242188 230.109375 105.160156 227.878906 C 103.96875 225.417969 99.988281 222.539062 96.476562 219.996094 C 90.367188 215.578125 83.445312 210.566406 82.351562 202.585938 C 81.25 194.539062 86.597656 187.8125 91.316406 181.878906 C 93.992188 178.519531 97.023438 174.707031 97.492188 172.089844 C 97.945312 169.539062 96.429688 164.972656 95.097656 160.933594 C 92.699219 153.691406 89.984375 145.472656 93.867188 138.222656 C 97.613281 131.21875 105.765625 128.949219 112.964844 126.945312 C 117.414062 125.707031 122.011719 124.425781 124.066406 122.449219 C 126.117188 120.484375 127.585938 115.933594 129 111.535156 C 131.292969 104.433594 133.890625 96.378906 141.035156 92.917969 C 148.433594 89.328125 156.535156 92.371094 163.679688 95.058594 C 167.652344 96.558594 172.097656 98.242188 174.730469 97.902344 C 177.367188 97.539062 181.296875 94.667969 184.761719 92.128906 C 190.878906 87.648438 197.800781 82.570312 205.8125 84.007812 C 213.746094 85.417969 218.472656 92.539062 222.640625 98.820312 C 225.039062 102.429688 227.753906 106.523438 230.164062 107.8125 C 232.347656 108.976562 237.089844 108.933594 241.269531 108.933594 C 248.976562 108.863281 257.683594 108.835938 263.472656 114.867188 C 269.261719 120.894531 268.859375 129.597656 268.503906 137.28125 C 268.3125 141.460938 268.09375 146.199219 269.175781 148.429688 C 270.371094 150.890625 274.351562 153.765625 277.863281 156.3125 C 283.96875 160.726562 290.890625 165.738281 291.984375 173.71875 C 293.085938 181.769531 287.738281 188.492188 283.023438 194.429688 C 280.347656 197.785156 277.3125 201.601562 276.847656 204.214844 C 276.394531 206.765625 277.90625 211.335938 279.238281 215.375 C 281.636719 222.617188 284.355469 230.832031 280.472656 238.082031 C 276.722656 245.089844 268.570312 247.355469 261.375 249.363281 C 256.925781 250.601562 252.328125 251.882812 250.273438 253.855469 C 248.222656 255.824219 246.753906 260.375 245.335938 264.773438 C 243.046875 271.875 240.449219 279.929688 233.304688 283.390625 C 225.90625 286.980469 217.804688 283.9375 210.660156 281.25 C 206.683594 279.75 202.21875 278.03125 199.609375 278.40625 C 196.972656 278.769531 193.042969 281.640625 189.574219 284.179688 C 184.175781 288.132812 178.140625 292.542969 171.296875 292.542969 Z M 135.035156 254.242188 C 140.40625 254.242188 145.820312 254.484375 150.371094 256.921875 C 155.691406 259.773438 159.222656 265.085938 162.632812 270.226562 C 165.214844 274.117188 168.421875 278.949219 170.828125 279.378906 C 173.261719 279.777344 178.027344 276.359375 181.824219 273.585938 C 186.777344 269.964844 191.902344 266.214844 197.824219 265.398438 C 203.683594 264.605469 209.574219 266.816406 215.28125 268.964844 C 219.726562 270.636719 225.246094 272.699219 227.582031 271.578125 C 229.675781 270.566406 231.433594 265.117188 232.84375 260.738281 C 234.761719 254.796875 236.742188 248.644531 241.183594 244.382812 C 245.621094 240.128906 251.839844 238.390625 257.851562 236.71875 C 262.285156 235.480469 267.800781 233.949219 268.898438 231.890625 C 270.121094 229.601562 268.265625 224 266.777344 219.496094 C 264.863281 213.707031 262.886719 207.726562 263.925781 201.914062 C 264.972656 196.03125 268.925781 191.058594 272.75 186.257812 C 275.675781 182.570312 279.320312 177.996094 278.980469 175.5 C 278.652344 173.078125 273.945312 169.683594 270.167969 166.945312 C 265.167969 163.328125 259.996094 159.585938 257.363281 154.15625 C 254.828125 148.921875 255.117188 142.699219 255.390625 136.679688 C 255.625 131.636719 255.886719 125.917969 254.007812 123.957031 C 252.117188 121.996094 246.398438 122.003906 241.34375 122.058594 C 235.328125 122.085938 229.097656 122.136719 223.96875 119.386719 C 218.644531 116.535156 215.117188 111.222656 211.703125 106.082031 C 209.125 102.191406 205.917969 97.359375 203.511719 96.929688 C 201.058594 96.453125 196.308594 99.941406 192.515625 102.722656 C 187.558594 106.34375 182.4375 110.09375 176.515625 110.90625 C 170.65625 111.703125 164.761719 109.496094 159.058594 107.34375 C 154.613281 105.671875 149.078125 103.601562 146.757812 104.730469 C 144.664062 105.742188 142.90625 111.191406 141.496094 115.566406 C 139.578125 121.507812 137.59375 127.660156 133.152344 131.925781 C 128.71875 136.179688 122.5 137.917969 116.484375 139.589844 C 112.054688 140.828125 106.539062 142.359375 105.441406 144.414062 C 104.214844 146.703125 106.070312 152.304688 107.5625 156.8125 C 109.398438 162.363281 110.734375 168.273438 110.195312 174.265625 C 109.644531 180.355469 105.257812 185.449219 101.585938 190.050781 C 98.660156 193.734375 95.019531 198.3125 95.359375 200.804688 C 95.6875 203.230469 100.390625 206.625 104.171875 209.363281 C 109.171875 212.976562 114.34375 216.71875 116.972656 222.148438 C 119.511719 227.386719 119.222656 233.609375 118.949219 239.628906 C 118.714844 244.671875 118.449219 250.390625 120.332031 252.351562 C 123.671875 255.820312 130.75 254.242188 135.035156 254.242188 Z M 135.035156 254.242188 " fill-opacity="1" fill-rule="nonzero"/><path fill="#0284c7" d="M 187.167969 253.785156 C 150.976562 253.785156 121.535156 224.339844 121.535156 188.152344 C 121.535156 151.964844 150.976562 122.519531 187.167969 122.519531 C 223.359375 122.519531 252.800781 151.964844 252.800781 188.152344 C 252.800781 224.339844 223.359375 253.785156 187.167969 253.785156 Z M 187.167969 135.648438 C 158.21875 135.648438 134.664062 159.203125 134.664062 188.152344 C 134.664062 217.105469 158.21875 240.660156 187.167969 240.660156 C 216.121094 240.660156 239.675781 217.105469 239.675781 188.152344 C 239.675781 159.203125 216.121094 135.648438 187.167969 135.648438 Z M 187.167969 135.648438 " fill-opacity="1" fill-rule="nonzero"/><path fill="#0284c7" d="M 180.605469 214.34375 C 178.921875 214.351562 177.230469 213.75 175.964844 212.484375 L 156.277344 192.792969 C 153.710938 190.230469 153.710938 186.078125 156.277344 183.511719 C 158.839844 180.949219 162.992188 180.949219 165.558594 183.511719 L 180.164062 198.121094 L 208.382812 164.257812 C 210.703125 161.476562 214.84375 161.113281 217.625 163.417969 C 220.410156 165.738281 220.785156 169.878906 218.464844 172.667969 C 218.464844 172.667969 185.683594 212.003906 185.648438 212.046875 C 184.402344 213.542969 182.511719 214.332031 180.605469 214.34375 Z M 180.605469 214.34375 " fill-opacity="1" fill-rule="nonzero"/></svg>