<svg xmlns="http://www.w3.org/2000/svg" xmlns:xlink="http://www.w3.org/1999/xlink" width="500" zoomAndPan="magnify" viewBox="0 0 375 374.999991" height="500" preserveAspectRatio="xMidYMid meet" version="1.0"><defs><clipPath id="a8dd096b15"><path d="M 71.390625 66.078125 L 303.890625 66.078125 L 303.890625 309.078125 L 71.390625 309.078125 Z M 71.390625 66.078125 " clip-rule="nonzero"/></clipPath></defs><rect x="-37.5" width="450" fill="#ffffff" y="-37.499999" height="449.999989" fill-opacity="1"/><rect x="-37.5" width="450" fill="#ffffff" y="-37.499999" height="449.999989" fill-opacity="1"/><g clip-path="url(#a8dd096b15)"><path fill="#000000" d="M 303.800781 96.019531 L 303.800781 221.300781 C 280.164062 238.605469 246.449219 243.65625 217.113281 234.125 C 209.25 231.585938 201.417969 227.941406 193.851562 224.40625 C 183.75 219.707031 173.320312 214.875 162.136719 212.175781 C 155.304688 210.527344 148.578125 209.796875 142.011719 209.796875 C 119.699219 209.796875 99.300781 218.195312 82.28125 227.375 L 82.28125 303.675781 C 82.28125 306.648438 79.851562 309.078125 76.878906 309.078125 C 73.910156 309.078125 71.476562 306.648438 71.476562 303.675781 L 71.476562 71.476562 C 71.476562 68.507812 73.910156 66.078125 76.878906 66.078125 C 79.851562 66.078125 82.28125 68.507812 82.28125 71.476562 L 82.28125 101.445312 C 104.433594 88.785156 130.746094 77.445312 159.625 84.382812 C 169.730469 86.8125 179.238281 91.242188 189.289062 95.914062 C 197.175781 99.585938 205.308594 103.363281 213.761719 106.117188 C 243.777344 115.863281 277.976562 111.816406 303.800781 96.019531 Z M 303.800781 96.019531 " fill-opacity="1" fill-rule="nonzero"/></g></svg>