<svg xmlns="http://www.w3.org/2000/svg" xmlns:xlink="http://www.w3.org/1999/xlink" width="500" zoomAndPan="magnify" viewBox="0 0 375 374.999991" height="500" preserveAspectRatio="xMidYMid meet" version="1.0"><defs><clipPath id="f0581bebbd"><path d="M 126 97.660156 L 249 97.660156 L 249 277 L 126 277 Z M 126 97.660156 " clip-rule="nonzero"/></clipPath></defs><rect x="-37.5" width="450" fill="#ffffff" y="-37.499999" height="449.999989" fill-opacity="1"/><rect x="-37.5" width="450" fill="#ffffff" y="-37.499999" height="449.999989" fill-opacity="1"/><g clip-path="url(#f0581bebbd)"><path fill="#0284c7" d="M 238.183594 97.390625 L 178.59375 97.390625 L 178.59375 130.589844 C 178.585938 131.195312 178.550781 131.800781 178.488281 132.402344 C 178.421875 133.007812 178.328125 133.605469 178.207031 134.199219 C 178.082031 134.796875 177.929688 135.382812 177.75 135.960938 C 177.570312 136.542969 177.363281 137.109375 177.125 137.667969 C 176.890625 138.230469 176.628906 138.777344 176.335938 139.308594 C 176.046875 139.84375 175.734375 140.359375 175.394531 140.863281 C 175.054688 141.367188 174.691406 141.851562 174.304688 142.320312 C 173.914062 142.785156 173.507812 143.234375 173.074219 143.660156 C 172.644531 144.089844 172.195312 144.492188 171.722656 144.878906 C 171.253906 145.261719 170.765625 145.621094 170.257812 145.957031 C 169.753906 146.292969 169.234375 146.601562 168.695312 146.886719 C 168.160156 147.171875 167.613281 147.429688 167.050781 147.660156 C 166.488281 147.894531 165.917969 148.097656 165.335938 148.273438 C 164.757812 148.449219 164.167969 148.59375 163.574219 148.714844 C 162.976562 148.832031 162.378906 148.921875 161.773438 148.980469 C 161.171875 149.039062 160.566406 149.070312 159.957031 149.070312 L 126.804688 149.070312 L 126.804688 266.261719 C 126.800781 266.945312 126.863281 267.621094 126.992188 268.289062 C 127.121094 268.957031 127.3125 269.609375 127.574219 270.238281 C 127.832031 270.871094 128.148438 271.46875 128.527344 272.035156 C 128.902344 272.605469 129.332031 273.128906 129.816406 273.609375 C 130.296875 274.09375 130.820312 274.523438 131.386719 274.902344 C 131.957031 275.277344 132.554688 275.597656 133.183594 275.855469 C 133.816406 276.113281 134.464844 276.308594 135.132812 276.441406 C 135.804688 276.570312 136.476562 276.632812 137.160156 276.628906 L 238.183594 276.628906 C 238.867188 276.632812 239.550781 276.574219 240.222656 276.445312 C 240.898438 276.316406 241.554688 276.125 242.191406 275.867188 C 242.828125 275.609375 243.433594 275.292969 244.007812 274.917969 C 244.582031 274.539062 245.113281 274.109375 245.601562 273.628906 C 246.089844 273.148438 246.53125 272.625 246.917969 272.058594 C 247.300781 271.488281 247.628906 270.890625 247.898438 270.257812 C 248.164062 269.625 248.371094 268.972656 248.507812 268.300781 C 248.648438 267.628906 248.722656 266.949219 248.726562 266.261719 L 248.726562 107.746094 C 248.722656 107.058594 248.648438 106.378906 248.507812 105.707031 C 248.367188 105.039062 248.164062 104.386719 247.894531 103.753906 C 247.625 103.121094 247.300781 102.523438 246.914062 101.957031 C 246.527344 101.390625 246.089844 100.867188 245.597656 100.386719 C 245.109375 99.902344 244.578125 99.476562 244.003906 99.097656 C 243.429688 98.722656 242.824219 98.40625 242.1875 98.148438 C 241.550781 97.894531 240.898438 97.699219 240.222656 97.574219 C 239.546875 97.445312 238.867188 97.382812 238.183594 97.390625 Z M 228.710938 248.585938 L 146.820312 248.585938 L 146.820312 240.460938 L 228.710938 240.460938 Z M 228.710938 224.207031 L 146.820312 224.207031 L 146.820312 215.992188 L 228.710938 215.992188 Z M 228.710938 199.75 L 146.820312 199.75 L 146.820312 191.558594 L 228.710938 191.558594 Z M 228.710938 175.289062 L 146.820312 175.289062 L 146.820312 167.261719 L 228.710938 167.261719 Z M 228.710938 175.289062 " fill-opacity="1" fill-rule="nonzero"/></g><path fill="#0284c7" d="M 170.359375 130.589844 L 170.359375 103.078125 L 151.398438 121.976562 L 132.574219 141 L 159.957031 141 C 160.640625 141 161.320312 140.933594 161.988281 140.804688 C 162.660156 140.671875 163.3125 140.472656 163.945312 140.214844 C 164.578125 139.953125 165.175781 139.632812 165.746094 139.253906 C 166.3125 138.871094 166.839844 138.441406 167.324219 137.957031 C 167.808594 137.472656 168.238281 136.945312 168.617188 136.378906 C 168.996094 135.808594 169.316406 135.207031 169.578125 134.574219 C 169.835938 133.945312 170.035156 133.292969 170.164062 132.621094 C 170.296875 131.949219 170.359375 131.273438 170.359375 130.589844 Z M 170.359375 130.589844 " fill-opacity="1" fill-rule="nonzero"/></svg>