<svg xmlns="http://www.w3.org/2000/svg" xmlns:xlink="http://www.w3.org/1999/xlink" width="500" zoomAndPan="magnify" viewBox="0 0 375 374.999991" height="500" preserveAspectRatio="xMidYMid meet" version="1.0"><defs><clipPath id="7e3ae029b2"><path d="M 70 81.339844 L 304.605469 81.339844 L 304.605469 293.65625 L 70 293.65625 Z M 70 81.339844 " clip-rule="nonzero"/></clipPath><clipPath id="b0cbeb2fbb"><path d="M 301.167969 126.207031 C 293.777344 101.121094 269.929688 81.34375 241.730469 81.339844 C 218.054688 81.339844 197.484375 94.699219 187.085938 114.320312 C 176.6875 94.703125 156.121094 81.34375 132.445312 81.339844 C 102.949219 81.339844 77.148438 101.121094 72.082031 129.824219 C 59.238281 202.613281 140.652344 259.589844 187.269531 293.660156 C 230.371094 262.160156 322.289062 197.929688 301.167969 126.207031 Z M 301.167969 126.207031 " clip-rule="nonzero"/></clipPath><clipPath id="c7aa5ef76d"><path d="M 0.558594 0.339844 L 234.605469 0.339844 L 234.605469 212.65625 L 0.558594 212.65625 Z M 0.558594 0.339844 " clip-rule="nonzero"/></clipPath><clipPath id="700e44294e"><path d="M 231.167969 45.207031 C 223.777344 20.121094 199.929688 0.34375 171.730469 0.339844 C 148.054688 0.339844 127.484375 13.699219 117.085938 33.320312 C 106.6875 13.703125 86.121094 0.34375 62.445312 0.339844 C 32.949219 0.339844 7.148438 20.121094 2.082031 48.824219 C -10.761719 121.613281 70.652344 178.589844 117.269531 212.660156 C 160.371094 181.160156 252.289062 116.929688 231.167969 45.207031 Z M 231.167969 45.207031 " clip-rule="nonzero"/></clipPath><clipPath id="2cbfb61a36"><rect x="0" width="235" y="0" height="213"/></clipPath></defs><rect x="-37.5" width="450" fill="#ffffff" y="-37.499999" height="449.999989" fill-opacity="1"/><rect x="-37.5" width="450" fill="#ffffff" y="-37.499999" height="449.999989" fill-opacity="1"/><g clip-path="url(#7e3ae029b2)"><g clip-path="url(#b0cbeb2fbb)"><g transform="matrix(1, 0, 0, 1, 70, 81)"><g clip-path="url(#2cbfb61a36)"><g clip-path="url(#c7aa5ef76d)"><g clip-path="url(#700e44294e)"><path fill="#000000" d="M 0.726562 0.339844 L 234.605469 0.339844 L 234.605469 212.65625 L 0.726562 212.65625 Z M 0.726562 0.339844 " fill-opacity="1" fill-rule="nonzero"/></g></g></g></g></g></g></svg>