<svg xmlns="http://www.w3.org/2000/svg" xmlns:xlink="http://www.w3.org/1999/xlink" width="500" zoomAndPan="magnify" viewBox="0 0 375 374.999991" height="500" preserveAspectRatio="xMidYMid meet" version="1.0"><defs><clipPath id="c837cf6f75"><path d="M 83.589844 72.046875 L 291.339844 72.046875 L 291.339844 303 L 83.589844 303 Z M 83.589844 72.046875 " clip-rule="nonzero"/></clipPath></defs><rect x="-37.5" width="450" fill="#ffffff" y="-37.499999" height="449.999989" fill-opacity="1"/><rect x="-37.5" width="450" fill="#ffffff" y="-37.499999" height="449.999989" fill-opacity="1"/><g clip-path="url(#c837cf6f75)"><path fill="#000000" d="M 256.714844 235.304688 C 247.945312 235.304688 240.039062 238.710938 234.035156 244.195312 L 151.800781 196.207031 C 152.4375 193.609375 152.839844 190.894531 152.839844 188.121094 C 152.839844 185.351562 152.4375 182.636719 151.800781 180.039062 L 233.171875 132.511719 C 239.34375 138.285156 247.597656 141.867188 256.714844 141.867188 C 275.816406 141.867188 291.339844 126.332031 291.339844 107.21875 C 291.339844 88.101562 275.816406 72.570312 256.714844 72.570312 C 237.613281 72.570312 222.089844 88.101562 222.089844 107.21875 C 222.089844 109.988281 222.496094 112.703125 223.128906 115.300781 L 141.761719 162.828125 C 135.585938 157.054688 127.332031 153.472656 118.214844 153.472656 C 99.113281 153.472656 83.589844 169.007812 83.589844 188.121094 C 83.589844 207.238281 99.113281 222.769531 118.214844 222.769531 C 127.332031 222.769531 135.585938 219.191406 141.761719 213.417969 L 223.996094 261.40625 C 223.417969 263.832031 223.070312 266.371094 223.070312 268.96875 C 223.070312 287.566406 238.132812 302.636719 256.714844 302.636719 C 275.296875 302.636719 290.359375 287.566406 290.359375 268.96875 C 290.359375 250.375 275.296875 235.304688 256.714844 235.304688 Z M 256.714844 235.304688 " fill-opacity="1" fill-rule="nonzero"/></g></svg>