<svg xmlns="http://www.w3.org/2000/svg" xmlns:xlink="http://www.w3.org/1999/xlink" width="500" zoomAndPan="magnify" viewBox="0 0 375 374.999991" height="500" preserveAspectRatio="xMidYMid meet" version="1.0"><defs><clipPath id="c685f43ac7"><path d="M 70.871094 70.871094 L 134 70.871094 L 134 301 L 70.871094 301 Z M 70.871094 70.871094 " clip-rule="nonzero"/></clipPath><clipPath id="63cbb7b7a5"><path d="M 74 241 L 304.121094 241 L 304.121094 304.121094 L 74 304.121094 Z M 74 241 " clip-rule="nonzero"/></clipPath></defs><rect x="-37.5" width="450" fill="#ffffff" y="-37.499999" height="449.999989" fill-opacity="1"/><rect x="-37.5" width="450" fill="#ffffff" y="-37.499999" height="449.999989" fill-opacity="1"/><g clip-path="url(#c685f43ac7)"><path fill="#0097b2" d="M 96.15625 84.332031 C 96.15625 85.644531 95.089844 86.710938 93.777344 86.710938 L 70.871094 86.710938 L 70.871094 99.304688 L 83.601562 99.304688 C 84.917969 99.304688 85.984375 100.371094 85.984375 101.6875 C 85.984375 103 84.917969 104.066406 83.601562 104.066406 L 70.871094 104.066406 L 70.871094 116.660156 L 83.601562 116.660156 C 84.917969 116.660156 85.984375 117.726562 85.984375 119.039062 C 85.984375 120.355469 84.917969 121.421875 83.601562 121.421875 L 70.871094 121.421875 L 70.871094 134.015625 L 83.601562 134.015625 C 84.917969 134.015625 85.984375 135.082031 85.984375 136.394531 C 85.984375 137.707031 84.917969 138.773438 83.601562 138.773438 L 70.871094 138.773438 L 70.871094 151.367188 L 83.601562 151.367188 C 84.917969 151.367188 85.984375 152.433594 85.984375 153.75 C 85.984375 155.0625 84.917969 156.128906 83.601562 156.128906 L 70.871094 156.128906 L 70.871094 168.722656 L 93.777344 168.722656 C 95.089844 168.722656 96.15625 169.789062 96.15625 171.101562 C 96.15625 172.417969 95.089844 173.484375 93.777344 173.484375 L 70.871094 173.484375 L 70.871094 186.078125 L 83.601562 186.078125 C 84.917969 186.078125 85.984375 187.144531 85.984375 188.457031 C 85.984375 189.773438 84.917969 190.839844 83.601562 190.839844 L 70.871094 190.839844 L 70.871094 203.433594 L 83.601562 203.433594 C 84.917969 203.433594 85.984375 204.5 85.984375 205.8125 C 85.984375 207.125 84.917969 208.191406 83.601562 208.191406 L 70.871094 208.191406 L 70.871094 220.785156 L 83.601562 220.785156 C 84.917969 220.785156 85.984375 221.851562 85.984375 223.167969 C 85.984375 224.480469 84.917969 225.546875 83.601562 225.546875 L 70.871094 225.546875 L 70.871094 238.140625 L 83.601562 238.140625 C 84.917969 238.140625 85.984375 239.207031 85.984375 240.519531 C 85.984375 241.835938 84.917969 242.898438 83.601562 242.898438 L 70.871094 242.898438 L 70.871094 255.496094 L 93.777344 255.496094 C 95.089844 255.496094 96.15625 256.558594 96.15625 257.875 C 96.15625 259.1875 95.089844 260.253906 93.777344 260.253906 L 70.871094 260.253906 L 70.871094 300.753906 L 133.058594 238.566406 L 133.058594 73.300781 C 133.058594 71.960938 131.96875 70.871094 130.628906 70.871094 L 73.300781 70.871094 C 71.960938 70.871094 70.871094 71.960938 70.871094 73.300781 L 70.871094 81.949219 L 93.777344 81.949219 C 95.089844 81.949219 96.15625 83.015625 96.15625 84.332031 " fill-opacity="1" fill-rule="nonzero"/></g><g clip-path="url(#63cbb7b7a5)"><path fill="#0097b2" d="M 115.582031 304.121094 L 115.582031 281.214844 C 115.582031 279.902344 116.644531 278.835938 117.960938 278.835938 C 119.277344 278.835938 120.339844 279.902344 120.339844 281.214844 L 120.339844 304.121094 L 132.933594 304.121094 L 132.933594 291.386719 C 132.933594 290.074219 134 289.007812 135.316406 289.007812 C 136.628906 289.007812 137.695312 290.074219 137.695312 291.386719 L 137.695312 304.121094 L 150.289062 304.121094 L 150.289062 291.386719 C 150.289062 290.074219 151.355469 289.007812 152.667969 289.007812 C 153.984375 289.007812 155.050781 290.074219 155.050781 291.386719 L 155.050781 304.121094 L 167.644531 304.121094 L 167.644531 291.386719 C 167.644531 290.074219 168.707031 289.007812 170.023438 289.007812 C 171.339844 289.007812 172.402344 290.074219 172.402344 291.386719 L 172.402344 304.121094 L 184.996094 304.121094 L 184.996094 291.386719 C 184.996094 290.074219 186.0625 289.007812 187.378906 289.007812 C 188.691406 289.007812 189.757812 290.074219 189.757812 291.386719 L 189.757812 304.121094 L 202.351562 304.121094 L 202.351562 281.214844 C 202.351562 279.902344 203.417969 278.835938 204.730469 278.835938 C 206.046875 278.835938 207.113281 279.902344 207.113281 281.214844 L 207.113281 304.121094 L 219.707031 304.121094 L 219.707031 291.386719 C 219.707031 290.074219 220.773438 289.007812 222.085938 289.007812 C 223.402344 289.007812 224.46875 290.074219 224.46875 291.386719 L 224.46875 304.121094 L 237.0625 304.121094 L 237.0625 291.386719 C 237.0625 290.074219 238.125 289.007812 239.441406 289.007812 C 240.753906 289.007812 241.820312 290.074219 241.820312 291.386719 L 241.820312 304.121094 L 254.414062 304.121094 L 254.414062 291.386719 C 254.414062 290.074219 255.480469 289.007812 256.796875 289.007812 C 258.109375 289.007812 259.175781 290.074219 259.175781 291.386719 L 259.175781 304.121094 L 271.769531 304.121094 L 271.769531 291.386719 C 271.769531 290.074219 272.835938 289.007812 274.148438 289.007812 C 275.464844 289.007812 276.527344 290.074219 276.527344 291.386719 L 276.527344 304.121094 L 289.125 304.121094 L 289.125 281.214844 C 289.125 279.902344 290.1875 278.835938 291.503906 278.835938 C 292.816406 278.835938 293.882812 279.902344 293.882812 281.214844 L 293.882812 304.121094 L 301.6875 304.121094 C 303.027344 304.121094 304.121094 303.027344 304.121094 301.6875 L 304.121094 244.363281 C 304.121094 243.023438 303.027344 241.929688 301.6875 241.929688 L 136.425781 241.929688 L 74.234375 304.121094 L 115.582031 304.121094 " fill-opacity="1" fill-rule="nonzero"/></g></svg>