<svg xmlns="http://www.w3.org/2000/svg" xmlns:xlink="http://www.w3.org/1999/xlink" width="500" zoomAndPan="magnify" viewBox="0 0 375 374.999991" height="500" preserveAspectRatio="xMidYMid meet" version="1.0"><defs><clipPath id="a4be9ff9fa"><path d="M 111.316406 223 L 139 223 L 139 267.730469 L 111.316406 267.730469 Z M 111.316406 223 " clip-rule="nonzero"/></clipPath><clipPath id="ab63e10c95"><path d="M 152 217 L 181 217 L 181 267.730469 L 152 267.730469 Z M 152 217 " clip-rule="nonzero"/></clipPath><clipPath id="b45193c764"><path d="M 194 203 L 223 203 L 223 267.730469 L 194 267.730469 Z M 194 203 " clip-rule="nonzero"/></clipPath><clipPath id="2c9720581a"><path d="M 237 177 L 263.566406 177 L 263.566406 267.730469 L 237 267.730469 Z M 237 177 " clip-rule="nonzero"/></clipPath><clipPath id="e25edac9c6"><path d="M 111.316406 107.230469 L 263.566406 107.230469 L 263.566406 210 L 111.316406 210 Z M 111.316406 107.230469 " clip-rule="nonzero"/></clipPath></defs><rect x="-37.5" width="450" fill="#ffffff" y="-37.499999" height="449.999989" fill-opacity="1"/><rect x="-37.5" width="450" fill="#ffffff" y="-37.499999" height="449.999989" fill-opacity="1"/><g clip-path="url(#a4be9ff9fa)"><path fill="#0284c7" d="M 111.328125 223.933594 L 138.175781 223.933594 L 138.175781 267.765625 L 111.328125 267.765625 Z M 111.328125 223.933594 " fill-opacity="1" fill-rule="nonzero"/></g><g clip-path="url(#ab63e10c95)"><path fill="#0284c7" d="M 152.96875 267.765625 L 152.96875 217.90625 L 180.042969 217.90625 L 180.042969 267.765625 Z M 152.96875 267.765625 " fill-opacity="1" fill-rule="nonzero"/></g><g clip-path="url(#b45193c764)"><path fill="#0284c7" d="M 194.609375 203.109375 L 222.554688 203.109375 L 222.554688 267.765625 L 194.609375 267.765625 Z M 194.609375 203.109375 " fill-opacity="1" fill-rule="nonzero"/></g><g clip-path="url(#2c9720581a)"><path fill="#0284c7" d="M 237.34375 177.363281 L 263.648438 177.363281 L 263.648438 267.765625 L 237.34375 267.765625 Z M 237.34375 177.363281 " fill-opacity="1" fill-rule="nonzero"/></g><g clip-path="url(#e25edac9c6)"><path fill="#0284c7" d="M 111.328125 208.914062 C 111.328125 208.914062 182.554688 199.296875 231.320312 134.625 L 215.429688 124.214844 L 263.65625 107.230469 L 263.65625 158.070312 L 250.503906 146.675781 C 250.503906 146.675781 190.773438 214.160156 111.328125 208.914062 Z M 111.328125 208.914062 " fill-opacity="1" fill-rule="nonzero"/></g></svg>