<svg xmlns="http://www.w3.org/2000/svg" xmlns:xlink="http://www.w3.org/1999/xlink" width="500" zoomAndPan="magnify" viewBox="0 0 375 374.999991" height="500" preserveAspectRatio="xMidYMid meet" version="1.0"><defs><clipPath id="e4c00bb8d0"><path d="M 69.664062 65.820312 L 305.164062 65.820312 L 305.164062 309.175781 L 69.664062 309.175781 Z M 69.664062 65.820312 " clip-rule="nonzero"/></clipPath></defs><rect x="-37.5" width="450" fill="#ffffff" y="-37.499999" height="449.999989" fill-opacity="1"/><rect x="-37.5" width="450" fill="#ffffff" y="-37.499999" height="449.999989" fill-opacity="1"/><g clip-path="url(#e4c00bb8d0)"><path fill="#0284c7" d="M 249.140625 107.878906 L 249.140625 182.757812 C 249.140625 194.863281 258.953125 204.675781 271.058594 204.675781 L 283.417969 204.675781 C 295.523438 204.675781 305.335938 194.863281 305.335938 182.757812 L 305.335938 107.878906 C 305.335938 95.777344 295.523438 85.960938 283.421875 85.960938 L 271.058594 85.960938 C 258.953125 85.960938 249.140625 95.777344 249.140625 107.878906 Z M 228.53125 209.613281 C 225.199219 211.714844 221.734375 213.816406 219.242188 216.976562 C 210.773438 227.71875 202.308594 238.460938 193.839844 249.207031 C 181.925781 264.320312 178.265625 280.53125 172.773438 298.621094 C 170.574219 305.875 163.550781 310.292969 156.378906 308.929688 L 143.964844 306.574219 C 139.390625 305.707031 135.5 302.601562 133.492188 298.226562 C 130.492188 291.683594 127.515625 284.445312 126.539062 277.023438 C 125.496094 269.082031 127.660156 262.605469 129.898438 255.1875 C 130.027344 254.765625 130.171875 254.347656 130.335938 253.9375 C 130.335938 253.9375 136.390625 233.78125 136.390625 233.78125 C 138.535156 226.648438 133.503906 226.695312 127.628906 227.113281 C 118.507812 227.761719 109.214844 227.882812 100.082031 227.234375 C 84.941406 226.15625 74.078125 217.597656 70.59375 203.152344 C 68.449219 194.253906 70.050781 184.59375 75.015625 176.980469 C 76.488281 174.71875 77.867188 172.183594 77.65625 169.496094 C 77.421875 166.421875 75.414062 163.882812 74.738281 160.925781 C 73.832031 156.96875 74.128906 152.46875 75.617188 148.679688 C 77.554688 143.75 82.375 140.496094 83.539062 137.0625 C 85.492188 131.308594 81.308594 125.464844 82.308594 119.453125 C 83.804688 110.4375 92.875 109.847656 91.183594 99.714844 C 91.183594 99.714844 90.046875 92.886719 90.046875 92.886719 C 88.347656 82.660156 97.730469 72.863281 105.390625 68.589844 C 113.441406 64.097656 125.535156 66.351562 134.367188 66.640625 C 144.949219 66.984375 155.539062 67.753906 165.996094 69.539062 C 186.261719 73 204.691406 84.207031 225.367188 85.515625 C 233.011719 86 238.972656 92.613281 238.972656 100.609375 C 238.972656 100.609375 238.972656 194.839844 238.972656 194.941406 C 238.972656 202.8125 233.925781 206.210938 228.53125 209.613281 " fill-opacity="1" fill-rule="nonzero"/></g></svg>