<svg xmlns="http://www.w3.org/2000/svg" xmlns:xlink="http://www.w3.org/1999/xlink" width="500" zoomAndPan="magnify" viewBox="0 0 375 374.999991" height="500" preserveAspectRatio="xMidYMid meet" version="1.0"><rect x="-37.5" width="450" fill="#ffffff" y="-37.499999" height="449.999989" fill-opacity="1"/><rect x="-37.5" width="450" fill="#ffffff" y="-37.499999" height="449.999989" fill-opacity="1"/><path fill="#0284c7" d="M 295.925781 202.882812 C 296.453125 198.875 303.839844 192.945312 304.078125 188.90625 C 304.507812 181.566406 294.585938 167.203125 287.773438 164.445312 C 276.953125 160.070312 221.964844 162.117188 221.964844 162.117188 C 216.59375 152.722656 231.542969 129.523438 235.652344 119.507812 C 241.6875 104.828125 240.671875 85.351562 233.039062 75.347656 C 223.714844 63.125 206.601562 62.308594 206.25 67.78125 C 203.699219 107.453125 196.105469 118.457031 185.933594 126.300781 C 179.828125 131.015625 174.488281 135.136719 171.671875 142.316406 C 154.339844 186.453125 141.496094 196.667969 134.15625 196.667969 L 129.265625 196.667969 L 129.265625 296.984375 L 180.632812 306.539062 C 180.632812 306.539062 244.40625 312.574219 264.488281 306.539062 C 270.804688 304.644531 281.710938 295.15625 284.285156 289.066406 C 285.757812 285.570312 283.714844 277.300781 285.457031 273.925781 C 288.023438 268.925781 298.863281 262.664062 298.851562 255.875 C 298.84375 251.03125 293.199219 242.648438 293.609375 237.820312 C 294.015625 232.984375 304.101562 226.355469 304.089844 221.515625 C 304.070312 216.433594 295.257812 207.921875 295.925781 202.882812 Z M 295.925781 202.882812 " fill-opacity="1" fill-rule="nonzero"/><path fill="#0284c7" d="M 119.480469 294.535156 C 119.480469 299.941406 115.097656 304.324219 109.691406 304.324219 L 80.332031 304.324219 C 74.925781 304.324219 70.546875 299.941406 70.546875 294.535156 L 70.546875 201.5625 C 70.546875 196.160156 74.925781 191.777344 80.332031 191.777344 L 109.691406 191.777344 C 115.097656 191.777344 119.480469 196.160156 119.480469 201.5625 Z M 119.480469 294.535156 " fill-opacity="1" fill-rule="nonzero"/></svg>