<svg xmlns="http://www.w3.org/2000/svg" xmlns:xlink="http://www.w3.org/1999/xlink" width="500" zoomAndPan="magnify" viewBox="0 0 375 374.999991" height="500" preserveAspectRatio="xMidYMid meet" version="1.0"><defs><clipPath id="179c8f3350"><path d="M 183 185 L 289 185 L 289 291.683594 L 183 291.683594 Z M 183 185 " clip-rule="nonzero"/></clipPath><clipPath id="ffdb10fd31"><path d="M 115 83.183594 L 208 83.183594 L 208 176 L 115 176 Z M 115 83.183594 " clip-rule="nonzero"/></clipPath><clipPath id="a873d89468"><path d="M 75 182 L 195 182 L 195 276 L 75 276 Z M 75 182 " clip-rule="nonzero"/></clipPath></defs><rect x="-37.5" width="450" fill="#ffffff" y="-37.499999" height="449.999989" fill-opacity="1"/><rect x="-37.5" width="450" fill="#ffffff" y="-37.499999" height="449.999989" fill-opacity="1"/><path fill="#0284c7" d="M 242.476562 270.25 C 240.753906 270.25 239.097656 269.5625 237.878906 268.34375 L 208.769531 239.234375 C 207.550781 238.015625 206.863281 236.359375 206.863281 234.632812 C 206.863281 232.910156 207.550781 231.253906 208.769531 230.035156 L 222.492188 216.3125 C 225.03125 213.769531 229.152344 213.769531 231.691406 216.3125 L 242.476562 227.09375 L 275.171875 194.398438 C 277.714844 191.859375 281.832031 191.859375 284.371094 194.398438 L 298.097656 208.121094 C 299.316406 209.34375 300 210.996094 300 212.722656 C 300 214.449219 299.316406 216.101562 298.097656 217.324219 L 247.078125 268.34375 C 245.855469 269.5625 244.203125 270.25 242.476562 270.25 Z M 222.570312 234.632812 L 242.476562 254.542969 L 284.296875 212.722656 L 279.773438 208.199219 L 247.078125 240.894531 C 244.539062 243.4375 240.417969 243.4375 237.878906 240.894531 L 227.09375 230.109375 Z M 222.570312 234.632812 " fill-opacity="1" fill-rule="nonzero"/><g clip-path="url(#179c8f3350)"><path fill="#0284c7" d="M 235.988281 291.757812 C 229.113281 291.757812 222.410156 290.453125 216.0625 287.882812 C 209.492188 285.214844 203.59375 281.300781 198.542969 276.25 C 193.488281 271.195312 189.574219 265.300781 186.910156 258.726562 C 184.335938 252.382812 183.03125 245.679688 183.03125 238.804688 C 183.03125 231.929688 184.335938 225.226562 186.910156 218.878906 C 189.574219 212.308594 193.488281 206.410156 198.542969 201.359375 C 202.964844 196.9375 208.0625 193.371094 213.691406 190.757812 C 219.128906 188.234375 224.921875 186.664062 230.914062 186.089844 C 242.945312 184.941406 255.09375 187.953125 265.128906 194.578125 L 257.960938 205.4375 C 242.222656 195.042969 221.101562 197.199219 207.742188 210.558594 C 192.167969 226.132812 192.167969 251.476562 207.742188 267.046875 C 215.285156 274.59375 225.316406 278.75 235.984375 278.75 C 246.65625 278.75 256.6875 274.59375 264.230469 267.046875 C 271.226562 260.054688 275.359375 250.765625 275.875 240.894531 L 288.867188 241.574219 C 288.1875 254.660156 282.703125 266.976562 273.429688 276.25 C 268.378906 281.300781 262.480469 285.214844 255.910156 287.878906 C 249.5625 290.453125 242.859375 291.757812 235.984375 291.757812 Z M 235.988281 291.757812 " fill-opacity="1" fill-rule="nonzero"/></g><g clip-path="url(#ffdb10fd31)"><path fill="#0284c7" d="M 161.511719 175.785156 C 155.265625 175.785156 149.203125 174.558594 143.496094 172.144531 C 137.984375 169.816406 133.035156 166.480469 128.789062 162.230469 C 124.539062 157.984375 121.207031 153.035156 118.875 147.523438 C 116.460938 141.816406 115.234375 135.753906 115.234375 129.511719 C 115.234375 123.265625 116.460938 117.207031 118.875 111.496094 C 121.207031 105.984375 124.539062 101.035156 128.789062 96.789062 C 133.035156 92.542969 137.984375 89.207031 143.496094 86.875 C 149.203125 84.460938 155.265625 83.238281 161.511719 83.238281 C 167.753906 83.238281 173.816406 84.460938 179.523438 86.875 C 185.035156 89.207031 189.984375 92.542969 194.230469 96.789062 C 198.480469 101.039062 201.8125 105.984375 204.144531 111.496094 C 206.558594 117.207031 207.785156 123.265625 207.785156 129.511719 C 207.785156 135.753906 206.558594 141.816406 204.144531 147.523438 C 201.8125 153.035156 198.480469 157.984375 194.230469 162.230469 C 189.984375 166.480469 185.035156 169.816406 179.523438 172.144531 C 173.816406 174.558594 167.753906 175.785156 161.511719 175.785156 Z M 161.511719 96.246094 C 143.167969 96.246094 128.246094 111.167969 128.246094 129.511719 C 128.246094 147.851562 143.167969 162.773438 161.511719 162.773438 C 179.851562 162.773438 194.773438 147.851562 194.773438 129.511719 C 194.773438 111.167969 179.851562 96.246094 161.511719 96.246094 Z M 161.511719 96.246094 " fill-opacity="1" fill-rule="nonzero"/></g><g clip-path="url(#a873d89468)"><path fill="#0284c7" d="M 182.132812 275.125 L 81.503906 275.125 C 77.910156 275.125 74.996094 272.214844 74.996094 268.621094 C 74.996094 256.945312 77.285156 245.613281 81.800781 234.945312 C 86.15625 224.640625 92.394531 215.390625 100.335938 207.445312 C 108.28125 199.503906 117.53125 193.269531 127.835938 188.910156 C 138.503906 184.394531 149.835938 182.109375 161.511719 182.109375 C 173.1875 182.109375 183.960938 184.285156 194.40625 188.582031 L 189.453125 200.613281 C 180.589844 196.96875 171.1875 195.117188 161.511719 195.117188 C 123.171875 195.117188 91.597656 224.621094 88.292969 262.113281 L 182.132812 262.113281 Z M 182.132812 275.125 " fill-opacity="1" fill-rule="nonzero"/></g></svg>