<svg xmlns="http://www.w3.org/2000/svg" xmlns:xlink="http://www.w3.org/1999/xlink" width="500" zoomAndPan="magnify" viewBox="0 0 375 374.999991" height="500" preserveAspectRatio="xMidYMid meet" version="1.0"><defs><clipPath id="7e41fabe0b"><path d="M 60.824219 127.488281 L 314.324219 127.488281 L 314.324219 247 L 60.824219 247 Z M 60.824219 127.488281 " clip-rule="nonzero"/></clipPath></defs><rect x="-37.5" width="450" fill="#ffffff" y="-37.499999" height="449.999989" fill-opacity="1"/><rect x="-37.5" width="450" fill="#ffffff" y="-37.499999" height="449.999989" fill-opacity="1"/><g clip-path="url(#7e41fabe0b)"><path fill="#0097b2" d="M 303.210938 170.648438 L 306.933594 170.648438 C 310.867188 170.648438 314.070312 173.835938 314.070312 177.773438 L 314.070312 214.375 C 314.070312 216.265625 313.316406 218.078125 311.972656 219.417969 C 310.65625 220.753906 308.839844 221.503906 306.933594 221.503906 L 302.507812 221.503906 C 302.695312 220.59375 302.835938 219.667969 302.976562 218.726562 C 304.226562 210.203125 303.917969 200.382812 303.777344 189.546875 C 303.707031 183.03125 303.496094 176.585938 303.210938 170.648438 Z M 72.960938 170.648438 C 72.675781 176.585938 72.464844 183.03125 72.371094 189.546875 C 72.253906 200.382812 71.949219 210.203125 73.171875 218.726562 C 73.3125 219.667969 73.480469 220.59375 73.644531 221.503906 L 68.0625 221.503906 C 66.15625 221.503906 64.34375 220.753906 63.023438 219.417969 C 61.679688 218.078125 60.925781 216.265625 60.925781 214.375 L 60.925781 177.773438 C 60.925781 173.835938 64.128906 170.648438 68.0625 170.648438 Z M 215.847656 140.09375 L 165.785156 140.09375 L 165.785156 132.589844 C 165.785156 131.238281 166.304688 129.9375 167.269531 128.980469 C 168.234375 128.023438 169.53125 127.484375 170.871094 127.484375 L 210.738281 127.484375 C 212.105469 127.484375 213.402344 128.023438 214.367188 128.980469 C 215.308594 129.9375 215.847656 131.238281 215.847656 132.589844 Z M 271.398438 144.800781 C 285.882812 144.800781 297.796875 155.988281 298.480469 170.226562 C 298.761719 176.289062 299 182.90625 299.070312 189.601562 C 299.210938 200.164062 299.539062 209.738281 298.316406 218.046875 C 297.183594 225.894531 294.640625 232.574219 288.988281 237.769531 C 283.292969 242.984375 273.285156 245.273438 262.355469 246.148438 C 245.261719 247.511719 225.859375 245.207031 215.753906 243.546875 C 213.613281 243.195312 212.128906 241.820312 210.8125 240.070312 C 209.164062 237.882812 207.820312 235.121094 206.265625 232.425781 C 202.6875 226.179688 198.09375 220.335938 188.230469 220.335938 C 188.179688 220.335938 188.132812 220.335938 188.085938 220.335938 C 188.039062 220.335938 187.992188 220.335938 187.921875 220.335938 C 178.078125 220.335938 173.488281 226.179688 169.882812 232.425781 C 168.332031 235.121094 166.988281 237.882812 165.363281 240.070312 C 164.042969 241.820312 162.5625 243.195312 160.417969 243.546875 C 150.292969 245.207031 130.910156 247.511719 113.816406 246.148438 C 102.867188 245.273438 92.859375 242.984375 87.183594 237.769531 C 81.507812 232.574219 78.988281 225.894531 77.835938 218.046875 C 76.632812 209.738281 76.964844 200.164062 77.082031 189.601562 C 77.175781 182.90625 77.410156 176.289062 77.695312 170.226562 C 78.378906 155.988281 90.292969 144.800781 104.75 144.800781 Z M 271.398438 144.800781 " fill-opacity="1" fill-rule="evenodd"/></g></svg>