<svg xmlns="http://www.w3.org/2000/svg" width="500" height="500" viewBox="0 0 375 375" preserveAspectRatio="xMidYMid meet">
  <defs>
    <clipPath id="d912e360bb">
      <path d="M60.824 127.488h253.5V247H60.824z" />
    </clipPath>
  </defs>
  <g clip-path="url(#d912e360bb)">
    <path
      fill="#0284c7"
      d="M303.211 170.648h3.722a7.137 7.137 0 0 1 7.137 7.125v36.602a7.137 7.137 0 0 1-7.137 7.129h-4.426c.188-.91.329-1.836.469-2.778.75-8.523.442-18.344.301-29.18-.07-6.516-.281-12.961-.566-18.898Zm-230.25 0c-.285 5.938-.496 12.383-.59 18.898-.117 10.836-.422 20.656.801 29.18.14.941.308 1.867.472 2.777H68.062a7.137 7.137 0 0 1-7.137-7.129v-36.602a7.137 7.137 0 0 1 7.137-7.125Zm142.887-30.555h-50.062v-7.504c0-1.352.52-2.652 1.484-3.61.965-.957 2.262-1.496 3.602-1.496h39.867c1.367 0 2.664.539 3.629 1.496.942.957 1.48 2.258 1.48 3.61Zm55.55 4.707c14.484 0 26.398 11.188 27.082 25.426.281 6.062.52 12.68.59 19.375.14 10.563.469 20.137-.754 28.445-1.133 7.848-3.676 14.528-9.328 19.723-5.695 5.215-15.703 7.504-26.633 8.379-17.094 1.363-36.496-.941-46.602-2.602-2.14-.351-3.625-1.726-4.941-3.476-1.648-2.188-2.992-4.949-4.547-7.645-3.578-6.246-8.172-12.09-18.035-12.09h-.094c-.047 0-.094 0-.164 0-9.844 0-14.434 5.844-18.04 12.09-1.55 2.696-2.895 5.457-4.52 7.645-1.32 1.75-2.8 3.125-4.945 3.476-10.125 1.66-29.508 3.965-46.602 2.602-10.949-.875-20.957-3.164-26.633-8.379-5.676-5.195-8.195-11.875-9.348-19.723-1.203-8.308-.87-17.882-.75-28.445.093-6.695.328-13.312.613-19.375.683-14.238 12.598-25.426 27.055-25.426Z"
    />
  </g>
</svg>