<svg xmlns="http://www.w3.org/2000/svg" xmlns:xlink="http://www.w3.org/1999/xlink" width="500" zoomAndPan="magnify" viewBox="0 0 375 374.999991" height="500" preserveAspectRatio="xMidYMid meet" version="1.0"><defs><clipPath id="47fe0d0544"><path d="M 69 66.492188 L 305.914062 66.492188 L 305.914062 308.742188 L 69 308.742188 Z M 69 66.492188 " clip-rule="nonzero"/></clipPath></defs><rect x="-37.5" width="450" fill="#ffffff" y="-37.499999" height="449.999989" fill-opacity="1"/><rect x="-37.5" width="450" fill="#0f172a" y="-37.499999" height="449.999989" fill-opacity="1"/><g clip-path="url(#47fe0d0544)"><path fill="#ffffff" d="M 210.042969 168.984375 L 298.214844 66.492188 L 277.320312 66.492188 L 200.761719 155.480469 L 139.613281 66.492188 L 69.089844 66.492188 L 161.558594 201.070312 L 69.089844 308.542969 L 89.984375 308.542969 L 170.835938 214.5625 L 235.410156 308.542969 L 305.933594 308.542969 Z M 181.425781 202.25 L 172.054688 188.851562 L 97.515625 82.21875 L 129.613281 82.21875 L 189.773438 168.265625 L 199.144531 181.664062 L 277.34375 293.515625 L 245.246094 293.515625 L 181.425781 202.238281 Z M 181.425781 202.25 " fill-opacity="1" fill-rule="nonzero"/></g></svg>