<svg xmlns="http://www.w3.org/2000/svg" xmlns:xlink="http://www.w3.org/1999/xlink" width="500" zoomAndPan="magnify" viewBox="0 0 375 374.999991" height="500" preserveAspectRatio="xMidYMid meet" version="1.0"><defs><clipPath id="43f58f01bd"><path d="M 74.164062 110.929688 L 295 110.929688 L 295 263.929688 L 74.164062 263.929688 Z M 74.164062 110.929688 " clip-rule="nonzero"/></clipPath></defs><rect x="-37.5" width="450" fill="#ffffff" y="-37.499999" height="449.999989" fill-opacity="1"/><rect x="-37.5" width="450" fill="#0f172a" y="-37.499999" height="449.999989" fill-opacity="1"/><g clip-path="url(#43f58f01bd)"><path fill="#ffffff" d="M 290.210938 134.023438 C 287.636719 124.515625 280.402344 117.113281 270.757812 114.53125 C 253.710938 109.855469 184.722656 109.855469 184.722656 109.855469 C 184.722656 109.855469 115.902344 109.855469 98.855469 114.519531 C 89.363281 117.101562 81.964844 124.515625 79.234375 134.023438 C 74.730469 151.101562 74.730469 187.019531 74.730469 187.019531 C 74.730469 187.019531 74.730469 222.953125 79.234375 240.195312 C 81.964844 249.539062 89.363281 257.105469 98.855469 259.6875 C 115.902344 264.355469 184.722656 264.355469 184.722656 264.355469 C 184.722656 264.355469 253.710938 264.355469 270.757812 259.6875 C 280.402344 257.105469 287.636719 249.539062 290.210938 240.195312 C 294.871094 222.953125 294.871094 187.03125 294.871094 187.03125 C 294.871094 187.03125 294.871094 151.101562 290.210938 134.023438 Z M 162.855469 220.21875 L 162.855469 154 L 219.941406 187.03125 Z M 162.855469 220.21875 " fill-opacity="1" fill-rule="nonzero"/></g></svg>