<svg xmlns="http://www.w3.org/2000/svg" width="500" height="500" viewBox="0 0 375 375" preserveAspectRatio="xMidYMid meet">
  <defs>
    <clipPath id="clip-house">
      <path d="M107.004 131.543h160.941V283.797H107.004z" />
    </clipPath>
  </defs>
  <g clip-path="url(#clip-house)">
    <path
      fill="#0284c7"
      d="M266.898 200.305 190.922 133.191a6 6 0 0 0-6.895 0l-75.977 67.114a3.42 3.42 0 0 0-1.207 2.666v78.937a2.6 2.6 0 0 0 2.602 2.604h53.406a2.6 2.6 0 0 0 2.605-2.604v-50.418c0-5.75 4.66-10.414 10.414-10.414h22.55c5.754 0 10.414 4.664 10.414 10.414v50.418a2.6 2.6 0 0 0 2.605 2.604h53.406a2.6 2.6 0 0 0 2.605-2.604v-78.938a3.42 3.42 0 0 0-1.211-2.664"
    />
  </g>
  <path
    fill="#0284c7"
    d="m287.832 174.266-86.61-76.118c-7.863-6.91-19.633-6.91-27.5 0l-86.605 76.117c-4.27 3.754-4.48 10.328-.46 14.352 3.672 3.668 9.566 3.855 13.46.426l80.473-70.879c3.938-3.465 9.832-3.465 13.77 0l80.473 70.879c3.895 3.43 9.789 3.242 13.461-.426 4.02-4.024 3.809-10.602-.461-14.351"
  />
</svg>