<svg xmlns="http://www.w3.org/2000/svg" xmlns:xlink="http://www.w3.org/1999/xlink" width="500" zoomAndPan="magnify" viewBox="0 0 375 374.999991" height="500" preserveAspectRatio="xMidYMid meet" version="1.0"><defs><clipPath id="3067c8d049"><path d="M 177 234 L 198 234 L 198 287.554688 L 177 287.554688 Z M 177 234 " clip-rule="nonzero"/></clipPath><clipPath id="4f628ad0ac"><path d="M 87.304688 87.304688 L 287.554688 87.304688 L 287.554688 287.554688 L 87.304688 287.554688 Z M 87.304688 87.304688 " clip-rule="nonzero"/></clipPath></defs><rect x="-37.5" width="450" fill="#ffffff" y="-37.499999" height="449.999989" fill-opacity="1"/><rect x="-37.5" width="450" fill="#ffffff" y="-37.499999" height="449.999989" fill-opacity="1"/><g clip-path="url(#3067c8d049)"><path fill="#0284c7" d="M 194.175781 234.25 L 180.816406 234.25 C 178.945312 234.25 177.476562 235.71875 177.476562 237.589844 L 177.476562 287.683594 L 197.515625 287.683594 L 197.515625 237.589844 C 197.515625 235.71875 196.042969 234.25 194.175781 234.25 Z M 194.175781 234.25 " fill-opacity="1" fill-rule="nonzero"/></g><g clip-path="url(#4f628ad0ac)"><path fill="#0284c7" d="M 281.003906 274.324219 L 230.910156 274.324219 L 230.910156 97.324219 C 230.910156 91.78125 226.433594 87.304688 220.890625 87.304688 L 154.097656 87.304688 C 148.554688 87.304688 144.078125 91.78125 144.078125 97.324219 L 144.078125 274.324219 L 93.984375 274.324219 C 90.3125 274.324219 87.304688 277.332031 87.304688 281.003906 C 87.304688 284.679688 90.3125 287.683594 93.984375 287.683594 L 164.117188 287.683594 L 164.117188 237.589844 C 164.117188 228.371094 171.597656 220.890625 180.816406 220.890625 L 194.175781 220.890625 C 203.390625 220.890625 210.871094 228.371094 210.871094 237.589844 L 210.871094 287.683594 L 281.003906 287.683594 C 284.679688 287.683594 287.683594 284.679688 287.683594 281.003906 C 287.683594 277.332031 284.679688 274.324219 281.003906 274.324219 Z M 172.464844 180.816406 L 169.128906 180.816406 C 165.453125 180.816406 162.449219 177.808594 162.449219 174.136719 C 162.449219 170.460938 165.453125 167.457031 169.128906 167.457031 L 172.464844 167.457031 C 176.140625 167.457031 179.144531 170.460938 179.144531 174.136719 C 179.144531 177.808594 176.140625 180.816406 172.464844 180.816406 Z M 172.464844 154.097656 L 169.128906 154.097656 C 165.453125 154.097656 162.449219 151.09375 162.449219 147.417969 C 162.449219 143.746094 165.453125 140.738281 169.128906 140.738281 L 172.464844 140.738281 C 176.140625 140.738281 179.144531 143.746094 179.144531 147.417969 C 179.144531 151.09375 176.140625 154.097656 172.464844 154.097656 Z M 172.464844 127.382812 L 169.128906 127.382812 C 165.453125 127.382812 162.449219 124.375 162.449219 120.703125 C 162.449219 117.027344 165.453125 114.023438 169.128906 114.023438 L 172.464844 114.023438 C 176.140625 114.023438 179.144531 117.027344 179.144531 120.703125 C 179.144531 124.375 176.140625 127.382812 172.464844 127.382812 Z M 205.863281 180.816406 L 202.523438 180.816406 C 198.851562 180.816406 195.84375 177.808594 195.84375 174.136719 C 195.84375 170.460938 198.851562 167.457031 202.523438 167.457031 L 205.863281 167.457031 C 209.535156 167.457031 212.542969 170.460938 212.542969 174.136719 C 212.542969 177.808594 209.535156 180.816406 205.863281 180.816406 Z M 205.863281 154.097656 L 202.523438 154.097656 C 198.851562 154.097656 195.84375 151.09375 195.84375 147.417969 C 195.84375 143.746094 198.851562 140.738281 202.523438 140.738281 L 205.863281 140.738281 C 209.535156 140.738281 212.542969 143.746094 212.542969 147.417969 C 212.542969 151.09375 209.535156 154.097656 205.863281 154.097656 Z M 205.863281 127.382812 L 202.523438 127.382812 C 198.851562 127.382812 195.84375 124.375 195.84375 120.703125 C 195.84375 117.027344 198.851562 114.023438 202.523438 114.023438 L 205.863281 114.023438 C 209.535156 114.023438 212.542969 117.027344 212.542969 120.703125 C 212.542969 124.375 209.535156 127.382812 205.863281 127.382812 Z M 205.863281 127.382812 " fill-opacity="1" fill-rule="nonzero"/></g><path fill="#0284c7" d="M 274.324219 167.457031 C 274.324219 164.652344 272.589844 162.113281 269.917969 161.179688 L 244.269531 151.828125 L 244.269531 187.496094 L 249.277344 187.496094 C 252.953125 187.496094 255.957031 190.5 255.957031 194.175781 C 255.957031 197.847656 252.953125 200.855469 249.277344 200.855469 L 244.269531 200.855469 L 244.269531 214.210938 L 249.277344 214.210938 C 252.953125 214.210938 255.957031 217.21875 255.957031 220.890625 C 255.957031 224.566406 252.953125 227.570312 249.277344 227.570312 L 244.269531 227.570312 L 244.269531 240.929688 L 249.277344 240.929688 C 252.953125 240.929688 255.957031 243.933594 255.957031 247.609375 C 255.957031 251.28125 252.953125 254.289062 249.277344 254.289062 L 244.269531 254.289062 L 244.269531 260.96875 L 274.324219 260.96875 Z M 274.324219 167.457031 " fill-opacity="1" fill-rule="nonzero"/><path fill="#0284c7" d="M 130.722656 220.890625 L 125.710938 220.890625 C 122.039062 220.890625 119.03125 217.886719 119.03125 214.210938 C 119.03125 210.539062 122.039062 207.53125 125.710938 207.53125 L 130.722656 207.53125 L 130.722656 194.175781 L 125.710938 194.175781 C 122.039062 194.175781 119.03125 191.167969 119.03125 187.496094 C 119.03125 183.820312 122.039062 180.816406 125.710938 180.816406 L 130.722656 180.816406 L 130.722656 167.457031 L 125.710938 167.457031 C 122.039062 167.457031 119.03125 164.453125 119.03125 160.777344 C 119.03125 157.105469 122.039062 154.097656 125.710938 154.097656 L 130.722656 154.097656 L 130.722656 118.429688 L 105.074219 127.78125 C 102.402344 128.71875 100.664062 131.253906 100.664062 134.0625 L 100.664062 260.96875 L 130.722656 260.96875 Z M 130.722656 220.890625 " fill-opacity="1" fill-rule="nonzero"/></svg>