<svg xmlns="http://www.w3.org/2000/svg" xmlns:xlink="http://www.w3.org/1999/xlink" width="500" zoomAndPan="magnify" viewBox="0 0 375 374.999991" height="500" preserveAspectRatio="xMidYMid meet" version="1.0"><defs><clipPath id="72f7b8b149"><path d="M 99.492188 102.023438 L 275.742188 102.023438 L 275.742188 273 L 99.492188 273 Z M 99.492188 102.023438 " clip-rule="nonzero"/></clipPath></defs><rect x="-37.5" width="450" fill="#ffffff" y="-37.499999" height="449.999989" fill-opacity="1"/><rect x="-37.5" width="450" fill="#ffffff" y="-37.499999" height="449.999989" fill-opacity="1"/><g clip-path="url(#72f7b8b149)"><path fill="#0284c7" d="M 196.125 229.609375 L 196.125 212.785156 C 196.125 206.789062 191.269531 201.929688 185.269531 201.929688 C 179.273438 201.929688 174.414062 206.789062 174.414062 212.785156 L 174.414062 229.609375 C 174.414062 235.605469 179.273438 240.46875 185.269531 240.46875 C 191.269531 240.46875 196.125 235.605469 196.125 229.609375 Z M 212.445312 115.109375 L 162.542969 115.109375 L 162.542969 130.125 L 212.445312 130.125 Z M 275.496094 137.335938 L 275.496094 186.292969 L 202.292969 216.566406 L 200.753906 216.566406 L 200.753906 212.785156 C 200.753906 204.242188 193.808594 197.296875 185.269531 197.296875 C 176.730469 197.296875 169.78125 204.242188 169.78125 212.785156 L 169.78125 216.566406 L 168.980469 216.566406 L 99.492188 186.292969 L 99.492188 137.335938 C 99.492188 133.351562 102.722656 130.125 106.703125 130.125 L 149.679688 130.125 L 149.679688 112.976562 C 149.679688 107.054688 154.492188 102.246094 160.40625 102.246094 L 214.585938 102.246094 C 220.5 102.246094 225.3125 107.054688 225.3125 112.976562 L 225.3125 130.125 L 268.289062 130.125 C 272.269531 130.125 275.496094 133.351562 275.496094 137.335938 Z M 203.214844 221.199219 L 275.496094 191.300781 L 275.496094 265.597656 C 275.496094 269.582031 272.269531 272.808594 268.289062 272.808594 L 106.703125 272.808594 C 102.722656 272.808594 99.492188 269.582031 99.492188 265.597656 L 99.492188 191.34375 L 168.015625 221.199219 L 169.78125 221.199219 L 169.78125 229.613281 C 169.78125 238.152344 176.730469 245.097656 185.269531 245.097656 C 193.808594 245.097656 200.753906 238.152344 200.753906 229.613281 L 200.753906 221.199219 L 203.214844 221.199219 " fill-opacity="1" fill-rule="nonzero"/></g></svg>