<svg xmlns="http://www.w3.org/2000/svg" xmlns:xlink="http://www.w3.org/1999/xlink" width="500" zoomAndPan="magnify" viewBox="0 0 375 374.999991" height="500" preserveAspectRatio="xMidYMid meet" version="1.0"><defs><clipPath id="c51a2c886b"><path d="M 85 87.988281 L 285 87.988281 L 285 286.738281 L 85 286.738281 Z M 85 87.988281 " clip-rule="nonzero"/></clipPath></defs><rect x="-37.5" width="450" fill="#ffffff" y="-37.499999" height="449.999989" fill-opacity="1"/><rect x="-37.5" width="450" fill="#ffffff" y="-37.499999" height="449.999989" fill-opacity="1"/><g clip-path="url(#c51a2c886b)"><path fill="#0284c7" d="M 224.722656 87.988281 C 209.488281 87.988281 194.253906 93.824219 182.652344 105.421875 C 167.007812 121.066406 161.378906 144.402344 168.035156 165.46875 L 86.507812 247.066406 C 85.820312 247.683594 85.476562 248.578125 85.476562 249.46875 L 85.203125 283.578125 C 85.203125 284.46875 85.546875 285.363281 86.234375 285.980469 C 86.851562 286.667969 87.742188 287.007812 88.632812 287.007812 C 98.855469 287.007812 109.082031 286.875 119.304688 286.761719 C 121.9375 286.742188 126.171875 287.132812 126.171875 283.304688 L 126.171875 264.15625 L 145.320312 264.15625 C 146.28125 264.15625 147.242188 263.675781 147.859375 262.988281 C 148.546875 262.371094 148.890625 261.480469 148.890625 260.585938 L 148.890625 241.304688 L 168.105469 241.371094 C 168.996094 241.371094 169.890625 240.960938 170.507812 240.34375 C 171.195312 239.726562 171.535156 238.832031 171.535156 237.941406 L 171.535156 218.65625 L 190.820312 218.65625 C 191.714844 218.65625 192.605469 218.246094 193.292969 217.628906 L 206.742188 204.175781 C 227.8125 210.765625 251.144531 205.207031 266.792969 189.558594 C 289.988281 166.363281 289.988281 128.617188 266.792969 105.421875 C 255.195312 93.824219 239.957031 87.988281 224.722656 87.988281 Z M 250.734375 141.039062 C 245.3125 146.460938 236.527344 146.460938 231.175781 141.039062 C 225.753906 135.6875 225.753906 126.902344 231.175781 121.480469 C 236.527344 116.058594 245.3125 116.058594 250.734375 121.480469 C 256.152344 126.902344 256.152344 135.6875 250.734375 141.039062 Z M 250.734375 141.039062 " fill-opacity="1" fill-rule="nonzero"/></g></svg>